<mxfile host="app.diagrams.net" modified="2021-09-09T14:04:28.698Z" agent="5.0 (Windows)" etag="HTtFuyaLmX-CRprNl_uG" version="15.1.2" type="github">
  <diagram id="eBUTFohY4QO1f_QZJ1Nj" name="Page-1">
    <mxGraphModel dx="865" dy="479" grid="1" gridSize="10" guides="1" tooltips="1" connect="1" arrows="1" fold="1" page="1" pageScale="1" pageWidth="827" pageHeight="1169" math="0" shadow="0">
      <root>
        <mxCell id="0" />
        <mxCell id="1" parent="0" />
        <mxCell id="Kqu6DBVRuiVstjZpUtu2-1" value="" style="shape=image;verticalLabelPosition=bottom;labelBackgroundColor=#ffffff;verticalAlign=top;aspect=fixed;imageAspect=0;image=data:image/png,iVBORw0KGgoAAAANSUhEUgAAAj4AAAMWCAYAAADxuoxDAAAgAElEQVR4nOy9eXRU533/nzZNl3ydnpz49LRNkzZN+22+bpPT5rRJnLaOd+wE27GNRQwWmMWITQK0oH0FpJHQvu8rwkhoQUIL2hDaV6TRaGYkgQGxWAaBhAAhJKHl/fsjmfmNNHdGc8XcmUf3ft7nfM7Bc5/7fp77fK4+9+W7fm12dhZiiJmZGUn5iSGsNcdSygXr+zHljJ05ltJ2sDw2Pn5i2Q5Le31tbm4OYoinT59Kyk8MYa05llIuWN+PKWfszLGUtoPlsfHxE8t2WNrra/Pz8xBDzM3NScpPDGGtOZZSLljfjyln7MyxlLaD5bHx8RPLdlja62uLi4sQQywsLEjKTwxhrTmWUi5Y348pZ+zMsZS2g+Wx8fETy3ZY2ksPfP7mb/8v2jsumnXjLREsJ0wIPzGEWIoFy8H6fkw5Y2eOpbQdLI+Nj59YtsPSXpzg8/rr7605+GE5YUL4iSHEUixYDtb3Y8oZO3Mspe1geWx8/MSyHZb2+hqW6W/+9v8CAF5//T10dPYsX8ysFhcXJeUnBllrjqWUC9b3Y8qZvljPmbX6Nacfy2Pj4yeW7bC0l0HwAdYW/LCcMCH8xCCxFAuWxfp+TDnTF+s5s1a/rB5Ereknlu2wtJdR8AHWDvywnDAh/MQgsRQLlsX6fkw50xfrObNWv6weRK3pJ5btsLTXiuADrA34YTlhQviJQWIpFiyL9f2YcqYv1nNmrX5ZPYha008s22FpL5PAB2AfflhOmBB+YpBYigXLYn0/ppzpi/WcWatfVg+i1vQTy3ZY2stk8AHYhh+WEyaEnxgklmLBsljfjyln+mI9Z9bql9WDqDX9xLIdlvbiBT4zs3PMwg/LCRPCTwwSS7FgWazvx5QzfbGeM2v1y+pB1Jp+YtkOS3vxAh8AePBgkkn4YTlhQviJQWIpFiyL9f2YcqYv1nNmrX5ZPYha008s22FpL97gAwB37txlDn5YTpgQfmKQWIoFy2J9P6ac6Yv1nFmrX1YPotb0E8t2WNprVeADADdu3MLrr79ntoE8q1hOmBB+YpBYigXLYn0/ppzpi/WcWatfVg+i1vQTy3ZY2mtF8Hn8eFr779dff08vWBHLCRPCTwwSS7FgWazvx5QzfbGeM2v1y+pB1Jp+YtkOS3sZBZ/Hj6fxf/7P36CsvA4A8MYbv0VZWZXZOjenWE6YEH5ikFiKBctifT+mnOmL9ZxZq19WD6LW9BPLdljayyD4aKCno7MHP/nJiwB+f3lL82/WxHLChPATg8RSLFgW6/sx5UxfrOfMWv2yehC1pp9YtsPSXpzgows9APDOO79DU1On9t8snvVhOWFC+IlBYikWLIv1/Zhypi/Wc2atflk9iFrTTyzbYWkvPfB5/fX3lkAPAHR09uD/vfAzAMDAwBD+/d//22wDMJdYTpgQfmKQWIoFy2J9P6ac6Yv1nFmrX1YPotb0E8t2WNpLD3wM6Z13foeBgSEAwH/91ytmG4C5xHLChPATg8RSLFgW6/sx5UxfrOfMWv2yehC1pp9YtsPSXiaDz8hXt/H/XvgZduywR6+832wDMJd0J+Xhw4e4dOkSBgcHVx0DAwPPtL7QfmIIa82xlHLB+n5MOWNnjqW0HSyPTeNnzFOtVuP27duYm5sT7DjKmp9VwId1aSbl/v37+PTTT5GRkQGVSqXdUYaGhnjFataxpJ8YwlpzLKVcsL4fU85W3tbW1lbU1tZCqVRa7KDc2dmJ8vLyVffJOlywPDZN/iMiIlBWVrbkOKZZ1tDQgJSUFIyPjwtyHGXRj8CHQ5pJuX37Nv77v/8bRUVFmJmZweLiIhYWFtDa2orIyEiEh4dTmBChoaFWHwOFeIP2L9Pj6NGjaGhowPT0NBYXF3nHwsIC73W++uorXLx4EU+ePFlVn6vt11J+LI9N45eUlISuri7tcUw3rl27hpiYGNy7d0+Q4yiLfgQ+HNIFn1/+8pcoKirCkydP8PTpUzx9+hSnT59GTEwMkpOTkZycjLS0NKSlpSE5ORnp6enIzMxESkoKUlNTkZmZifT0dKSmpiIjIwPp6elISUnRa2fKsrS0NGRmZhrtS3dZRkYGkpOTtctSU1O1fikpKUhJSUFGRsaSdrrLlntkZGQgNTUVaWlp2naavtLT0zn7iouLw0cffYTk5OQl22OoD80cmNqHsWW6Hppt1bTT/PfyeVg+/4byaSzXmn1CMw4+uY6Pj4e/v/+SfUszLt0+dLfHEvuTZhzL53ylfUh3zg0t0/x7eV+67biWpaWlISoqCps3b0ZiYqLB/Ss1NXXVfWi2VXef0c2xKduqu18v70uz/xv7G9b10N3H09LS9Oafa141OU1JSUFMTAxaWlowMzPzTLWRj27fvo2enh5MT0+v3NiM/VrKj+WxafySkpLQ3d2N2dlZveUEPs8m0YHP1NQU3N3dUVxcjPb2dtTU1KC2thaBgYGwsbHBRx99hA8//BCvvfYaDh8+jA0bNiAiIgLZ2dnYuXMn9uzZg6ysLMhkMjg7OyMzMxNHjhzB5s2bERERgZSUFOzYsQMHDhxAeno6AgMDsXnzZoSGhiI1NRW7du2Cvb090tLSEBgYCDc3N2RlZcHX1xcbN25ETEwM0tLSsG3bNhw8eBBZWVkICAjARx99hOjoaERHR2Pjxo3Yt28fMjMzcfDgQTg7OyM1NRX79u3D5s2bERkZiePHj2PTpk04ePAgUlNTYW9vj02bNiEsLAxhYWHYvHkz7O3tkZKSAgcHB+047OzsYGNjg9jYWBw/fhw2NjZwdHREVlYW9uzZgx07diAlJQVJSUlISUnBtm3bcOjQIW0fmzdv1v4fu6aPmJgYfPrppzh8+DAyMjJgZ2eHjRs3cvaxd+9efPTRR4iJiUFERAQ2btwIBwcHZGZmwt7eHocPH0ZKSgr27NmDTz75BDExMZDJZPj444/h7OyMnJwcuLi4wNHREdnZ2YiLi4OdnR3CwsKQnZ0Ne3t7REVFISsrC5999hn27NmDjIwMBAcHw8bGBiEhIcjJyYGdnR127dqFjIwMhIWFYePGjQgKCkJOTg4OHjyIsLAwbT7379+P1NRUyGQyfPLJJwgODkZqair27t2LvXv3IikpCRkZGZDJZLCxsYGLi4t2Huzs7JCRkYHQ0FBs27YNCQkJOHr0KD755BMcP358yT6TmpqKoKAg2NraavvYs2cP9u3bh5SUFAQHB8PV1RWZmZkICAjAxo0bERkZifT0dOzcuRP29vbIyMjQ7uuurq7IyMiAp6cnPvnkE8TGxkImk2H79u1ISkpCYmIiPv74Y3h4eCApKQmfffYZbG1tER8fj2PHjmHjxo1wdXVFSkoKdu/eDVtbW8TExCAoKAi7du1CQkKCdr/28vJCcnKy1iMhIQHHjx/Htm3bcOTIEZw4cQIODg5wcXFBTk4OMjIykJSUhM2bN2v7sLOzg62tLaKiouDo6IgdO3Ys6cPb21vbx5YtWxAfH4+AgADY2NjAw8MDqampsLOzwyeffILQ0FBs3boVW7ZsQUpKCvz8/GBjYwNvb28kJSVhx44d2LJlCxITE3HkyBFs3LgR7u7uSE5Oxq5du+Dg4ICoqChs374dO3bsQGJiIry8vLB582ZERUUhOTkZO3bsgKOjIzIzM+Hv74+PP/4YkZGRSEtLw86dO3Hw4EHExcVhy5YtcHFxQWZmJnx8fGBra4vIyEgkJyfj008/haOjI9LT0+Hv7w9bW1uEh4dr/Q8cOICIiAgCHzP7sTw2jR+Bj3BeogOfxcVFnDp1Cunp6YiNjcXExATm5+cxNzenPfvz8OFDxMbGQq1WY3p6GnNzc5ifn9cu120/Pz+vXab7b1OXaby5/Lj60h3n8nZc/fJdxtWvIQ+h++C7rSMjI0hISEBkZCQiIyMRFhaG8PBwREVFISwsDIWFhbh3757Rvubm5vT61V2mm7PV5HqlbbXk/qTZptXsa4byofu3wjV3T58+xczMDK5fv47k5GTt5eXQ0FBt3kJCQnD69Gncu3cPs7OzJu9Dxv5OuZbx2df57Msr/Q0/q8fybfniiy8QHBwMmUyGkJCQJREcHIyYmBgMDw9jfn7eaG3kIwIf6/slJSWhqamJMwcEPs8m0YEPAOTn5yM5ORnR0dF4+PChXtuFhQX09fUhOTkZDx48wOzsrF7MzMxw/r7a4PKbmZmxaExPTzMVT548wdTUlNF4/PgxHj9+jMnJSTQ1NaGlpQWdnZ3o6upaEnV1ddi5cyeqq6sxOTnJOxdiDUvsx8vjwYMHSEhIQG1tLbq6utDd3b0kurq6kJWVhdraWjx8+NAq28FyLN/Wq1evorKyEt3d3ejr64NCodBGX18f6urqkJmZyVnrltdGU0XgY32/hIQEJCYmYmJiQm85gc+zSZTgU1hYiN/85jfw8PDAgwcPONvfuHED9vb2KCwsxJkzZ/SiuLiY8/fVRnFxsV4UFRXpRWFhoTYKCgqWxOnTp5dEfn4+8vPzkZeXp41Tp07pxeeff64XJ0+eRG5u7pI4ceKEXuTk5BiN7OxskyIrK0svMjMzOX9f3kYTnp6eSEhI0N4foblnRXNPxSuvvAKZTIaamhpcuHDBYNTX1xtdTvFsUVNTg88++wxFRUWor6/Xi8bGRgQFBSEkJATV1dVWHy/rUVxcjM7OToM3N1+7dg1RUVG4f//+irXRVBH4WN9Pc7l4bGxMbzmBz7NJlOBz5swZfPe734WDgwMnLQPA9evXERAQgJ6eHsjlcr3o7e3l/H21sZJfX1+f5ILvdmdlZaG1tVVvPYVCge7ubmzatAmnT5/G/fv3VzyLtNKZJrGEubfVFL/R0VEEBATg8uXLmJyc5GyjgfuxsTGrbAfLsXxbr1y5ArVajdlZ/Xs9AGB4eBiRkZEEPlbyEsrPGPjcvHkTCQkJGBkZkcy8EPhwaDn4/O3f/i3s7e2Ngs/Ro0ehVCqhVqu1L4zSBNdvzxLm9hND8J2T3NxcdHd36603ODiI/v5+2NraorS0dMWbQM39x82yrFHIJicnIZPJcOvWLSwsLHC2KSsrw9mzZzE1NWW2fsWi5ds6MjKCwcFBAh9GD6JC+RkDH829rM3Nzc+UIy5fc4rVnIkWfL7//e/D0dFxxTM+/f39FgEVAh8CH2uIwGftafm2fvnll+jo6MCtW7cwOjqKu3fvYnR0VPvvixcv4ujRo7h06RLu3r2rF7ptDYWmzeTkJBYXFwl8GPAzBj4AkJeXh/r6ejx58sSs/ZpTrOZMtODzi1/8AomJiXj48KF22c2bN7U3xpaUlMDDwwMKhYLO+IgAfJRKJYEPhwh81p6Wb+vVq1cREBAAHx8fuLi4YO/evfDy8oKfnx/8/Pxw8OBBvPHGG3B1ddX+phu+vr7w9fXlXKYbzs7OOHHiBCYnJwl8GPAj8BHOS7Tg8x//8R/Ys2cPIiMjER8fj/j4eCQkJGD//v349NNP4enpiRMnTtClrjUCPmq1Grm5uejt7dV7xf/ly5ehUqmwZcsWAp9lIvBZe+I64yOXyzE+Po6Ojg7ExsZiZGQEk5OTmJychFqtRnBwMG7evKn9TTcePXrE+fvyUCgUiI6Oxv379wl8GPAj8BHOS7Tg88tf/hIFBQVoa2tDR0cH2tracPPmTZw5cwY5OTkrHnwJfNgCn4GBARQUFCAnJ0fvabSTJ08iKysLH374IcrLywl8dGSNQvbkyRNkZWWhsrISDQ0NetHY2Ki9Ud3Ul/JJOWc3btxAUVERzp8/j8zMTBw+fBgVFRXa+SwpKcHJkyfx6NEjk/wM6cqVK4iJiSHwYcSPwEc4L9GCz2uvvYahoSHMz89jcfH//5bKzZs3ER0djZaWFqMHXgIf9sCnt7cXERERkMlkSyI4OBj+/v7Yvn07GhoaDN4EyrWviF3WKmQPHjxAXl6e9pUDupGSkoILFy5ovwNlzn7FoOXbOjw8jISEBKSkpMDf3x9bt25FbGys9tMeeXl5GB8fNzhHBD7Cegnld+7cOaSnpxu8T5XAZ/USNfhcunRJ71T74uIijh07hpqaGqhUKgKfNQI+arXaYPvBwUHI5XL4+fmhubmZwEdH1ixkCwsLS94Crhuav0sCH31xPdU1MDCA6elpyOVyJCcnY3x8XG8uTfUzJAIftvymp6fR3NyMx48fc7Yh8Fm9JAc+AHD06FFUV1cT+Kwh8DEWGvDx9/cn8FkmlgsZHz8p50z3cXaFQoHU1FSDL2Y1xc+QCHzY8pufn0drayuBjwBeBD4EPgQ+IhbLhYyPn5RzRuBjfj+Wx6bxI/ARzkuU4NPQ0IC33nqLwIfxIPARXiwXMj5+Us4ZgY/5/Vgem8aPwEc4L1GCz8zMDHx9fXH58mUCH4aDwEd4sVzI+PhJOWcEPub3Y3lsGj8CH+G8RAk+ABAYGEjgw3gQ+AgvlgsZHz8p54zAx/x+LI9N40fgI5wXgQ+BjyjAp6+vj8CHQywXMj5+Us4ZgY/5/Vgem8aPwEc4L9GCz5EjR6BWqzE3N6fXlsCHjSDwEV4sFzI+flLOGYGP+f1YHpvGj8BHOC/Rgo+dnR08PT3x8OFDvbYEPmwEgY/wYrmQ8fGTcs4IfMzvx/LYNH4EPsJ5iRZ8du3aBWdnZ863XhL4sBEEPsKL5ULGx0/KOSPwMb8fy2PT+BH4COdF4EPgQ+AjYrFcyPj4STlnt27dwvnz56FWq1FaWorExEQCH4a8hPIj8BHOi8CHwIfAR8RiuZDx8ZNyzoaHh+Hl5YVNmzZhz549iIqKIvBhyEsoPwIf4bwIfAh8CHxELJYLGR8/KedseHgYzs7O8PPzw5EjRxAbG0vgw5CXUH4EPsJ5SRJ80tPTCXwYCAIf4cVyIePjJ+Wcffnll8jIyEBgYCD27t2L6Ohozoc2TPUzJAIftvwIfITzkiT43Lp1CxUVFejv7yfwIfARtVguZHz8pJyzO3fuoKqqCmFhYaiqqkJycrJFzvh0dXVhcnISs7OzmJmZMRizs7OYm5vD3NzckrbT09NG15uZmdGuo/Ew1heX39zcHObn51cc4/J4+vTpiv1xrfP06VPtWJ8+fcprWzXrazxWmtOZmRm0tLQQ+AjgJUnwuXfvHsrLywl8CHxEL5YLGR8/Kefszp07qK6uRlhYGBoaGizyVNfdu3cRFxeHQ4cOITMzE/n5+Zxx+vRppKWlwcHBAZ999hmysrK0y/Ly8gyul5+fj8zMTBw4cADZ2dlITk6Gi4sLcnJyDLZf7ldQUAAnJyfY2toiPj4ep06dMtqfJlJTU3H06FE4OzsjOzvbpHUKCgoQFBSEo0eP4uTJk3Bzc0NUVJS2z5W2taCgAMHBwTh27Bi8vLwgk8mQm5trsH1sbCwOHz6M5ORk3Lt3jzOHBD6rF4EPgQ+Bj4jFciHj4yflnFkLfPz9/bF//354enrCx8eHM3x9feHh4YF9+/Zh9+7d8PDwMNh2eXh6emLfvn3w9PSEu7s7HBwc4OXlZfL6vr6+2L9/P3bt2gVXV1eT1/Pw8ICTkxPs7e1N7s/X1xdOTk5wdHSEt7c3HBwccPjwYXh7e5u8vrOzMxwdHXHw4EE4OTkZXdfV1RUODg7YtWsX+vv7OV/Ee/r0aZw/f57AZxUi8CHwEQX4KBQKAh8OsVzI+PhJOWfWAB/Npa5Hjx4tuUQjlpidnbX6GFYa3/T0NJqamjA5OcmZL6VSiezsbM5j3GrFcr0g8OHQ8klxcXHB4cOHCXwYDgIf4cVyIePjJ+WcWQt86OZm6/qtdHPz2NgYZDIZRkdHzdqvOcVqzkQLPj09PQgPD+d8+oHAh40g8BFeLBcyPn5SzhmBj/n9WB6bxm8l8BkfH0dQUBCBzyokWvAZGhpCTEwMJ/iMjY3RU10MBIGP8GK5kPHxk3LOCHzM78fy2DR+BD7CeYkWfC5duoTY2FiD4FNZWUngQ+AjerFcyPj4STlnBD7m92N5bBo/Ah/hvEQNPk5OTrh7967esrGxMVRXVxP4EPiIXiwXMj5+Us4ZgY/5/Vgem8Zvfn4eTU1NmJiY4PQn8Fm9RA0+H374Ib788ku9ZePj46ipqSHwIfARvVguZHz8pJwzAh/z+7E8No3fwsICCgoKoFAoOGsagc/qJWrw+eCDD3Dr1i1O8KmrqyPwIfARvVguZHz8pJwzAh/z+7E8No3fwsICcnJy0NraypkHAp/VS7Lgc/78eQIfAh/Ri+VCxsdPyjkj8DG/H8tj0/gtLCwgOzubwEcAL8mCT319PZRKJYEPgY+oxXIh4+Mn5ZzduHEDMpkMmzdvhpeXF2JiYgh8GPISyo/ARzgvSYLPxMQEqqqq0NfXR+BD4CNqsVzI+PhJOWc3btxAXl4eysvLkZycjLi4OAIfhryE8iPwEc5LkuDz+PFjhIaGoqWlxeDBl8CHwEcMYrmQ8fGTcs5GRkYwMDCAJ0+eQC6XIyUlhcCHIS+h/Ah8hPOSJPhMTU3hyJEjaGpqIvAh8BG1WC5kfPyknLORkREMDg5idnYWCoWC7vFhzEsoPwIf4bwkCz4BAQEEPgQ+ohfLhYyPn5RzRuBjfj+Wx6bxI/ARzovAh8CHwEfEYrmQ8fGTcs4IfMzvx/LYNH4EPsJ5EfgQ+BD4iFgsFzI+flLOGYGP+f1YHpvGj8BHOC/Rgs/IyAhcXV0xOjpK4MNoEPgIL5YLGR8/KeeMwMf8fiyPTeNH4COcl2jBZ35+HnV1dXj06BGBD6NB4CO8WC5kfPyknDMCH/P7sTw2jR+Bj3BeogUfAGhpacHk5CSBD6NB4CO8WC5kfPyknDMCH/P7sTw2jR+Bj3Beogaf1tZWg+CjeZxdpVIR+BD4iFYsFzI+flLO2XLwiY2NxY0bN/DgwQOTYmJigvP3hw8fYm5uTtsPgQ9bfgQ+wnmJGnwuXLiAmzdvYmFhYcnvU1NTOHr0KJqbmwl8RAI+/f398PPzQ1NTE4GPjlguZHz8pJwzXfDp7++HjY0NXF1d4evra1L4+PjAx8dnyW/e3t7w9PTElStXMD8/D4DAhzU/Ah/hvEQNPhkZGZDJZHj8+PGS36emphAYGIjW1lYCHxGAz9DQEIGPAbFcyPj4STlny8/4REdHY3h4GOPj4ybF2NiY3m+3b99GeHg4lEql9qwPgQ9bfgQ+wnmJGnzS0tLg6+uLycnJJb9rwKetrY3Ah8BH1GK5kPHxk3LOloNPSkoKJiYmsLi4uOqYmZlBXFwcgQ/DfgQ+wnlJFnxkMhk6Ojro5mYCH1GL5ULGx0/KORPi5mYCH3bHpvFbCXwePXqE9PR0qFQqPH361Gz9mlOs5kyS4DMzM4OsrCxUVlZCqVQS+BD4iFYsFzI+flLOGYGP+f1YHpvGbyXwWVxcRG9vL3JycjAxMWG2fs0pVnMmSfABgOHhYXh5eaGvr4/Ah8BHtGK5kPHxk3LOCHzM78fy2DR+K4EPAKhUKqSmpmJ8fNxs/ZpTrOZMsuBz8+ZNuLu7Qy6XE/gQ+IhWLBcyPn5SzhmBj/n9WB6bxs9U8ElJSSHw4SkCHwIfAh8Ri+VCxsdPyjkj8DG/H8tj0/gR+AjnReBD4EPgI2KxXMj4+Ek5ZwQ+5vdjeWwaPwIf4bwIfAh8CHxELJYLGR8/KeeMwMf8fiyPTeO3uLiIlpYWFBUV4dGjR5ztCHxWJwIfAp81Dz705mbDYrmQ8fGTcs6sAT537txBU1MTRkZGcPfu3RVjbGwMY2NjS34bHR01aT3Nv+/du2e0LZcfV7+mxL1791bsz9g6y9c1ZVs165va97179zA4OGj0XT0EPquTqMHn9OnT8Pf3J/BhNAh8hBfLhYyPn5RzZg3wuXv3Lnx9fbFz5064urrC09PTYBw+fBjbtm3DJ598smJb3XB1dcX27dvh6uoKJycn7Ny5E25ubiav7+npiR07dmDTpk1wdHQ0eR0XFxfs27ePV39eXl7Yv38/9u7dC3d3d3z22Wc4dOgQPDw8TO7X3t4ee/fuxe7du7F//364u7sbbHvo0CHs2rUL27Ztw9atWzEyMsKZWwKf1UnU4PPFF1/g+PHjep+sAAh8WAhzgo9SqSTw4RDLhYyPn5RzZq0zPkVFRfDz80N3dzeuXbuG4eFhzmhra4OHhwf27t27pK2xdYaHh9Hd3Q0PDw/I5XI0NDQgMDAQcrncYPvlftevX4e/vz+2bNmCmpoaXLlyxWh/mmhvb0dWVhYCAgLQ19dn0jrXr1/HiRMnkJqaCrVaDZlMhrNnz+Ly5csmbev169fx+eefIyUlBVFRUcjJycHAwIDB9pWVlTh+/DgSEhLg5uaGO3fucOaWwGd1EjX4XL16FaGhoQQ+jAaBj/BiuZDx8ZNyzqx1xsff3x979+6Fh4eH0Y+genh4YPfu3fjss8+WtF3+YdTl4enpiT179sDT0xNubm7Yt28fPD09jX5sdflve/fuxfbt23H48OEV+9Md76FDh7B37154eXmZ/LFXR0dHHDx4EN7e3ti3bx9cXFy0fZrSt2Z9BwcHHDp0CN7e3gbburi4YP/+/bCzs8O2bdvojI+ZvSQLPjdu3CDwIfARvVguZHz8pJwza93c3NHRgYmJCUxPT2NmZsZgTE9PY3p6Gk+ePFnSVvP7Sustj5XaL/9teb8rhe46fNfTtF++rilepm7nzMyMdny3bt2ie3wE8BI1+Ny4cQPvvfceLl68iPn5eb1lnp6e6Ovr4zwAE/gQ+IhBLBcyPn5Szhk91WV+P5bHput39+5dhISEEPiY2UvU4HPr1i38/Oc/R2Vlpd5H3G7cuAFvb28CHwIfUYvlQsbHT8o5I/Axvx/LY9P1I/ARxkv04POzn/0MFRUVeuBz/fp1+Pj4QKFQEPgQ+IhWLBcyPn5SzhmBj/n9WB6brh+BjzBekgafI0eO0NfZCXxELZYLGR8/KeeMwMf8fiyPTdePwEcYL8mCz8TEBJKSklBdXQ2VSkXgQ+AjSsndbjMAACAASURBVLFcyPj4STlnBD7m92N5bLp+BD7CeEkWfBYXF1FYWIj09HQoFAoCHwIfUYrlQsbHT8o5I/Axvx/LY9P1I/ARxkuy4AMARUVFSEtLI/Ah8BGtWC5kfPyknDMCH/P7sTw2XT8CH2G8CHwIfAh8RCyWCxkfPynnjMDH/H4sj03Xj8BHGC8CHwIfAh8Ri+VCxsdPyjkj8DG/H8tj0/Uj8BHGi8CHwIfAR8RiuZDx8ZNyzgh8zO/H8th0/Qh8hPEi8CHwIfARsVguZHz8pJwzAh/z+7E8Nl0/Ah9hvEQNPnfv3sW7777L+eZmgMDH2kHgI7xYLmR8/KScMwIf8/uxPDZdPwIfYbxEDT7z8/NISkpCbW0t58GQwIfAR+xiuZDx8ZNyzgh8zO/H8th0/VYCn9HRUZw9exZjY2NmGQPL80LgwyFDk/L555+jrq6OwIfBIPARXiwXMj5+Us4ZgY/5/Vgem67fSuAzNzeHjo4OjI6OYmFhwWz9mkus5kwS4FNdXc15MCwsLCTwseL4CXyEF8uFjI+flHNG4GN+P5bHpuu3EvjMz8+js7MTd+7cIfDhIdGDT2ZmJry8vDA5Oam3rKioCBkZGQQ+y8ZZXFyMEydO4MSJE8jNzUV5eTn6+/sJfNagWC5kfPyknDMCH/P7sTw2XT8CH2G8RA8+qampeOONNzhv/ioqKkJmZib6+voIfHTGWVhYiKysLISHh+Pjjz9GbGws5HI5gc8aFMuFjI+flHNG4GN+P5bHputH4COMlyTA55VXXuEEn+LiYuTm5tIZH46xnj59GjKZDMXFxZxgyNKcDA4OQqVSwd/fH83NzQQ+OmK5kPHxk3LOCHzM78fy2HT9CHyE8ZI0+Fy7dg0hISHo6ekh8NEZp5+fH+zs7JCYmIicnBxUVFQwfalraGiIwMeAWC5kfPyknDMCH/P7sTw2Xb/Z2VlUVVWhrq4OU1NTeu0IfFYnSYPPxMQE3N3dcfHiRQIfnXGWlpbi5MmTSEtLQ35+Pmpra6FUKgl81qBYLmR8/KScMwIf8/uxPLblft3d3cjJycHExIReOwKf1UnS4PPgwQO4ubkR+CwbZ35+Pjw9PeHn5wcPDw+Ul5cT+KxRsVzI+PhJOWcEPub3Y3lsy/16enqQnZ1N4EPgoy8CH/ON09PTExUVFZDL5SgsLIRMJuO8HMjKnBD4GBbLhYyPn5RzRuBjfj+Wx7bcj8DH/F4EPgQ+euN0cXFBbW0thoaGcPbsWRw5coRzjliZEwIfw2K5kPHxk3LOCHzM78fy2Jb7EfiY34vAh8BHL06ePIljx44hOjoa/v7+KC0tpUtda1QsFzI+flLOGYGP+f2EGNvs7CxmZmZMjvn5eZPGR+Bjfi8CHwIfvXHW1dXh1KlTSElJQX5+Pi5cuEDgs0bFciHj4yflnBH4mN/P3GN79OgRiouLcfr0aRQWFq4YaWlpuHr1qkH4IfAR1ovAh8BHb5ypqamIjIxEREQEIiIikJeXR4+zr1GxXMj4+Ek5ZwQ+5vcz99ju3r2LwsJCXL58Gbdv314xSkpKIJfLDdYqAh9hvUQPPrW1tdi4cSPnTkPgox8qlQoRERHo6OiAWq3WhlCQReAjrFguZHz8pJwzAh/z+wkBPuXl5RgfH8fCwgIWFxeNRkNDAxQKBWZmZlYcH4GP+b1EDz537tyBu7s7Hj16pLeMwIcbfHbu3Im4uDjk5OQgOzubHmdfw2K5kPHxk3LOCHzM7ycE+FRUVGBiYsIk78bGRgIfK3qJHnzu378Pb29vAh8TQ6lUYufOncjMzERxcTHOnDmD+vp65sFHrVYT+HCI5ULGx0/KOSPwMb8fgQ+3pJIzSYCPh4cH7t+/r7eMwEc/VCoV4uPj0dHRgc7OTpw6dQqnTp3i/J4ZK3NC4GNYLBcyPn5SzhmBj/n9CHy4JZWciR58JiYmsHXrVuTn5+vtZAQ+3ONsbGxEZmYmdu3aBU9PT9TV1UGlUhH4rEGxXMj4+Ek5ZwQ+5vcj8OGWVHImevB58OABNm7ciPDwcL2PvD148AAeHh7o6enROwhLGXy8vLxw+PBhuLi4IDExUZAnugh8LCOWCxkfPynnjMDH/H4EPtySSs4kAT42NjYIDQ3VA5/Z2VmUl5ejqamJwEdnnG1tbSgpKYGXlxdcXFxQVlbG/OPsBD7cYrmQ8fGTcs4IfMzvR+DDLankTNLgAwBffPEFqqqqCHx0oqurC/X19ejq6kJCQsKaeHMzgQ+3WC5kfPyknDMCH/P7EfhwSyo5kzz4XL16FefOnSPw0RmnTCbD6dOnoVAokJKSgvj4eMjlcgKfNSiWCxkfPynnjMDH/H4EPtySSs4IfAh8loRKpYKTk5P28l9dXR18fHyY/0gpgQ+3WC5kfPyknDMCH/P7iQ18RkZGjH77y1RJJWcEPgQ+ehEREYGYmBgUFxcjODgYycnJ6OvrI/BZg2K5kPHxk3LOCHzM7ycW8FlcXER9fT3KysowOTm5+g3g6NccYjVnBD4EPnrR1dWFkydPIi4uDqdPn8bFixcFGT+Bj/BiuZDx8ZNyzgh8zO8nJvA5f/48ioqKOF/Sy1dSyRmBz9WrdHPzsigqKoKvry+OHDkCHx8fVFVV0Xt81qhYLmR8/KScMwIf8/sR+HBLKjkj8Ll6FTU1NQQ+OuP09vZGaWkpuru7kZeXh5CQEPT09BD4rEGxXMj4+Ek5ZwQ+5vcj8OGWVHJG4HP1Kurq6gh8dMbp7OyM+vp6DA0NoaKiAgEBAQQ+a1QsFzI+flLOGYGP+f0IfLgllZyJHnympqbg6OiIsLAwg+BTX19P4KMTOTk5OH78OJKTk3H06FF6j88aFsuFjI+flHNG4GN+v7UEPpcvX0ZOTg7u3Lmj503gszqJHnwWFxchl8sRFRVlEHwuXLggOKisJfDp7+9HfX09SkpKUF1djfLycibe3Dw4OIihoSG9uHz5MgYGBhAQEICWlhY8ffp0VfuKGMVyIePjJ+WcEfiY328tgc/09DSSk5OhUCj0ahuBz+okevABgMHBQXh7e6OnpweDg4NLoqamBqdOnUJnZ+eSA7GUwWdwcBBqtRpqtRoNDQ3w9/dn4j0+DQ0NKC4u1ouSkhKcOXMGu3btQl1dHZ3x0ZE1Ctnc3BwUCgV6e3shl8v1oq+vD+3t7bh165b2oGuOfsUiS4FPZGQkysrKoFQqMTg4iOrqanh6eqKjowNNTU1oamrCkydPzLYdzypWD6KAsOAzOzuLpKQkyOVyAh8zSRLgc/nyZbz++usIDAxEVFTUkggNDYW9vT1CQkKWnNWQKvio1WpUV1ejtLQUpaWlSE9Ph6OjI7q7u60OPrm5uaiqqkJDQ8OSaGpqQkNDAzZu3IjS0lKDxcSUfUVsskYhm5ycRHBwMLq7uzE8PIzr168viRs3biAnJwcVFRWcZ2FX269YZAnwmZ2dRWBgIHx8fBAREYHo6Gj4+Pjg/fffh0wmw5EjR1BaWmpyfkzt91nE6kEUIPCxhB+BD4eMTcoXX3yBjRs3YmhoCI8ePcLjx4+1MTk5iZqaGshkMgKfP4zz888/R3JyMpKTk5GQkIC8vDwoFAqrgo9arUZubi66urqgUqmWxMDA789S2draEvgsk7XARyaT4caNG5ibm8PCwoJelJaW4uzZswQ+HLLUGZ/Y2Fh0d3fjwYMHePz4MZRKJUJDQ3Hr1i1cvXoVXV1ddKnLRBH4CO9H4MOhlcBn06ZNuHnzJme7xsZGBAUFEfj8IZRKJfr7+6FUKrX/ZuEFhrm5ueju7tZbb2hoCJcuXcKWLVsIfJbJmuBz69Ytg98PKisrI/AxIEvf46M5mF65cgXR0dEYHx+ne3x4isBHeD8CHw49C/i0tbUhJCRkyVkNKYOP5h6fCxcuICEhATk5OUx8soLAh78IfNaeVgKf2NhY3LhxAxMTE6uOu3fv4vjx4+jo6MDY2BgmJia0D4HQzc38ReAjvB+BD4eeBXxu374NX19fVFdXaw+qYgEfpVKJzs5O7WUhpVIJtVoNpVKJ8+fP6wGNWq1GeXk5IiMjsWPHDu2TUiy8uZnAh78IfNaejIHPlStXcODAAbi5ucHLy8uk8PT01PvNw8MDb7zxBuzs7ODh4QEvLy8cOHAA6enpePToEYEPTxH4CO9H4MOhZwGfR48ewdvbG2VlZdoDvBjAZ3BwEA0NDdi5cyfa2trQ2tqKo0ePorOzEx0dHbCxsUF1dfUSqFGr1QgMDIS7uzv27t2L2NhYQd7hY27wuXz5MoEPhwh81p6Mgc/8/DwePXr0zDE+Po7w8HB0dnbi/v372t+fPHmCxcVFAh+eIvAR3o/Ah0PPAj5PnjyBj4+PqMBHLpejuLgYZWVleOutt9Dc3Iza2lr89re/RWNjI9ra2vCb3/wGlZWVeuBz8eJFXLhwATExMfDw8EBeXh4T7/HJycnRPtXV2NioDc1TXRs2bEBJSQmBj46sBT5HjhxBe3s7rl69imvXrulFWloar6eGpJyzL7/8Eo2Njbh06RLnXK4UXDm4dOkSAgICUFtbi2vXruHmzZtLoqenB62trQQ+JorAR3g/Ah8OrQQ+b7zxBlJTU5Gfn4/Tp09rIz8/HwUFBdiwYQNKS0tFBT7+/v5ISkrCm2++qQWf9evXo6GhAe3t7Vi/fr0e+OiOt7+/H9XV1YiKikJvb6/VwSc/Px/u7u5wdXVdEm5ubnBzc8Orr76KsrIyAh8dWaOQzczMIDMzE2FhYQgPD+eMgIAAtLW1rZgrPv2KRcu39fbt20hOTjY6n8aCa72wsDD85je/wYsvvoiXXnoJv/rVr5bEiy++CHd3d3z11VernnupHEQBAh9L+BH4cGgl8PmXf/kXeHt7o7y8HOfOndNGdXU1tm7dqr3RTyz3+KjVavT09KCyshKvvfYaKisrUVxcjHXr1qGsrAxVVVV46623DIKP5gWPFy5cgJeXl9VfYKgBsZ6eHr2Qy+Xo7u6Gp6cnmpqa6AWGOrJGIVtcXMTk5OSKN9jOzMwYvBS2mn7FouXbOjc3h4cPH676Rub79+/r/TY+Po7u7m6cPXsWJSUlepGbm4sNGzZALpeb/JLJlbbjWcXqQRQg8LGEH4EPh1YCn3feeQd9fX2Ynp7G7OzsknBxccGFCxe0N/6KAXw0UV9fj1deeQXvvfce1q9fj5/85Cd455138N577+HFF1/EuXPn9C51ZWZmal/w6O/vDwcHByZeYGgohoaGMDAwQN/q4pA1C9ni4qLR4ONHOVt5PvnG/Py8Xi3UxFdffYWtW7eit7eXwMcEEfgI70fgw6GVwOfjjz/GjRs3ONu5urqisbFRlJ+s6O/vR1NTE1pbW7U3OLe1tWn/vfzeHbVajfr6elRVVaGqqgqVlZVoaGhg/iOlGvChMz5LxXIh4+NHObOs37179/Dpp58S+JgoAh/h/Qh8OLQS+Bi7udnNzQ1NTU2iBJ/m5mY4Ojqivb0dcrkctbW16OvrMzoezXe6dEOIsRH4CC+WCxkfP8qZZf0IfPiJwEd4PwIfDhmblHv37iEwMBAjIyOc7dzd3dHc3CxK8KmtrcWvf/1rNDc3o66uDjY2Nnpnt5aP89y5c+jp6UFzczO6urpQWVnJxFNdBD78xXIh4+NHObOsH4EPPxH4CO9H4MMhY5MyPz+PhoYGjI6Oct5M6eHhgZaWFtGCz5tvvomWlhbU1dVpn+oy1F6lUsHd3R01NTXw9/dHWVkZAgIC0NPTQ+CzBsVyIePjRzmzrB+BDz8R+AjvR+DDIWOTsrCwgNbWVty9e5cTfDw9PdHa2ipa8HnllVdQVlaGwsJCvPnmmzhz5gyam5s57/FRKpVwcHBAZWUlnJ2dUVJSAg8PjzVzczOBz1KxXMj4+FHOLOtH4MNPBD7C+xH4cGgl8GlubsadO3c4wcfb2xttbW2iBJ+mpiZ89NFHsLGxwYYNG/Dqq6/io48+wu9+9zvs2LEDDQ0NS8amUqng5OQEb29vbN++He7u7vDz86MzPmtULBcyPn6UM8v6EfjwkzXB56uvvkJ2djaGh4cxPz//TNshlZxJBnyys7NRXV3NeVA8duyYaC91KZVKtLa2oqmpCc3NzWhqakJLSwva29tRV1eH3t5eve1uampCamoqgoKCkJ2djba2Nia+1WUMfAYHBwl8OMRyIePjRzmzrB+BDz9ZE3wWFhYQFxeHvr4+veV8JZWcSQJ8FhcXERoaipSUFDx58kRv+YULFxAdHb3kkW2xgI+mb7VajcHBQfT29qKoqAiOjo7YvHkz6uvr9cYWHByMuLg4lJSUIDQ0FGlpaZDL5QQ+a1AsFzI+fpQzy/oR+PCTNcEHAGJjYzmX85VUciYZ8AkJCUFiYiIn+LS3tyM0NHTJ/S5iAp/BwUF0d3cjOzsbGzduxEsvvQRfX1+UlpZCoVAsaatSqeDo6IjGxkaoVCrU1NTAz8/P6m9uJvBZnVguZHz8KGeW9SPw4ScCH+H9CHw49Kzgc/z4cVGCT09PD2QyGbZu3YoDBw7A29sb77zzjsHLVyqVCp999hni4uKQlZWFqKgoODs7E/isUbFcyPj4Uc4s60fgw08EPsL7EfhwiMCHO7q6urB792588MEHOHbsGCIiIvDee+8ZfEpLrVajqKgIhYWFKC4uRmFhIcrKyph/jw+BD7dYLmR8/ChnlvUj8OEnocEnPj4e3d3derWNwGd1IvCBuMFHrVaju7sbhYWF8PLywvr16/Hv//7vSE1NRXd3N+e4VCoVlErlkhBqbAQ+worlQsbHj3JmWT8CH34SEnzm5uaQlZWFmpoaTE1NcbYj8OEnAh+IG3x0Yaanpwd1dXVISkqCvb09du3axfmpjvr6eu3X6ysrK9Hc3Mz8t7oIfLjFciHj40c5s6wfgQ8/CQk+i4uLuHz5Mrq6uvSOXwQ+qxOBD8QPPoODg2hvb0dvby9UKhVqa2tRWlqK8vJy9PT06L3HJz09HREREYiMjERERATy8vL0boJmaU4IfAyL5ULGx49yZlk/Ah9+EhJ8AGBkZAS9vb2Ynp7mbEfgw08EPhA3+KjVauTk5MDW1hZnz56FSqVCYWEhPvjgA8THx3M+1XXs2DE0NTVBLpejr68PCoVCkPET+AgvlgsZHz/KmWX9CHz4SWjw+eqrryCXywl8zCQCH4j7cfbOzk7Y2NggIyND+y4epVKJ9PR0bNy4Ue/jrEqlElu3bsXx48eRmJiIxMREFBUV0c3Na1QsFzI+fpQzy/oR+PATgY/wfgQ+HHpW8AkPDxflCwzPnz+Pt956CxcuXFgyhpaWFqxfvx7nzp1b8li7UqnErl27kJeXh6qqKlRXV9M9PmtYLBcyPn6UM8v6EfjwE4GP8H4EPhxaCXwyMjKQmppqEHwiIyNFCT7t7e149913UVBQoAWcwcFBFBQU4P333+f8VldcXBwaGhrQ398PhUKBtrY25sFnaGiIwIdDLBcyPn6UM8v6EfjwE4GP8H4EPhxaaVJqa2vx+eef6+04wO/BR6yfrFCr1YiPj8eHH34IX19fpKam4ujRo3j33Xdx/PhxvU9RqNVqREREwNvbG1FRUQgKCkJqairzn6wg8OEWy4WMjx/lzLJ+BD78ROAjvB+BD4dWmpT6+nqcOnXKIPjExsaKEnwGBgYgl8tx4sQJeHp6wsnJCW5ubsjKykJnZ6feuDSfrCgoKICtrS2ys7MNvu+HlTkh8DEslgsZHz/KmWX9CHz4icBHeD8CHw6ZAj45OTmcl7q6uroQHx8vypubNdHf3w+5XI7e3l7I5XL09/dzjkmpVGL37t3IysrCjh07UFRUhJaWFua/zk7gwy2WCxkfP8qZZf0IfPiJwEd4PwIfDq00KU1NTVi/fj0uXbqEhYWFJcseP36M6OhoVFdXaw/GYgKfwcFBXuOMiopCeHg4jh49ivDwcOTm5jL/Hh8CH26xXMj4+FHOLOtH4MNPBD7C+xH4cGilSWlubsYvfvEL9Pf3Y35+Xm/diIgIlJeXa89siAV8VCoVuru7eZ2xUSqVUCgUqKioQFBQENLT0wl81qhYLmR8/ChnlvUj8OEnAh/h/Qh8OGQK+PzsZz+DQqHQAx8AiIiIQFlZmejAp76+Hps2bUJLS4tJY1Cr1cjNzUVQUBB27NiBkJAQusdnDYvlQsbHj3JmWT8CH34i8BHej8CHQwQ+3FFbW4t169ahpaUFg4ODWkjQvPtGrVbrfasrKioKbm5u2L59u97TbizOCYGPYbFcyPj4Uc4s60fgw08EPsL7EfhwiMCHO86fP4+f/vSn2Lx5M3bu3LkkHBwcOD9S2tnZiTNnziAxMRF+fn44efIkXepao2K5kPHxo5xZ1o/Ah58IfIT3I/DhEIEPd9TW1uKll15CamoqCgoKlsSZM2fQ29urt05oaCiCg4MREBCAmpoatLa20gsM16hYLmR8/ChnlvUj8OEnAh/h/Qh8OETgwx01NTV4/fXXUV9fj/7+fiiVSiiVSqhUKvT29up9g0vzHp/GxkZ4enqitraW+Utdly5dIvAxIJYLGR8/ypll/Qh8+InAR3g/Ah8OEfhwR2dnJxITE3Hx4kUt2DQ1NSEqKgq7d+/W+4aXSqXC3r17kZiYiJ07dyIyMhLl5eVMn/Eh8DEslgsZHz/KmWX9CHz4ydrgk5aWhq6uLoN+pkoqOSPw+YPECj5qtRoqlQpKpRIVFRU4dOgQ3nrrLezZsweZmZl6l7rUajUKCgrw+eefIzs7GydPnsS5c+eY/jo7gY9hsVzI+PhRzizrR+DDT9YGH5VKhdzcXIyOjj7TtkklZwQ+f5BYwaevrw9ZWVnYv38/tm/fjv3792u/1q5QKDjH1d/fr/1AqebfLD/OTuBjWCwXMj5+lDPL+hH48JO1wefOnTuIiYnBrVu39F7Qy0dSyZlkwKetrQ0vvvgi5wsMAWgv6YgNfNrb27Fhwwa8//77SEpKQkZGBj744AN0d3cbXKenpwcdHR1oaWlBfn4+Ll68SOCzRsVyIePjRzmzrB+BDz9ZG3zu3r2LqKgo3Lx5k8DHBEkGfKanp+Hv7w+lUmkQfM6dOye6T1aoVCq0tLQgLS0NdnZ2WLduHf7rv/4LxcXF6Ovr41wnKCgIBQUFOH78OMLCwhAZGcn59Bcrc0LgY1gsFzI+fpQzy/oR+PATgY/wfgQ+HDJlUsLCwqBSqQyCT1VVlejARxP9/f1oa2tDXl4ePDw8YGtriwMHDqC1tVXv5mZnZ2eUlpYiMjISZ86cgZeXl9EzRNaeEwIfw2K5kPHxo5xZ1o/Ah58sAT69vb0EPmYSgc8fFBkZibq6OlGCz+DgIBQKBZRKJfr7+9HU1IRz584hLy8PnZ2demOLjo6Gr68v8vLyEBoaiqysLINnh1iYEwIfw2K5kPHxo5xZ1o/Ah5+EBp/R0VHk5OTg9u3bS5YR+KxOkgKf0NBQXLx4kfNdBw0NDcjOztZe0hEL+KjVapSWlsLV1RVtbW04efIkPv30U3z44YdISkriBJru7m40NDSgra0NKSkpzH+dncDHsFguZHz8KGeW9SPw4SehwWdmZgYymQz9/f1L8kHgszpJCnwCAwNx7Ngx3L9/X6/9w4cP4enpqb30Ixbw6e7uhq2tLdLS0qBQKLBz506kp6cjJSUFH3/8MZqbm/U+WdHS0oLs7GwcOHAAbm5ugr3EkMBHeLFcyPj4Uc4s60fgw09Cg8/i4iIiIyOhUCiW/I87gc/qJCnwOXr0KLZv3447d+7otZ+enoarq6v2K+ZiAZ/z58/j7bffRkNDA9rb22FjY4P6+no0NTVh/fr1qKqq0j7Jphmnj48PvLy84OzsjJiYGPT19TH/VNelS5cIfDjEciHj40c5s6wfgQ8/CQ0+ABAVFUXgYyZJCnyOHDmCrVu36l0nBcQLPs3NzXj77bdRXV2NnJwcHDx4ED09PTh79izeffddvTc3q9VqtLW1obCwEN7e3nByckJJSQnzLzAk8OEWy4WMjx/lzLJ+BD78ROAjvB+BD4cIfLijv78fMpkMmzZtwvvvv4/i4mLk5+dj48aNCAoK4nxMPScnBwEBAQgPD0d5efmauNRF4MMtlgsZHz/KmWX9CHz4icBHeD8CHw4R+BiOixcvori4GGVlZejv78eZM2eQnZ2Njo4OvXGpVCq4uLiguLgYrq6uqKurWxNvbibw4RbLhYyPH+XMsn4EPvxE4CO8H4EPhwh8jIfmi+wDAwPaz1FwjUmpVMLOzg6ff/457OzskJmZicbGRjrjs0bFciHj40c5s6wfgQ8/EfgI70fgwyECH/OESqVCeHg4wsPD4evri5CQEOTl5dE9PmtULBcyPn6UM8v6EfjwE4GP8H4EPhwi8DFfKBQKKBQK9PX1aT9UKkQ/BD7Ci+VCxsePcmZZPwIffiLwEd6PwIdDBD7mCZVKhZqaGkFeWEjgY3mxXMj4+FHOLOtH4MNPBD7C+xH4cIjAxzyhVCrh4uKChoYG9PX1ac/60M3Na1MsFzI+fpQzy/oR+PATgY/wfgQ+HDJlUo4dO7Yi+Ijtzc18Q6VSYfPmzfDz88Px48dx/PhxnDx5kvlPVhD4cIvlQsbHj3JmWT8CH34i8BHej8CHQ6ZMSn19PZycnAy+udnNzQ1tbW2SBh+lUgkHBwfU1NSgu7sb3d3dkMvldMZnjYrlQsbHj3JmWT8CH34i8BHej8CHQ6ZMyujoKI4ePWoQfDw9PdHe3i5p8FGr1cjIyMDp06dx5swZFBcX4/z588w/zn758mUCHw6xXMj4+FHOLOtH4MNPBD7C+xH4cMiUSZmYmEBQUBAn+MzOziIuLg7V1dVQqVSSBp/c3FwkJCQgISEBiYmJyM/PZ/5xdgIfbrFcyPj4Uc4s60fgw08EPsL7EfhwyFTw8fDwwNWrV/V2jsXFRVRWViIpKUny4KNUKtHe3o4TJ07A398fYZwcWQAAIABJREFU6enpzN/jQ+DDLZYLGR8/ypll/Qh8+InAR3g/Ah8OmQo+69evR2lpKefBsaamBnFxcVAqlZIGn+zsbAQHB2Pfvn0ICQlBZ2cn8/f4EPhwi+VCxsePcmZZPwIffiLwEd6PwIdDpkzKgwcP8Ktf/QonTpzg3OEIfH4/zsTERBw7dgzbtm2DTCaDXC4XrC8CH2HFciHj40c5s6wfgQ8/WRt8JicnkZ2drbecr6SSM8mBz0svvYScnBwCHyPjbGhoQFNTE06cOIGgoCCcOHGCLnWtUbFcyPj4Uc4s60fgw0/WBp+FhQWUlJSguroaU1NTq9wK6eSMwEdHBD6/f49PQEAA6uvrkZSUhNbWVnR2dmo/cMrinBD4GBbLhYyPH+XMsn4EPvxkbfABgLNnz6KyshKPHz9exRYY7vdZxGrOCHx0RODz+/f42Nvbo7S0FE5OTmhsbIRcLifwWaNiuZDx8aOcWdaPwIefCHyE9yPw4RCBj3lCpVLhwIEDcHNzg62tLXx8fJCVlUWXutaoWC5kfPwoZ5b1I/DhJwIf4f0IfDhE4GO+6OzsRGdnJ9rb29HZ2Yne3l4647NGxXIh4+NHObOsH4EPP1kKfPr6+gh8zCACHx0R+CwdrxBvsCbwsaxYLmR8/ChnlvUj8OGn0dFRlJSU4KuvvsLU1NSKUVVVhb6+Pl7gExoairi4OIyNjWmXE/isTgQ+OiLw+f2lrlOnTqGzsxMVFRVobW3FqVOn0NfXR+CzBsVyIePjRzmzrB+BDz89ePAAeXl5yMvLQ0FBwYoRHx+Py5cvG5xbrvENDAwgOjoaX331FYHPM4rAR0cEPr+/udnFxQVVVVXw8fFBWVkZfH19cfHiRQKfNSiWCxkfP8qZZf0IfPhpYWEBDx8+xP37902KsbExzM7OGhwH1+83b95EXFwcgY8ZJCnwmZycxIYNG5Cbm0vgYwR89u3bh4KCAuzfvx+5ubk4fPgwgc8aFcuFjI8f5cyyfgQ+/P34Bt/xEfgQ+OjJlEmZn59HRkYGzpw5YxB8EhISJP+triNHjuDo0aNwdnZGQEAAoqKiBHl7M4GP8GK5kPHxo5xZ1o/Ahz0/Ah8CHz2ZOiklJSU4e/YsJ/jU1tYiKSlJ0md81Go1UlJScPz4cYSGhiIkJARZWVl0j88aFcuFjI8f5cyyflzgMzc3hy+++AI9PT3o7u5eMbq6ukxqZ2os9+vq6sLIyAjm5+ctMifW9iPwIfDRk6mTUlpaahB8Hjx4gKKiIigUCkmDz/nz51FWVoaYmBjs27cPJ0+eRH9/P4HPGhTLhYyPH+XMsn5c4PPo0SMcOnQIL7zwAv7pn/5pxfjhD39oUjtTQ9fvhz/8IX7wgx8gOTkZk5OTFpkTa/sR+BD46IkP+BQXF2N6eprTo6ysDH19fZIFn4GBAfT29iIlJQXh4eGorKwU5OWFBD6WEcuFjI8f5cyyflzg8/DhQ2zduhUffvghZDIZIiIirBZhYWH4t3/7N0RGRuLRo0cWmRNr+xH4EPjoydRJqaiowPr163HlyhUsLCzoLZc6+KjVari4uGDXrl0IDQ1FTEwMCgsL6c3Na1QsFzI+fpQzy/oZA59t27bh1KlTKC0tNRolJSUrtuETun5FRUX4z//8T0RFReHhw4cWmRNr+xH4EPjoydRJqaysxEsvvYSBgQECHwPjPHfuHCoqKlBdXY3q6mq0tLRAqVQS+KxBsVzI+PhRzizrZwh8tmzZgpdffhm7d+/GgQMHjIaDg8OKbfiErt/+/fvx93//94iIiCDw+YMIfEwXgc8ySR18BgZ+/xJDpVKpDSE+V0HgYxmxXMj4+FHOLOtnDHy+/e1v47nnnrN6fP3rX0doaCiBzx9E4GO6CHyWicDHcmFO8Pniiy8IfDjEciHj40c5s6yfMfB59dVXsX//fjg5ORkNR0fHFdvwCV2/gwcP4h//8R/pjA+Bz6pE4LNM5eXlkn6qay2Cz+XLlwl8DIjlQsbHj3JmWT9j9/j4+fnh2rVrGBsbw71796wSIyMjWLduHaKjowl8/iACH9NF4MOxvL+/n8CHwEcUYrmQ8fGjnFnWz9gZnx//+Md4/fXX8fbbbxuNt956C2+99daK7UwNXb9169bh+eefR3h4OIHPH0TgY7oIfJbp3Llzkn6BIYGPuMRyIePjRzmzrJ8x8HnuuefwjW98A3/6p39q1fijP/ojuseHwGdVIvBZpqqqKgIfAh/RiOVCxsePcmZZP2Pg85Of/ASvvfaa9gyMoVi3bh3WrVu3YjtTQ9fvzTffxF/91V/RGR8Cn1WJwGeZqqurJf2tLgIfcYnlQsbHj3JmWT9j9/i4u7tDoVBgeHjYaFy7dm3FNnxC1+/SpUt47bXX6B4fAp9VicBnmWpra6FWqwl8CHxEIZYLGR8/ypll/Yyd8Xnttddgb29v1ae6Dh06RE91gcBntZIc+DQ0NODNN980CD51dXWCgAqBD4GPNcRyIePjRzmzrJ8x8Pn+97+PH/3oR/jXf/1Xo/HCCy+s2IZP6Pq98MILeO655xAWFkbg8wf19fWhoKAAo6Ojqx4Py/NC4MMhUydlamoKXl5eGBwc5Pyqb11dHQYHBwl8CHxEIZYLGR8/ypll/YyBz9tvvw13d3f4+fkZDV9f3xXb8AldP29vb/zzP/8znfHRaTc7O4uYmBio1WptzszR77OIwEdg8ZkUmUyGoaEhTvBpampCbm6u2b9NReBD4GMNsVzI+PhRzizrZ+weH3t7e9TU1KCtrQ2tra1WicbGRvzP//wPfatrWbuIiAj09/cT+KwgSYJPcHCwQfBpbW1FeHg4+vr6mDzIiykIfIQXy4WMjx/lzLJ+xsDnt7/9LY4dO4bw8HCjERYWtmIbPqHrFxISghdeeAGRkZEEPjoi8DFNkgQfX19fXLhwAU+fPtVb1traitDQUAIfAh9RiOVCxsePcmZZP2OXur7zne/gO9/5Dp5//nmjYUobPqHr953vfAff+MY36D0+BD6rkiTB5/Dhwzh58iSmp6f1lhH4EPiISSwXMj5+lDPL+hkDn29+85v42te+xkRIDXwCAgJw6dIl7dUKAp/VSZLg4+LiguzsbAIfAh/Ri+VCxsePcmZZP2Pgs2HDBoSHhyMhIcFoxMfHr9iGT+j6xcTE4Mc//rGkLnVNTk7C398fVVVVePLkCWc7Ah/TROCzTAQ+BD5iEsuFjI8f5cyyfsbu8Vm3bh1cXV3h6+trNHx8fFZswyd0/by8vCT3VNfi4iJOnjyJ2tpaTE1NcbYj8DFNBD7LROBD4CMmsVzI+PhRzizrZwx83n//fchkMkRGRhqNiIiIFdvwCV2/sLAwyd3cDACnT59GXV0dgc8zisBnmVpaWgh8CHxEI5YLGR8/ypll/Yxd6vrrv/5r/N3f/R2+//3vG43vfe97K7bhE7p+3/ve9/Dnf/7nknqBIUDgYy4R+CyT5nF2uVzO5EFeTEHgI7xYLmR8/ChnlvUzBj4vvfQSduzYgT179hiN3bt3r9iGT+j62dnZ4R/+4R8kdakLIPAxlwh8lqm1tRWRkZF0xofARxRiuZDx8aOcWdbP2KUuFxcXdHd3Y2hoyGgMDg6u2IZP6PopFAq88sorkvpIKUDgYy4R+CxTa2sroqOjCXwIfEQhlgsZHz/KmWX9jJ3x+fnPfw4bGxts3rzZaGzatGnFNnxC12/Tpk347ne/i/DwcAIfHRH4mCYCn2VqbW1FbGwsfbKCwGdFD1PDmmK5kPHxs/Y8WlIs5MwY+PzlX/4l/uIv/sLq8fWvf11S7/EBCHzMJQKfZWptbUVcXByBD4GPUbW2tiIwMBD+/v4GIz09HePj41Y9aLNcyPj4EfhY1s8Y+Lz77rvw8/NDUFCQ0QgMDFyxDZ/Q9Tt27Bh+9KMf0VNdBD6rkiTBJykpCcXFxZiZmdFb1traisTERAKfNQY+V65csSj4pKWlYcOGDdi8eTNsbW314n//93+xYcMGXL9+HQsLC8/c32rFciHj40fgY1k/Y/f4BAQE4ObNm3jw4IHRmJiYWLENn9D1u3PnDt5++23ExMQQ+OiIwMc0SRJ8hoeH0dnZyfmtrpGREURHR6O1tRUqlYq5g7yYgs+cqNVqbfvBwcElYe4zPrOzs5iensaTJ08MRmpqKoqLi3HlyhXcvHlTL4KCgvDBBx/g2rVrBD5m8CPwsayfsTM+r776Kuzt7eHs7Gw0nJycVmzDJ3T9Dh48iB/84Af0VBeBz6okSfC5d+8eqqqqoFKp9A6iCoUCzs7OKC4uhlKpJPBhBHwGBgbQ3d2NmpoaVFdXL4m6ujrU1tbi0KFDuHDhwjODT0ZGBlxcXODo6Ggwfvvb3yIrKwv9/f1Lxnj16lXMzs4iMTERGzZskCT4LCwsYHR0FJcuXdL7+9KF1YcPH5o8NwQ+5vVbXFzE2NgYLl++zJmfjo4O2NjYoKenRw98vv3tb+O5557Dt771LavGn/zJn9A9PgQ+q5IkwWdkZASffPIJZDIZYmNjERcXp43Y2Fg4OTnBxcXFrE92Efg8+5ycOHGC81X4/v7+CAgIwMsvv4zS0lLOS5h89hWZTIbDhw/D1dWVM9zc3LB+/XocOnQIUVFR2n0nMjISrq6uuH37tqTB58mTJ4iIiEBERITe31dcXBzi4+Ph7e2N8+fPc95nt9p+xSJL5Ozp06dIS0tDSEgIYmJi9HIUHBwMBwcHXLlyRbv/asDH1C+v09fZze9H4GMeSRJ8bty4gQ8++AC9vb0YHx/HxMTEkujr64Ozs7NZX2JI4PNsc6JWq5Gbm4vm5mZ0d3fj4sWL2pDL5VAoFNi0aZNZwKe6uhojIyMYGxvjjPHxccTHx6OyshKjo6Pa/ebWrVsICAjAyMiIpMFncnISQUFBUKvVnH9fExMTyM/PR1lZmbaAm6NfscgSOZuZmUFcXBza29tx7949vfwMDQ2hoaEBjx8/1q6jAR9bW1tkZGQgPz/faOTl5a3Yhk/o+uXm5uKnP/0poqKiCHx0ROBjmiQLPh9++CG++OILzoPS8PAwXFxcCHwYAp+BgQHk5ubi4sWLGBgY0LtsMjw8jK1bt5oFfBobG1c8E5Gdna13P5HmgE/gMwmZTIZbt24Z3PaysjKcPXuWwIdDlgQfpVLJeZC8ffs2enp6lvwdaMDnxz/+Md544w38+te/Nhpvv/32im34hK7funXr8Pzzz9N7fAh8ViUCH47CPDY2hpCQEFRUVJjtPh8CH/OAT3d3t956ly9fxrVr1wh8OETgs/bEOvh861vfwp/92Z9ZPf74j/+YLnUR+KxKBD4chXl2dhaZmZlISkoy230+BD5rB3wuXLiAyclJzM3NaWP5OgQ+hkXg82xiHXy++c1v4mtf+xoTQeBD4LMaEfhwFOb5+XlkZWUhLi6OwEeC4FNRUYH6+no0NjaiqakJhYWFegcIAh/DIvB5NrEOPu+99x4CAgIQHBxsNGQy2Ypt+ISuX2BgIF544QV6geGydvn5+VAqlZyvanmWflcrAh+BZU7wWVxcxIkTJwh8GAIftVqNkydPQi6XY2hoCJcuXdLG1atXcf36dXz66admAZ/Hjx/j8ePHmJqawtTUFIqLi1FVVbXkIEDgY1gEPs8mlsFn69atcHZ2Rnt7O1QqldFQKpUrtuETun69vb14+eWX6SOly9rdunULSqVyxRrIt9/VisBHYPGZlJs3b+LNN99EVlYWqqqq9N4LU1lZCQ8PD8THxxP4MAI+AwMD2suPaWlpSyIzMxPZ2dnYsGEDKioqnhl8lqukpAQVFRUEPib6TU5OIiAgAPn5+Zx/X9XV1cjKykJnZ6fJBZrAx7x+s7OziI6ORmZmJiorK/Xyk5+fj9jYWJSXl6O6uho1NTUoLS3FG2+8gR/96Ed46aWX8Morr1gtXn75ZTz//PPYvXs3SktLUVNTwys026QbVVVVGB4exuTkpNGXl3KF5n+S+K63PMbHx9HS0sI5vpqaGnh4eKCiosIg+IyNjUGpVJr8mghT9pVnEYGPwOILPq+//joSExP/P/bOOyyKq3/7MbEkaowl6pvok180xuSJGhO7scTeUKMmRixYsQIKYkMEBOm9K2BBjaCCClJUelGElV5FA4KCWEEpAgrc7x+P7LXI7iyzHfje13VfMbNn7pmdmT3z4cyZc3Dp0iVcuXKFax8fH2zfvh2mpqYICQmR2OjNBD7iH5OwsDC4ubnB1dW1id3c3HD06FFs3rwZUVFREp+ygsCHXd7bt29x69YtXLlyBZcvX27y+7py5Qp8fX1x69YtVFRU0ACGfCSLc1ZXV4ekpCSB5+jMmTOYOXMm/vrrL6xbtw7r16/HmjVrMHjwYHTu3BmdOnWSuz/++GOMGTMGa9aswfr161m58Tt9uGz79u3YuXMndu3axco7d+4Uab0PraqqitmzZ2P16tV893vixInw8fEh8BFT7RJ8CgsLsWTJEqSlpaG8vBwVFRVcv3z5EsbGxrh+/TrS0tIkBiwEPuIdk6ysLGRkZCA5ObmZ09LSkJGRAT09PanM1UXgwy6voaEBNTU1qKysbPLb4nVNTQ0aGlo+ez2Bj+TzamtrBZ6jwsJCLF++HB4eHrhx4wZCQ0MRGBiI2bNnY82aNTh9+jQuXrzI6AsXLggtI6q9vb0xevRoqKurIzAwkDt6u6i+ePEiFi5ciJ9//hljxozBuHHjWHns2LGs1+HnkSNH4ssvv4SZmRmuXbvWZB/DwsKgq6tLLT4SULsFH0F9fGpqamBlZYWoqCiaq0uBwIfJ9+7dQ15entQmKSXwkX8egY9s854/f461a9ciISEBlZWVqKmpwfPnz7FmzRoYGxvjyZMnqK6uZvSbN2+ElmFj3rzS0lIsWLAAtra2eP78OWpqali5urq6yf/fu3cPJiYmcHV1RWJiInduwJY6MzOT9Tr8HBISgrFjx+LKlSt4/fp1s/0+d+4cYx8fAp+WicCHD/hYW1sjJiaGwIfABwCBjyLkEfjINo9pktKRI0dCSUkJS5YskZsXL16Mfv36SWwAw4KCAri6ukJfXx/79u3DgQMHWHn//v2s1+Hn7du3Y8CAAfD39+cLL8HBwdi2bRtyc3NRX19P4COi2iX4PH78GCoqKk3moWlUbW0tzpw5g+vXr9MkpQQ+AAh8FCGPwEe2ecLAZ968eVi0aBGjFy5cKLQMG/PmLVy4EH379pUo+Jibm2PlypWYOHGiXB91de/eHX5+fnzh5fHjx9i7dy93rB4CH9HULsGnoqICRkZGKCgoaHZTamhowL1793D48GGapJTABwA78Dl8+DCSk5NhamqKpUuXEvhIKI/AR7Z5TOCzaNEiGBkZwcLCgtHm5uZCy7Axb56ZmRl+/PFHiY3jU1hYiL/++gs//PADfvzxR/z3v/9lZVHW4echQ4bgs88+w5UrV/jCS319PSwsLJCZmUngI4baJfhUVVXB3NycL/gAQFFREfbv309zdRH4AGAHPpqamjA2NsbSpUuxcOFCAh8J5RH4yDZPEPisXbsWO3bswPXr13Hz5k1Gx8bGIjY2Vmi5lpo3Lzw8HBMnTpTYJKWFhYXQ09ODiYkJgoKCEB4ezsphYWGs1+Hnc+fOYcSIEbh69apAeLG2tibwEVMEPgQ+BD5CxAZ8jIyMkJWVBSsrKyxbtozAR0J5BD6yzWNq8ZkxYwbU1NSwe/duRmtpaQktw8a8ebt27cKgQYNga2srsUddzs7OcHBwgJeXF3x8fODr69ti+/j4sF6Hn11cXPDf//6XwEfKWe0SfN68eYM9e/bg1KlTfC8QAh8CH15RHx/55xH4yDaPCXx69eqFHj164IsvvmB0S8qwMW9ejx490LFjR4nN1VVQUABbW1soKytj6NChGDRoECt/++23rNfh5wEDBqBLly4CH3UBBD6SULsFH3V1dezbtw8VFRXNPifwIfDhFYGP/PMIfGSbxwQ+bXGS0ocPH2LJkiX48ssv8cknn6BDhw74+OOPW+wOHTqwXkdQzkcffUTgI+Wsdg0+WlpaKC8vb/Y5gQ+BD68IfOSfR+Aj2zwm8FmzZg3c3d1x9uxZRp85c0ZoGTbmzfP09MQvv/wi0c7NOjo60NXVxblz51g/opLEYy5fX18cPXoUP/30Ez3qknIWgQ+BD4GPEBH4yD+PwEe2eUydm//44w+YmprC1taW0TY2NkLLsDFvnpWVlUTf6iooKICTkxNOnToFDoeD9PR0Vk5LS2O9Dj9fv34do0ePRkBAAIGPFLMIfAh8CHyEiMBH/nkEPrLNYwKfBQsWQFdXF0ZGRow2NDSEoaGh0HItNW/e4cOHMXToUIl2bnZzc4Oqqip+/vlnfP/996w8ZMgQ1uvw87fffotPP/2UHnVJOYvAh8CHwEeICHzkn0fgI9s8pkdd/fv3x9dff40BAwYwuiVl2Jg37+uvv0aXLl1gbW0tMfAxMzPD3Llz0bVrV26fHXmY+vhIP4vAh8CHwEeICHzkn0fgI9s8JvBRV1dHWFgY4uPjGX379m2hZdiYNy82NhaTJk2S6Dg+GzduxLRp0zBv3jwsWLCAlefPn896HX6ePn06evfuLXDkZoDARxIi8BEAPjo6OkhJSaHZ2Ql8cOPGDWhra8PY2BiHDh3CoUOHoKSkBBUVFRw4cAC6urrQ1dXFnj178Oeff6KwsJDAR8J5BD6yzWN61HXo0CHk5uaipKREbi4oKMCsWbPg4OAgsRYfCwsLODs7Izo6GgkJCXKxn58ffv31V+rjI+UsAh8B4KOrq4vU1FQCHwIflJaWIjs7G25ubpgxYwYmTpyIwYMHY9iwYRg/fjwmTJiACRMmYOzYsZg0aRIePHhA4CPhPAIf2eYxtfgMHToUv/32G6ZOncroKVOmCC3Dxrx5kydPRq9evST6qOvYsWNQU1PD9OnTMXnyZEyZMqXFZltekMeMGYPPP/+cWnyknEXgIwB89PT0kJaWpnA3+bbk1gI+DQ0NqKurQ1RUFKKiopCQkAADAwO4ubnh1q1b4HA44HA4iIyMhJaWFh49ekTgI+E8Ah/Z5jGBT58+ffDll1+iX79+jO7bt6/QMmzMm9e3b1906tRJogMYHjp0CFOnTkX37t3RqVMnubhjx47o0KED9fGRchaBDx/wefLkCSwtLXHnzh1q8SHw4So+Ph4vXrzA27dvcfLkSURGRqKqqgrv3r3Du3fvUFZWBmNjY+rjI4U8Ah/Z5jGBz8qVK3H06FGcPn2a0Z6enkLLsDFvnoeHB0aOHCnRcXyWL1+OYcOG4eeff8bIkSPl4p9++gndunUj8JFyVrsEn+rqauzZswfa2tp8weft27fw9fWFp6enxFp9CHxaP/gkJCSgrKwMDQ0N1LlZxnkEPrLNY+rjo6uri+zsbBQVFTH60aNHQsuwMW9eXl6exPv4mJiYwNbWFmFhYSJNoCqJiVh9fHwwcuRI6uMj5ax2CT7v3r1DcHAwDAwM+E5ZAQDBwcFwdXVFamqqQt3k25IlCT75+fkEPnykyBUZmzwCH9nmMbX4TJgwAcrKylBRUZGbV69ejQEDBsDGxkZi4OPi4oITJ04gJiYGCQkJ3EfYLTHb8oJ89epV6twsg6x2CT4AcP/+fZiZmaGyspLv520JfHJychTSktq3+/fvIz8/H4aGhoiNjSXw4ZEiV2Rs8gh8ZJvHBD6//PIL5s6dCyUlJbl5wYIF6Nevn0TBx8jICKtXr8b8+fNZe968eSKt96GnTZuGnj17ity5+fXr1/D09ERxcbFI9Y4iXHuyyGq34FNQUABTU1O+j7oAxQSfrKwsbk5LgCA5ORmGhobQ1NRs0969eze0tLSwfPlyhIeHE/jwSJErMjZ5BD6yzWMCnxkzZkBDQwN79uxhtLa2ttAybMybp6WlhW+//VZiIzcXFhZi6dKlGDhwIL788ku5uVevXujYsaPIfXwqKipga2srcr2jCNeeLLLaLfg8evQI69atQ1paGurq6pp9rojgk52djZSUFJibm2PXrl3Q0NBg9JYtWzB37lwcOnSIO9y7onjnzp3Ys2cPDh8+LHbWkSNH4ODgAA0NDQQEBKCmpkai10qjCHwIfGQhRThnTH181NXVcePGDcTGxjI6JiZGaBk25s2LiorCxIkTJTqAoaGhIaysrETq4yMp+/r6itXHp6KiAtbW1gQ+QtRuwae4uBi///47AgIC+LYQKCr4cDgczJo1CyNGjMD8+fMxYMAAfPHFF+jRowd69OiBnj17YsiQIViwYAEGDhyIJUuWICYmBnfu3JHIM2hJ+cKFCwgMDER8fLzYWcnJySgpKcG5c+eajbAsiWulUQQ+BD6ykCKcM6YWn+HDh2PatGmYNWsWo2fOnCm0DBvz5s2cORNffvmlxPv4HD16FFevXsX169dZ+dq1a6zX4efTp09jxIgRIs/OTuDTMrVb8Hn8+DEmTZqEy5cvtyrwiY+Px/Lly6Grqws1NTV899136N69O3eOl/79+2PYsGHQ1dXFkiVLsG7dOiQlJUlk25J0QEAAIiIikJmZKXZWbm4uqqqqcPnyZQQHBxP48EiRKzI2eQQ+ss1jAp/PP/8cnTt3RpcuXRjdkjJszJvXuXNnfPzxxxIdx8fa2hrLly/Hd999h4EDB8rFX331Fbp06SLWoy4CH+Ei8GmF4LN27Vpoa2tjwoQJGD9+PAYPHoxPPvkEH330Ebp06YK+ffti/Pjx2Lx5M7Zu3Yrk5GS5gw6Bj3ykyBUZmzwCH9nmMYHPN998g6FDh+LHH3+Uq7t37y6xkZt55+qaPXs25s6dy8pz5szBnDlzWK/3oadMmSK0c7OpqSlu3ryJ6upqAh8RReDTCsFn6dKlmDRpEqZOnYoBAwagS5cu3BafDh064Ntvv8WwYcMwdOhQrFmzhlp8xLxWGkXgQ+AjCynCOWPq46OlpYXY2FikpqYyOiUlBSkdfef9AAAgAElEQVQpKULLtdS8eRwOB1OnTpXYOD6FhYVQU1PDxo0bYWJiAisrK7n44MGDGDRoEPz9/QXWY8ePH4ezszNevnxJ4COiCHxaGfgkJCRg8uTJGDNmDMaNG4dPP/0UH330URN37twZffr0wZQpU7By5UoCHzGvlUYR+BD4yEKKcM6YwEdJSQkGBgYwMzNjtKmpqdAybMybZ2xsjKFDh0rsra6CggLY2trCyckJQUFBCAsLY+XQ0FDW6/Dz2bNnhfbxSUxMxNGjR/H8+XMCHxFF4CMAfIKCguDi4qJw4MPhcDBx4kT07t0bn3/+Obel50N37NgRffr0wZ9//kngI+a10igCHwIfWUgRzhkT+EyfPh3q6urYvXs3o7W0tISWYWPePE1NTYm+zt44SenWrVsxYcIEjBo1CqNHj26xR40axXodfh42bBi6devG+KgrOzsb7u7uePHiBYGPiCLwYWjxOXbsGNLT05GbmyvQOTk5LYIaSYLP5MmT8d133+Gzzz5Dhw4d8OmnnzYDoK5du+LXX3/FihUrCHzEvFYaReBD4CMLKcI5YwKfxYsXc6d3YLKNjQ1sbGyElmupefMsLS3x3//+V6JzdWlqamLUqFH47LPP0LFjR7n4k08+ETpJKYGP+GrX4PPbb7/h4sWLePr0KZKTk7lDj9+5cwf29vY4cOAAvLy8cOHCBYEOCQlBRkaGzMAnISEBs2bNwvTp0zFw4EB06tQJ33//PTp27NgEfIYOHYqxY8di1apVBD5iXiuNIvAh8JGFFOGcMYGPgYEBHjx4gJcvXzL6xYsXQsuwMW9ecXEx5s6dC0dHR4mBz+rVq/Hbb7+J3LlZ3I7Nc+fOxdSpU4V2bibwEV/tGnx+/fVXrFy5EkeOHIGTkxOcnZ3h7OwMV1dX7NixAytXroSOjg7WrVuHiRMnYvz48ZgwYQLXv/76K9TU1Fr01pSkwOf27dvYsWMHDh48yN2fL774oknn5l69emHq1KnQ19dv8f4R+AgXgQ+BjyykCOeMCXwOHTqE3NxclJSUMPrx48dCy7Axb15BQYHEJym1srKCq6srYmNjcefOHVbmcDis1+Fnf39//PLLL4wDGBL4iK92DT6jR4/G3r174evri5iYGNy6dYvrwMBAmJub4+zZs/D29sb58+ebtfY4ODhg9+7dMgWf+Ph4LFq0CFu3bsUff/yBESNGoFOnTtyWnk8++QQ///wzNm7ciNWrV2P9+vVITk6W+7xcHzowMBCRkZHIysoSO+vevXt48+YNgQ8fKXJFxiaPwEe2eUyvs0+cOBGrV6/Ghg0bGL1+/XqhZdiYN2/dunUYOHCgxPv47Nq1C3PnzsX06dPl4okTJ1KLjwyy2i34lJWVQVVVFefPn0dpaSmqq6ub+Pnz57hy5QqSk5ORnp6OjIyMZg4ODsbBgweRkpIiM/DhcDiYNGkSJkyYAHV1dcyZM6fJm10dO3bE8uXLoaWlhe+//x4TJkyAubm5xJ6zS8r79++Hvr6+RPoA2Nvb48yZM9DS0sL+/ftx9uxZnD9/Hl5eXsjJyeFW3KJeK42KiIiAt7c3fH19oaamhiNHjuD8+fPw9fWFr68v/vnnH2zevBkPHz4k8JFwHoGPbPOYwEdTUxOxsbHc18sFOTk5GcnJyULLtdS8eQkJCZgyZYpEW3wOHjyIyZMncwdoZONOnTqxXkdQDvXxkX5WuwWfuro6nDlzBoGBgXzndqqoqEBgYCBj/50bN27IHHzi4+OxatUq2Nraws3NDQ4ODjA1NYWJiQlMTExgZmYGV1dXuLu7w8rKCnZ2dvDw8MDx48fh7u7eIjeW52dB5Vua3WhXV1ccPXqU1fYFbefEiRMICQmBkZERLCwscOPGDURGRiI8PBwhISHNKhC210pqaiosLS2hoaGBP/74A4sWLcLIkSPx22+/QUlJCYsWLcKiRYswf/58zJw5EwUFBQQ+Es4j8JFtHtOjLlNTU7x48QLv3r2TmysqKqCkpCTRPj7KysoYPny4XP3DDz+ga9euBD5Szmq34AMAly9fRlBQECP4pKenKxT43L59G2pqajh37hzU1dWhrq7OnZRUTU0NK1euxLJly5r5zz//hKqqapPymzdvxsaNG5ss09DQwLp16/Dnn382y1i+fDnU1NSalN25cydUVFSwfft2oZOmfugPt9uYp6yszPc7qKioNNu+hoYG9u3bh8zMTHh5ecHPzw+lpaV48+YN3rx5g8jISLHBJzAwEKdOnUJycjJSU1ORlpaGI0eO4NSpU7hz5w53gLXbt29DW1sbjx49IvCRcB6Bj2zzmMDH3NwcZWVlUtluS/PevHmDhQsXSgx8CgoKYGxsDAcHB8TFxYnUGiWJVq3AwECMGjWK+vhIOatdg8+lS5fg4+PD9wJTZPDR0NCAo6Mj7O3tER0dzZ3ZNyQkBMuWLYO6ujq2bduGLVu2YOvWrdDU1MTSpUvh6OiIyMhI3Lx5E3FxcXBxcYGpqSnCw8O5GXFxcdDS0sKGDRuwY8cOboaqqirmzZuHkJCQJrMJN4JYYz8pNjMRN860/OFyDQ0NbNu2DVu3bsWWLVu4I6pu2bIFoaGhzcrfuHEDd+7cwYULF5r18YmOjhYbfPz8/BAQEIDKykrU1dWhrq4Op06dQlRUFN68ecNd9urVKxgbG1MfHynkEfjINq89go+dnR1MTEzg5OQEV1dXVnZxcYGLiwvr9T60sbExhgwZwjiAIYGP+GrX4HP+/Hmoqqri5cuXzT6rqKhAcHCwwj3qagQfGxsbHDt2rMn+cTgcbN26FTY2Nti0aRM2b96MxYsXw9raGvr6+jh16hTS0tKQnf2/N6E8PT1hZ2fXZP/v3r0LXV1dmJubQ0NDA1u2bMGqVauwePFiKCkpITExETk5Odzy9+7dg6amJkJCQli/oSXomBgbG2P16tVYuXIlVFVVsWPHDpibm0NbW5vvq/m3b9/G7du3pQo+H876Tp2bZZtH4CPbvPYGPg8fPsSGDRswYsQIDBgwAF999ZVc3L9/f3z22WfUuVnKWe0afLy8vPD777/jyZMnfC+ga9eutSrwuXPnDpYvXw4lJSVoamrC0tISmzdvhoqKCvT09ODp6dkEfE6dOtUMfHJzc6GtrY0pU6Zgy5YtsLOzg56eHtauXYuJEyciISGhyf5IGnxyc3OxePFirFy5Evv374eDgwM0NTUxdepUbNiwAYmJiQQ+LKTIFRmbPAIf2ea1N/B59eoVzpw5A3NzcxgbG+PIkSOsbGRkxHodQTY0NER2dnazlzIaReAjvto9+EyaNAklJSV8L6AbN24w3sxv3LgBXV1dhQGfxMREzJ8/H6qqqjAyMoKPjw+0tbWxfft2vi0+gsBHS0sLs2bNgpaWFvz9/WFmZobDhw9j2rRp4HA4UgWfe/fuYf78+dDR0YGhoSECAgKgp6eHuXPnYv369bhz5w6BDwspckXGJo/AR7Z57Q186uvrUV5ejrKyMpFcWlqK0tJSkdf/MKu2tlbg8SPwEV8EPgzgI+xmHhMTg8OHDyM2NlYo2MgKfBYsWAA9PT24uLggMjISmpqa0NDQwOHDh1vc4qOlpYX58+dj165dCA0NhYWFBY4cOYLp06fLBHyUlJRw6NAhGBoaIiIiArq6uli4cCE2bNhA4MNSilyRsckj8JFtXnsDH3ElyzwCH/FF4MMAPmFhYYw388zMTJiYmODSpUtCb/qyAJ+kpCQsXLgQmpqaMDMzg52dHdTU1LB+/Xro6OjgypUr3PJM4KOpqYlFixZxX403MDCAnZ0dZs6cKRPw+eOPP2BhYQF9fX24uLjA1tYWy5YtI/ARQYpckbHJI/CRbR6Bj+LmEfiILwIfBvAJDw9nBJacnBzuIHaKAD4ZGRkwMTGBiooK7OzsYGRkhJ07d2LYsGHYs2dPE2gRBD53796FkZERtm3bBhcXFzg7O+Po0aPYt28fli9f3gw8JA0+OTk52LNnD/bs2QNnZ2fY2tri2LFjUFdXx969e6lzM0spckXGJo/AR7Z5BD6Km0fgI74IfBjAp3FKhdYCPtnZ2QgJCcH27dsxZswYDB8+HHPmzMHSpUtx7dq1JvsoCHyys7MRHR0Nc3NzKCsrY82aNfjzzz8xe/ZsuLu7cx+VSRN8jh07hnnz5mHJkiWYNm0ali5dCj09vWbfgcBHuBS5ImOTR+Aj2zwCH8XNYwKfqqoqODo64v79+6irq5PodkURgY+UJQ3wiYqKanXgk56eDi8vL6xcuRK//PIL1NXV4e/v32w8IibwyczMRHR0NOzt7TF79mxMnz4d5ubmiI+Pb/Y9pPE6e2JiIlxdXbFgwQKMHz8eRkZGuHHjhsAxlQh8BEuRKzI2eQQ+ss0j8FHcPCbwefv2LWJiYuDn54fy8nKJblcUEfhIWdIAn+jo6CZj1rQG8MnOzkZqaipu3ryJiIgI3L59m28ZJvBphJ/ExERERUUhKioKSUlJAvvkSBp8srOzkZKSgpiYGERERIDD4TAOK0DgI1iKXJGxySPwkW0egY/i5jGBT0NDA/Ly8uDs7Iznz59LdLuiiMBHypI0+NTW1iIwMBDR0dECb9CKCj68+yfoM2Hgw5vBlCMt8GnJtgl8hEuRKzI2eQQ+ss0j8FHcPCbwAf4375i9vT2ePXsm0e2KIgIfKUvS4FNfX4+zZ8/i4sWLAm/oig4+TG4p+AizNMGHzTEh8OEvRa7I2OQR+Mg2j8BHcfMIfMRXuwafGzduYMGCBXxHbm5oaICnpye8vLwIfAh8CHzknEfgI9s8Ah/FzcvOzsaxY8fw/PlzAh8R1a7Bp6SkBPv27RP4rJTAh8AHIPBRhDwCH9nmEfgobt79+/dhYmKCx48fE/iIqHYNPq9evYKBgQFevnxJ4EPgI1AEPvLPI/CRbR6Bj+LmVVVV4erVqygtLSXwEVEEPgQ+BD5CROAj/zwCH9nmEfgobl5DQwNu3ryJ169fE/iIqHYNPuXl5di0aROysrKaDfbUCD5MUEPgQ+BD4CObPAIf2eYR+Ch2XlxcHMrLywl8RFS7B5+1a9eCw+Fwf9y8eZ6envRWF4EPgY8C5BH4yDaPwEex8wh8xBOBz9q1SEhIEAg+vr6+QsHnwoULBD4EPgQ+Uswj8JFtHoGPYucR+IgnAh8h4MM083pOTg6OHj2K8+fPCwUQAp/WCz4BAQFwc3NDQkICkpOTkZaWBiMjI5w6dQocDgcpKSlISUlBXFwctLW18ejRIwIfCecR+Mg2j8BHsfMIfMQTgY8Q8Ll8+TLjDT0xMRFnzpxpNnkngU/bAZ/c3FycPn0axsbGsLOzg6urK1avXo3du3fD3t4ezs7OcHZ2hp2dHVRUVFBYWEjgI+E8Ah/Z5hH4KHYegY94IvARAj7+/v5Cb9Cenp5ITU0l8Gmj4PP27VuUlZXhzJkzWL16NXR1dbFo0SKsX78eurq60NfXh76+PrZs2YIZM2bgwYMHBD4SziPwkW0eP/CpqKjAzp07cfDgQWRmZuLhw4eMLiwsFFqGjXnz7t27h5kzZ8LBwYHA5wMR+AgXgY8Q8AkICFBY8PHw8ODCR25uLiv/+++/OHv2LBwdHZGens56/Ubn5eVBW1sb4eHhyMnJYbXu3bt3Rd4urzkcDuLj46UGPo36559/oK2tjXv37sHR0RF+fn54+PAhSkpKUFJSgtOnT2Py5MnIz88n8JFwHoGPbPP4gU9tbS3c3d2xevVqODg4wN3dXW4+evQohg8fDjs7OwKfD0TgI1wEPkLAJygoCFlZWYzgIg/wsbe3h4qKCvbv3w8dHR3WPnjwIDZt2oTVq1dj3759ImXo6OhAV1cXixcvxs6dO3HgwAFW67ItL8i7d+9GYGAgvL29pQo+Z8+excGDB1FWVsa3c/OVK1cwadIkAh8p5BH4yDZPUIuPuro6JkyYAGVlZaxdu5bRKioqQsuwMW/emjVr8PXXX8PGxobA5wMR+AgXgQ8D+MTFxeH06dNISkpSOPCxs7ODkZER/Pz8EBAQIJL9/f3h5+eHq1evipwREBCAK1euwN/fn/V64m630d7e3oiKisL58+cJfD6QIldkbPIIfGSbJ6iPj4qKCgYPHoxff/0VY8aMYfTo0aOFlmFj3rzRo0fj888/h7W1NYHPByLwES4CHwbwqaqqwuHDhxEVFaVw4GNrawtXV1ekpqYiIyOjVTo9PV0iOTdv3kRcXJzUH3UR+BD4yEKKcM6YOjfv2bMHHA4HOTk5jM7OzhZaho1581JSUvD7779THx8CH5FE4MMAPgBw8OBBREREKBz4iNu5WREsqWMSHx8vkz4+BD4EPrKQIpwzJvDZu3cvEhMTZdaHj19eRkYGpk2bRuBD4COS2jX41NTUwNHREUlJSQQ+BD5CReBD4CMLKcI5Y3rU9Z///AdDhgzB0KFD5ebvv/8e3bp1o0ddBD4iqV2DT0NDA/dRERP4hISE4Pbt20hISGjm+Ph4eHh4EPgQ+BD4SDGPwEe2eUzg8+WXX6Jv377o168fo1tSho158/r27YvOnTsT+BD4iKR2DT4AkJeXhxMnTuDGjRsICwvjOjQ0FOHh4Vi5ciWOHDkCAwMDHD58uJn19PRgamoqdCwcAh8CH3lIkSsyNnkEPrLNYwKfLVu2wM/Pr0l9yc+hoaFCy7Axb15wcDDGjx8Pe3t7Ap8PROAjXO0efPLz86Gvr49Vq1Zh8eLFWLRoERYtWoSFCxdi0aJFGDJkCBYuXIht27Zhx44d2L59exNv2bIFp06danUjNyuCCXykL0WuyNjkEfjINo+pj8++ffuQnJyMf//9l9H3798XWoaNefMyMzMxffp06uMjAHwcHR3x9OlTiW9XnnkEPnwk6kEpKCjA1q1bERQUhJs3b3IdGxuLW7duYe3atXB3d8eVK1fg5+fXzJcvX0Z8fLzQmziBD4GPPKTIFRmbPAIf2eYxtfgMHz4cM2fOxLx58xg9d+5coWXYmDdvzpw5+PLLL2kcHz7lXr9+jbNnzyI1NbVJ/SSJ7bIVgY+UJepBefjwIZSVlfHvv/+itrYWb9++xdu3b7n/1tHRQXh4ONLS0pCens7XmZmZBD4EPgQ+Uswj8JFtHhP4TJo0CevWrYOqqiqjN23aJLQMG/Pmbdq0CQMHDiTw4VOuvr4ely9fRmhoKKqqqiS6XbYi8JGyxAGfv//+Gw8ePGhyg2rMO3ToEKKjo8W+SRP4EPjIQ4pckbHJI/CRbR7To65p06ZBTU0NWlpajNbU1BRaho1583bt2oX/+7//g62tLYEPH/n5+eH69euorKyU6HbZisBHypIW+Ojp6SEmJobAh8AH//zzD1RVVRETEwNDQ0McP34c8fHxSEpKQmJiIjw9PaGkpISCggICHwnnEfjINo8JfDZs2IDz58/LbGR2fnmXL1/GmDFjqHMzgY9IIvBpAfjExsYS+BD4wNfXF+PHj8esWbMwbNgwjBs3DrNnz8acOXMwe/ZsLF++HEuWLEFhYSGBj4TzCHxkm8f0qOv777/HmDFjMGHCBEaPHz9eaBk25s0bP348evbsSa+zE/iIJAIfIeCjr6+PmzdvEvgQ+KC4uJj7Wu3evXthZ2eHoKAghISE4MaNGwgKCsLOnTvx6NEjAh8J5xH4yDaPCXy6d++Ojh07yt0dOnSAlZVVuwSfsLAw5OTkCOy8TODDLAIfIeBjZGRE4KPg4NM4kKS0wae+vh61tbWora3FiRMnEB4ejvLyctTU1KCmpgYvXrzAkSNHUFxcTOAj4TwCH9nmMYFP//798dVXX2HAgAGM/vrrr4WWYWPevK+//hpdunRp1y0+p06dQmlpKd/PCXyYReAjBHwuXryIc+fOiQ0Y0gAfDw8PZGVlceexkaQJfJjFr3NzRUUFTE1NCXykkEfgI9s8JvDZuHEjvLy8cOXKFUZfvnxZaBk25s3z9fVt13187t27BycnJzx//pzv5wQ+zCLwEQI+HA4HlpaWCgc+dnZ22LdvH44fP44TJ07g5MmTrHzixAmcOnUKJ0+ehIeHR5PPPD09WzQ2EYEPgY+s8gh8ZJvH1Ll58eLFOHLkCKysrBhtaWkptAwb8+aZm5vjhx9+aLdvdeXn58PR0ZHAR0QR+AgBn9TUVJiYmCgU+OzcuROOjo7Q1tbGsWPHoKOjA1dXV7i7u7fIrq6uMDIygp2dHaytraGiogIXFxe4u7vDw8MDO3bsgJ+fn9QfoxH4SF+KXJGxySPwkW0eU4vPhAkTsGLFCqioqDB6zZo1QsuwMW/e6tWrMWDAgHY7jg+Bj3gi8Gll4HPnzh1s3rwZKioqUFZWxo4dO7Bq1Srs2LEDampqLfamTZuwYsUKbNq0CQsWLMC2bduwZcsWbNiwAXPnzsXFixcJfBhE4CPbPAIf2eYxgc9PP/2EKVOmYPr06YyeNm2a0DJszJs3bdo09OnTh8CHwEcktXvwKS0txaZNm1BQUKDw4JOVlYX09HQEBwdzp8zw9/fn/vfq1asttr+/P65cudLkvw4ODti7dy+2b9+OS5cuEfgwiMBHtnkEPrLNYwIfdXV1hIWFcd+mFOTbt28LLcPGvHkxMTGYNGlSu+3jQ+Ajnto9+NTV1eHgwYOtAnwaczIzM5GRkSFxX7hwAaamptDR0cHly5dlCj45OTkid8TmcDgEPgKkyBUZmzwCH9nmMfXxaQSfhIQERsfHxwstw8a8eQQ+BD7iqN2DDwAYGBi0GvCRpn19fWFubg5dXV2Zgg+Hw0FAQAD8/f1F8vnz5xEVFYXz588T+HwgRa7I2OQR+Mg2T9gAhmPHjpXrAIbjxo1r1wMYEviIJwIfALq6urh//z6BjxzA5+7duzh16hRGjx6NUaNGYfTo0aw9btw4eHt7w9vbWyrg8/btW5SVleHFixd48eIFSktL4eLigqCgIJSUlHCXP3z4EPr6+igqKiLwkXAegY9s85jAp1+/fgoxjk/nzp3b7QCGBD7iicAHwKpVq+Dp6dnkBkngIxvwyc3NhaurKxYtWgQXFxecOHGCtV1dXREWFia1Fp+EhAQYGRnB0tIS1tbWsLW1xd9//w01NTWYm5vD2toa1tbWMDExgbKyMh4+fEjgI+E8Ah/Z5jGBz+bNm3HlyhWEhITIzQEBARg3bhw96iLwEUkEPgAWL14MCwsLVFVVNctLTU2FqakpgY+UwWfjxo2Ii4tDWloaK6empuLmzZtS7eMTEBAALy8v5OXloaioCMXFxbC3t8fly5fx4MEDFBUVoaioCLm5udDV1aUWHynkEfjINk/YJKUXLlxAYGAgowMCAoSWYWPevPY+SSmBj3gi8AGwaNEimJmZCQQfc3PzdgU+enp6MgcfVVVVcDgckXIaOzxKC3z8/PwQFBTUJIf6+Mg2j8BHtnlMLT7/+c9/8P333+OHH36Qm4cOHYpu3bpRHx8CH5FE4APh4GNhYdFuwEdVVRXKysrw9fUl8HkvAh/55xH4yDaPCXy6du2KDh064OOPP2Z0S8qwMW9ehw4d8NFHH1EfHwIfkUTgA+HgY2Vl1S7A59KlS9ixYwfWrl1L4MMjAh/55xH4yDZP2Ftdo0ePxvjx4xk9btw4oWXYmDdv7Nix+OKLL6jFh8BHJBH4QDj42NjYtBvwWbp0KebMmSOzkZsJfKQrRa7I2OQR+Mg2T9gkpd7e3kKHmeAdZFUS5s2jPj4EPuKIwAfM4JORkQEHBwekpaW1efDx9fXFoUOHoKmpKbORmwl8pCtFrsjY5BH4yDaPCXy++eYbfP/99/jxxx8Z/cMPPwgtw8a8eT/88AO6d+9OLT4EPiKJwAfM4PPq1Ss4OTkhNDRULHhpLeAjr7e6CHykI0WuyNjkEfjINk9YH5+PPvpIIUx9fAh8RBGBD5jBp76+Hk5OTvD39yfwIfDhLiPwkW0egY9s85jAZ+TIkZg7dy6UlJSwYMECuXj+/Pno168fTVIqAHxiY2Nx6dIllJeXS3S7bEXgI2VJC3wAwMnJCX5+fgQ+BD7cZQQ+ss0j8JFtnrABDC9fvowbN24w+vr160LLsDFvHg1gyAw+jx8/hq2tLZ49eybR7bIVgY+UReDTPsEnKyuLwIdBilyRsckj8JFtHtMAhitWrICzs7PQEdWPHz8u0kjsLclzc3PDiBEjYGdnR+DDR2VlZTAxMcGTJ08kul22IvCRssQ5KC4uLnByciLwIfDhKwIf+ecR+Mg2j6nF57fffsPatWuhqqrK6E2bNgktw8a8eRs3bsTAgQPpURcD+BgbGxP4CBCBD4CoqCicOHEClZWVqK+vR319Perq6lBfX4+GhgY4OjrC398f2dnZuHv3bhMT+LQ98CktLUVxcTHXnp6eCAgIIPBpYV5DQwMaGhq4vyVBbiwnqe22FcninDU0NKC8vBwlJSVNrvVGZ2dnY8WKFYiIiEBxcTGePn2K/Px8/PXXX+jVqxd69eqF3r17y829evVCp06dYGBggPz8fDx9+pSVnzx5gidPnrBeT1Hy7ty5Azs7OwIfEUXgAyA+Ph579+7F+fPn4evrCx8fH/j4+MDLywsXL16EmpoadHV14eDgAEdHR67t7Ozg7e2N9PR0Ap82BD4eHh5wcHCAk5MTnJ2dceTIEdy+fRtv377lliHwEax3797h1q1buHTpEve39KEvXryIvLw8bmuCJLbbViSLc1ZbWwt3d3eYmZnB0dERzs7OTWxhYYFRo0Zh3LhxmDJlCqZMmYLffvsN/fr1Q/fu3dG3b1/069dPru7UqRMGDRqE3377jbuPLfXkyZNZr6NIeaNGjcLBgwcJfEQUgQ/+Bz46Ojq4fv06oqKiuDY0NISbmxsCAgJw/fp1hIaGNvGZM2dw+PBhpKSkEPi0IfAJCgrCgwcP8PjxYzx+/BjFxcWoqqpqsh6Bj2BVVlbC0tISfn5+iIyMbPKbarSDgwOuXbuGN2/eSGy7bUWyOGc1NbE12vYAACAASURBVDVwcHBAVFQUHj58yL3WG52WlgZnZ2ecOXMG3t7e8Pb2xokTJzB58mT89NNPmDdvHhYvXszoRYsWCS3DxosWLeJmKikpoW/fvlizZg1OnjzJ3ceW2svLC15eXqzXU5S8EydOwMnJCffu3eP7xwOBD7MIfAAkJCRgyZIlyMjIQHl5OSorK1FZWYljx44hJCQEr1694i7jdUpKCoFPGwQffut8KAIfwWo8Dvfu3UNFRQXf346vry+uXr3apF+duNttK5IV+Dg7OyMjI4PvjbOkpAS3b9/Gy5cvuefs+fPn0NHRQf/+/eX+qKt3797o168f3N3d8fz5c77XWFt2eXk5zp07h9jYWL51FYEPswh8AHA4HIwdOxZpaWmoq6vj5p06dQqxsbFNHnHw6u7duzAyMhIJfHJyclibwId/BofDQUJCAs6ePYu9e/fCw8MDnp6eOHnyJNzc3JoN4kXgI928iooKmJmZ4dGjRwK/e0BAAIGPACkK+CQlJTX5HdTV1SEzMxMWFhbQ19eHgYEBo1tSho158/T19eHk5IS8vDxunS3uMRFH8sg7f/48IiIi+LaaEvgwi8AH/wOfX3/9FSkpKazBZ9++fQgICGAce+L69eu4du1ak39/6ODgYKEOCgpqsQMDA1nb2dkZOjo60NTUhKurK/z9/UXKaakDAgIQHByMI0eOQEVFBT4+Pozl/fz8EBAQ0Gz5xYsXERUVhXPnzsHW1hYRERG4desWYmNjkZqa2uz8CbtWbty4gZKSEpSVlfH1q1evcPToUVy7dg1Pnz7lLi8uLoaBgQGKiooIfAh8RJaigg8AvH37Fi9fvsTz58/l7levXrW4j1hLjok4IvCRfh6BDx/JA3xycnJgamqKu3fvorCwkK8LCgpQUFCABw8ecP/Nzw8ePJC77969i4yMDKSlpSE3Nxf5+flS3V5jflZWFpKSkpCXl8dYPigoCNnZ2c32Kzk5GfHx8Th//jz8/PxQVlaGN2/e4M2bN6itrW12bQi7Vjw9PWFtbQ0bGxvY2to2s52dHZSVlaGurg5LS0vucktLS+jp6eHp06cEPgQ+IkuRwUfc7YojRb2JyiuPwEd0EfhAPPBxdHREaWkp3r17x+i3b98KLdPezPaYxMbGoqysrNnyJ0+eICUlhW8fH1GulWfPnuHhw4cC/ejRI9jZ2eHSpUvIy8tr8llRURHevXuHY8eOEfgQ+IgkAh/p5ynyvrU0j8BHdBH4AMjMzMTvv//eDHw8PT1x9uxZREREwNfXFxcvXmzySq6joyNMTU3x6tUrqe5fWxXbY5KRkYGUlBSkp6c3cVxcHIKDg+Hh4YFz584hOTm5WZn09HTExMTgyZMnIvUJ+FAnTpzA2bNnkZycjMzMzGbW09PDkiVL2i34GBgYICIiAhkZGXyPT+OjVAKf5pLV6+ynT59GSEgIUlNTkZ6eDg6Hg7S0NCQmJiIoKAjx8fGoqamR6HbFkaLeROWVR+Ajugh88L+Kev/+/c06N8fFxcHZ2RmOjo5YsmQJDh48CGNjY64NDAzg7e2NsrIy1NTUMLq6ulpoGWGura3l+2+2nwkq++Fn0jbbY/Ly5Uvcu3cPubm5TZyTk4OsrCykpKRwH9N96Pv378PV1RXx8fFNOiSLqvDwcDg5OeH48eM4efJkM5uYmMDOzg7Pnj2T601bHhVZTU0NvLy84O7uzvfYnDx5EnZ2duBwOC0+FwQ+ks2rr6/Hw4cP8e+//+LB+8fwV69exd27dxEeHg5HR0c8ePBArD8S2stNVF55BD6ii8Dn/bo2NjbNwKeqqgpPnjxBSUkJDhw4AENDQ1hYWMDS0hKWlpawsLCAvb093Nzc4O7u3sweHh7ccs7OznBxcRHZNjY20NLSgomJCWxtbaGhoQFNTU04OTnBwsICGhoaMDQ0xNGjR7Fv3z7s2rULjo6OsLKygoaGBgwMDHDs2DHs378fampqMDU15X62e/duGBkZQV1dHTt27MDhw4fh5OTE3baJiQksLS3F/g4fWpQ8BwcH2Nvb87WdnV2zZSYmJjA3N4enpyecnJwQGxsr1l+xjaqoqGAcXbWkpATPnz8XufOlpCSPiqyhoQFlZWVCR6atqqpqcWsYgY/k8+rq6vD27VuuIyMjUVZWhsTERBw7dgwvX76UynYVIU+R962leQQ+oovA570aO6eePXsW586dwz///INz585xbWJiAhMTE5iZmTWxqakpTExMYGhoyC3DW3bbtm04fvy4wMcvLbWvry9++eUXLFmyBNu2bUP//v3xzTffYO/evVi1ahX69u2LefPmwcDAAMOGDcOAAQOgra2NdevWoV+/fpgxYwaMjIwwYsQI9OnTB8uWLcPGjRvRv39/DBkyBEuXLsXXX3+NXr16Yd++feBwONxtNx4Xcb+DPHzmzBkEBQXB1NQUjo6OEgOf1iJFrsjY5BH4iJdXW1uL8PBwnD17Fo8fP+YLnLGxsaisrERaWhqOHz/eokf4wrYrSSnqTVReeQQ+oovA571sbW3h6emJ8PBwREVFNRlxNjo6Gjt27ICvry/Cw8MRERHRxAEBAdi+fTuCg4ObLI+MjERoaCgKCwtRU1PT5K8rtuZwOBg+fDi2bdsGGxsb9OjRA1999RVOnz6NAwcOoFu3bli7di38/f3xyy+/oF+/fjh58iQMDQ3RvXt3/PXXXwgODsaYMWPw6aefQl1dHcbGxujRowcGDRqEkydPYuzYsejSpQtMTEzw6tUr7rZPnjyJiIgIVFVVifUd5OHw8HDk5OTAzMwMDg4OBD6tNI/AR7y86Oho+Pn54cCBA0hJSeH7wkZ0dDSePn2K27dvw93dncBHwfMIfEQXgc972dnZISEhAa9fv0ZVVRUqKytRVVXF9f79+3H37l1UVFQ0WV5VVYVHjx7hwIED3Ob7D11XVyf2/iUlJeHnn3+GsbExgoKC0Lt3bwwaNAiJiYlwd3dHjx49cODAARQWFuL333/HwIEDER8fj3PnzqFnz57YuXMnHj9+jFmzZqFbt26wtLTEhQsX0KtXLwwbNgypqalQUlLCZ599BjMzsyaD/p0+fRrR0dES6RvDK1n8yKKjo3H//n2Ym5sT+LTiPAIf8fLOnDmDmJgYWFhYIDExsRn4VFVVwd3dHSYmJlixYgVsbW0JfBQ8j8BHdBH4vJednV2zPj680tPTQ2FhId8m4pcvX0JPTw/l5eVS279G8LGwsEB4eDj69OmDwYMHIzMzE6dPn8YXX3wBPT09PHv2DNOnT8c333yD1NRU+Pr6omfPntDW1kZZWRnmzp2Lbt26wd7eHn5+fujduzdGjBiBnJwcLF68mMCnjUmRKzI2eQQ+4uWdOHECt2/fhp2dHZKSkpqBT25uLjZt2oSIiAgsW7YMNjY2eP36tdjblaQU9SYqrzwCH9FF4PNeBD4EPm1RilyRsckj8BEvTxj4ZGRkYMWKFcjIyMDKlStha2tL4KPgeQQ+oovA570IfAh82qIUuSJjk0fgI15eS8BHWVmZwKcV5RH4iC4Cn/eytbVFWFgYd6RSAh8Cn7YgRa7I2OQR+IiXR+AjvSx55RH4iC4Cn/eytbXF3r17uQPOEfgQ+LQFKXJFxiaPwEe8PAIf6WXJK4/AR3QR+LyXra0tVq5ciaKiIgIfAp82I0WuyNjkEfiIl0fgI70seeUR+IguAp/3srW1xd9//03gQ+DTpqTIFRmbPAIf8fIIfKSXJa88JvApLy+Hi4sLSkpKWO2bIh8XAh8+IvAh8CHwaS5FrsjY5BH4iJdH4CO9LHnlMYFPfX09kpOTkZuby6reVuTjQuDDRwQ+BD4EPs2lyBUZmzwCH/HyCHyklyWvPCbwAYC8vDxkZ2ezqu8U+bgQ+PCRtMHHzc2NwIfAp9VJkSsyNnkEPuLlEfhIL0teeQQ+oovA5704HA527NghEHySkpLw4MED7jg/vKqpqYGfnx8jHBD4NBeBj/SlyBUZmzwCH/HyCHyklyWvPAIf0UXg816vX7+Gvr4+iouL+YLP/fv3BYJPQ0MDUlNT4e7ujqqqKqnsH4GPaHkEPopbkbHJI/ARL6+lIzenp6cT+LSSvMuXLyMsLEzgPYfAR7AIfN6ruroahoaGIoEPAGRlZcHR0bEJMEhy/wh8RMsj8FHcioxNHoGPeHktAZ/58+fjxo0bWL58OYFPK8grKCiAo6Mjnj9/zvdzAh/BIvB5LwIfAp+2KEWuyNjkEfiIl9cS8FFSUkJYWBiBTyvJe/nyJUxNTfH06VO+nxP4CBaBz3sR+BD4tEUpckXGJo/AR7y8loDP8uXLkZKSAmVlZQKfVpBH4CO6CHzei8CHwKctSpErMjZ5BD7i5VHnZullySuPwEd0Efi8F4EPgU9blCJXZGzyCHzEyyPwkV6WvPIIfEQXgc97EfgQ+LRFKXJFxiaPwEe8PAIf6WXJK4/AR3QR+LxXdXU19PX18ejRI9TX1xP4EPi0CSlyRcYmj8BHvDwCH+llySuPwEd0Efi8V3V1NRYvXozz58+jpqZGIcFnxIgRMDExQXBwMHr37o1BgwYhOTkZ7u7u6NGjB3R0dPDw4UNMnToVAwcOBIfDgZeXF3r27ImdO3fiyZMnmDVrFrp27QorKytcvHgRvXr1wrBhw5CWlgYlJSUCnzYmRa7I2OQR+IiXR+AjvSx55RH4iC4Cn/eqrq7GjBkzcPToUVRXVyss+OzatQuurq744osvMGDAAPj4+MDAwADdu3fHpk2bEBYWhlGjRqF///44f/48zM3N8fnnn2PVqlWIjo7GuHHj8Nlnn2HPnj2wtrZGjx498N133+Hy5cuYMmUKunTpQuDThqTIFRmbPAIf8fIIfKSXJa88Ah/RReDzXq0BfH7++WcYGRnh6tWr6N27N7799lskJCTg2LFj6NGjB/bt24f8/HxMmTIFAwcORFxcHM6cOYMvvvgC6urqePToEWbMmIFu3brB3NwcXl5e6NWrF3766SckJiZi/vz5+PTTTwl82pAUuSJjk0fgI16ev78/AgMDYWtrizt37jT7LRP4tL48Ah/RReDzXq0FfKiPD7s8Ah/FrcjY5BH4iJf35MkTmJiYwNjYGFevXm02zQGBT+vLI/ARXQQ+7yUMfPLz8/k2ETeKwIe9CHykL0WuyNjkEfiIl1dfX8+FnoCAgGb1FIFP68sj8BFdBD7vVVtbi9WrV8PDw4Mv+JSUlMDFxUUg2OTn58PV1RUvXrzguy8EPs1F4CN9KXJFxiaPwEf8vEOHDuHixYsEPhLOklcegY/oIvDhWd/Lywve3t58wefZs2cwNDREeXk53/Wrq6vh7u6OtLQ0vHv3TuL7R+AjWh6Bj+JWZGzyCHzEz9uzZw9sbW3h6+tL4KPA+9bSPAIf0UXgw6OQkBD4+PgIBJ/Dhw8LBJ/6+nq4u7sjISGBwKeFIvCRvhS5ImOTR+Ajfp6hoSFu3ryJ8PBw6uOjwPvW0jwCH9FF4MMjSYEPv35ABD7NReAjfSlyRcYmj8BH/DxTU1NkZWUhNjYWb968aVKGwKf15RH4iC4CHx4R+BD4tDUpckXGJo/AR/w8U1NTZGdnE/hIOEteeQQ+oovAh0cEPgQ+bU2KXJGxySPwET9PGPj8/fffSEpKwt9//03g0wryhIFPfn4+MjMzUV1dLdHtspGinjMCHx4R+BD4tDUpckXGJo/AR/w8JvApKirCvn37cP36dezevRv29vZ49eqVRLYrKSnqTVReecLA5/Xr17h48SIeP36M+vp6iW2XjRT1nBH48IjAh8CnrUmRKzI2eQQ+4ucxgU9tbS2uXr2Khw8fIjQ0FG5ubgQ+Cp4nDHzq6upgY2OD+/fvCxx4V5TtspGinjMCHx4R+BD4tDUpckXGJo/AR/w8JvABgNjYWFRUVCA1NRXHjx8n8FHwPGHg09DQAHNzc+Tm5hL4fCACHx6FhITAysoKlZWVBD4EPm1CilyRsckj8BE/ryXgU1lZibS0NAKfVpBH4CO6CHx4FBISgh07duD169cEPgQ+bUKKXJGxySPwET+vpeCTmpoKHR0dBAYGIioqqolv3ryJ6OhoocuioqIQGRnZbJk4lmQe26zY2FjEx8cjISGBr5k+Y+O4uDi+x5KfAwMDoaqqCj8/P76fR0dHQ1VVFf/88w8iIiIYs2JiYvDo0SO+Y9BJ4tpTtCwCHx6FhIRg06ZNePXqFYEPgU+bEIFP65O8wefJkyfw8vLCxYsX4evry/W5c+egoaGBs2fP4tKlS/D19cWFCxegra2N48ePw8fHp0n5tmQ7OzssXLgQS5YswZ9//tnMy5Yt47u8pV62bBmmT58ODQ0N/PPPPy3aJx8fHxw/frzZeWr0pUuXcPz4cXh7ezPmXLp0CU5OTrhw4YLYb/IJuvYULYvAh0ctAR9BFwaBD3sR+EhfBD6tT/ICn6ioKBQVFeHZs2fIy8vD/fv3mzg5ORl79uxBbm4uXrx4gRcvXuDRo0cwNDREVFQUcnNzuWWvXbuGixcvNvHVq1eRkZHRLLelvnfvHqvy+fn5ePbsGXdfef38+XO+ywU5ISEBampquHDhAq5fv97M165d47u8pb569Sq2bdsGX19fFBcXs94/QX758mWLyoWHh8PT0xOlpaVSufYULYvAh0dM4PP69Wu4u7sjJyeH7/NSAh/2IvCRvgh8Wp/kBT7x8fFwdXWFk5MTnJ2dm9nS0hJr165FSUkJd52qqiocPnwYpqamcHR0hLOzM3bt2oVx48ZhxIgR+PHHH/HDDz9g+PDhGDlyJNatWwc7Ozu++cLs5OQkcN8+tIODA44ePYqysjKJHOOHDx/C0tISRUVFqK6ulrjLyspga2uL9PR0vH37Vua/izt37uD06dMEPq1N0gafuro6xMbGcicx/VD19fU4d+4cOBwOgU8LReAjfRH4tD7JC3zKy8vx4MED5OXl8XVKSgr279/fpDNtVVUVLCwsuL+zvLw8GBkZ4eDBg9i4cSN69uyJTz/9FAsXLoSWlhZ0dXWRmpoqcBtM/vfff1mVv3r1qsCuCWyPcVFREWxsbPD06VPU19dL3G/evIGDgwOysrLw7t07Ah8pZxH48CgzMxOmpqaoqKjgm5eUlAR3d/dmE/w1Kjc3l8CHhQh8pC8Cn9YneYFPY1lBfvnyJYyMjPDs2TNu+aqqKtja2uL+/fvcG7azszO0tbWhq6uL9evXY8OGDVBWVoajoyO3FYZpO4JcX1/PqnxjnyVJHOPi4mKoq6vD3t4e7u7uzezm5sZ3eUvt6uqKFStWwMfHh+9bxcLOrbgi8GmlksRBefPmDQIDA1FTUyMS+Dx58oQedbEQgY/0ReDT+iRP8GFSaWkpjhw5IhB8GrsAODk5Yfbs2TA2NoaPjw9cXFywadMmODs7izUwItvjcvPmTYmBz+vXr+Hm5gZra2u+trKyEvhZS2xlZQUTExMkJCQIvP9I4nsIEoFPK5WkDkpkZCRqa2sJfAh82oQIfFqfWjv4ODs7Y9q0adDS0kJBQQGCg4OxYcOGVg0+dXV1eP78OR4/fszXxcXFKC4uFvi5MBcXF6OkpARVVVXcFquWiMBHNBH4fCBFBp/hw4dj1apVOHjwILp3745+/frBysoKW7duRdeuXbFkyRIcO3YMP/74I/r06QNzc3Ps2rULXbt2xbx583D8+HEMHz4cXbp0gYqKCnbv3o3u3btj4MCBMDU1xYgRI9C5c2eYmpri9evXePfuHd69e4dTp04R+LRSEfi0PrV28HFycsKsWbOgra2NoqIihIaGYuPGjdi1axeCgoJE2jbv92ipBIFPfX09SktL8ezZM4n56dOnMs97+vQpXrx40eLBCZlE4NNK1R7AZ9iwYRgxYgSmTJmCzp074/PPP8fSpUsxZcoUdO/eHb/++itWrFiBgQMHomfPnvjjjz8wffp0dO/eHSNGjMCqVavwzTffoGvXrpg4cSJmzpyJHj16oF+/fpg8eTL69OmDrl27YunSpbCysoK9vT3s7e2xcuVKhISEEPi0QhH4tD61dvA5duwY9u7di0uXLnEfda1btw7z5s1DcnKyyIPkSQp8Kisr4e3tDQ6Hg7S0NIk4NTVVYlktzeNwODhz5ozAN9fYiMCnlaqtg8/9+/ehqqqKZcuW4a+//sLChQuxdOlSeHh4IDY2FlFRUYiLi0NiYiJiYmIQFRWFO3fuICEhAVFRUbh16xaSkpIQGxuLyMhI3L59m/tZdHQ04uLiEBkZicjISNy5cweZmZnIyspCdnY2zMzMuMdFkiLwkb4IfFqfWjv4PHr0CEeOHIGpqSkXggYNGgR7e3uUlpaK/P0kBT6lpaUwNzdHQUEBKioqJOLy8nKJZbU079GjRzA3Nxc4ZQUbEfi0UknqoISEhKCoqKhZU2PjIE92dnZ4+PAh36bHu3fv4ubNm3wBQdz9q66uxr///oucnBxkZ2cjJycH0dHRcHNzQ2lpKfe1yLq6Or7/5vf/TK6rq+OW9/T0pEddrVQEPq1P0jrGhoaGiIuLQ0REhMA/3pjUUvCpr69HSkoK9u3bh2nTpmHUqFFYt24dMjIyxJoSgc21UllZiaioKL7g8/LlSxgbGzf5HuJKHr+LlszVVVlZ2aJjTuDTSiWpg3LmzBk4OTnBxcUFR48e5frYsWPQ0dHBqlWruK9lfmh7e3tER0dLpcWnMYPX+fn5Yv8V1RJR5+bWKwKf1idpHWNNTU0YGBjA29sbFRUVrHNaCj4AUFNTg9zcXMTFxeHWrVv4999/UV1dLdZ3Y3OtJCYmIjg4uN2DT2JiYovuDwQ+rVSSOijBwcHIzc1FXl4e8vPzmzggIACmpqbIyspq9ll+fj7y8vK4Y1RIa/949eDBA1hZWaGwsBCvX79GeXm5VOzm5oZr167hxYsXrF61FCYCH+mLwKf1SVrH2MDAAKGhoQgNDZVqi0+jeFuYJfWHX0vLlZaWIjIyst2DT2lpqcCuG7wi8GmlktRBCQgIQElJCerq6pq1sCQmJsLNzY07wJQgS3P/eFVQUIA1a9bAzMwM+vr60NTUxK5duyTuOXPm4K+//oK6ujqCgoIkBg4EPtIXgU/rkzT7+GRlZUm9j8+H25WU2OQ1NAgewLC9gE9LcwACn1YrSR0UKysr+Pn58Z2WIikpCaampnj58iXr7Umj4i4sLMTkyZPh5uaGv//+Gz///DOmT5+OcePGoV+/fhg8eDCmTp2KIUOGoF+/fhgzZgxmzJiBn376CSNGjMD06dMxdepUDB48GD/++CMmTJiAYcOGYfjw4Zg+fTp+//13DBo0CGPHjsWUKVMwePBgmJubCxwbg60IfKQvAp/WJ2kdYz09Pfj7++PatWsyafGR97UnqHNzewKflorAp5VKUgdFT08PHh4efP8iSk5Oxpw5c5Cens567ARpgc+4ceNw5coVrFy5EhoaGoiLi4ObmxsGDBiABQsW4Nq1a1i6dCn+3//7f7C3tweHw8GOHTtw4MABxMXFITQ0FPPnz8fmzZtx9uxZ7Ny5E7t370ZcXBzCw8Mxd+5cXLlyBbGxsZg/fz5MTExE6h/ATwQ+0pe8bz6SyiPwET9PW1sb1tbW8PX1FemPFwIfwSLw4S8CHylLUgfl0KFDAl9ZT0lJwahRo5CQkKBQ4HP16lWsWrUKxsbGqKioQGhoKAYNGoQ1a9YgPz8fmzZtwn/+8x/4+fmhpqYGR44cgbOzMyoqKlBcXIxVq1ZBX18f8fHxMDMzg42NDcrLy/HkyRMoKysjOzsbpaWlWLVqFXcuM0mIwEf6kvfNR1J5BD7i5xkaGiImJgbh4eHU4kPg00QEPq1UsgCfoqIibNiwAUlJSaxfy5QF+JiYmKCyshJhYWEYNGgQVFRU8ODBA6iqquI///kP/P39UVtbC2NjY7i4uKCqqgqPHz/GqlWrYGBg0AR8Kisr8fTpUygrKyMnJwdlZWVYvXo1gU8rk7xvPpLKI/ARP6899fEBCHzYiMCnlUpSB8XMzAweHh58wae6uhrW1tZITU0l8JGACHykL3nffCSVR+Ajfp6sBjD8cLuSEoFPUxH4iC4Cnw/k5+eHU6dO8QWft2/fwtLSEpcvX2Z98yTwaS4CH+lL3jcfSeUR+IifR+DzPxH4NBeBTyuVpA5KbGwsTp8+zRd83r17B0NDQ2hoaOD169dy2T9eEfgIzyPwIfBpbSLw4S8Cn6Yi8BFdBD4f6NatW4zgY2BggDVr1uDVq1dy2T9eEfgIzyPwIfBpbSLw4S8Cn6Yi8BFdBD4fiMCHwKctSd43H0nlEfiIn0fg8z8R+DQXgU8rFYEPgQ+BT3PJ++YjqTwCH/HzCHz+JwKf5iLwaaWSFfgYGRnh/7N35lFRnXn+7vl1zyTdZ86c7jlJdyfdmcQxnb1Na4zGXdwQV0R2WVVEFBVQNllllR2rWAUERfYdBARkl1UEFHCBAkEQyoVdiIDw+f2RWENR+6ZF8T7nfM8J9V4+VXVf874P97733pMnT+LFixcCvScRH1aI+Eiedz35iCuPiI/oeUR8foGIDytEfOYpb0N8JicnQaVSERERgUePHmF6evqtf77ZEPHhnUfEh4jPfIOID3uI+DBDxEd4iPjMgZf4hIaGIjk5me3/6G/j882GiA/vPCI+RHzmG0R82EPEhxkiPsJDxGcOFRUViIqK4io+KSkpRHzEABEfyfOuJx9x5RHxET2PiM8vEPFhhYjPPEVcO6W8vBwGBgZ4/PgxSyY54kPEZ77xricfceUR8RE9j4jPLxDxYYWIzzxFnOKzdu1atLS0sKzhmZycRFBQENLT0xkP+puamuKrJicn+d6W33r06BF+/PFHxtPZXVxcMDw8zHhI6YEDB9De3s70kNLx8XE4OTmBSqViZGQE3d3d0NDQgJ2dHSorK+Hm5gZvb28MDw+jt7cXampqaGlpwcDAADQ0NODq6orh4WGxfH5xFQDFigAAIABJREFU7xN2eUVFRXj48CERn3meR8RH9DwiPr9AxIcVIj7zFHGKz/Lly3H37l2W/5Gnpqbg7++PU6dOQVNTE+7u7nB0dASFQkFAQADXolKpLK+5u7vDzc2NbRs/5eHhgWXLluHo0aNYvnw5du/eDV9fX5w8eRL//d//jR9//BEuLi5YvXo1/vjHP+Lo0aOgUCjYuXMnVFVV4efnB3d3dyxfvhzy8vI4c+YMdu/eDUVFRXh7e8Pd3R3Lli2DnZ0dvL29sXz5cuzatQve3t6gUCgi14ULF8SSwy3vxIkTsLGxwZkzZ+Dv70/EZ57mEfERPY+Izy8Q8WGFiM885W2Iz/T0NMrLy3Hs2DFoamrC29sbhoaGiIuLQ3JyMtdKSkpi+jk1NRUODg6wsbFBfHw8z9/nVEePHoW9vT3Wrl0LTU1NxMbG4ty5c/jzn/+M9evXIywsDJs3b8YHH3wAW1tbJCQkQF1dHQYGBoiLi8OlS5ewbt06KCkpIS4uDqamprCwsEBdXR3Ky8uhoKCA7Oxs1NbWYteuXTAxMUFdXR2am5tFrqamJrHkcMuLiopCTk4OHB0dyRGfeZxHxEf0PCI+v0DEhxUiPvOUtyE+ANDd3Y3Dhw/D09MTYWFhuHDhAqKjoxETE8O1rl69yvJacHAwgoKC+Pp9TnX06FFYWVlh9erVUFFRwaVLl3D27Fl88MEHWLNmDahUKuTk5PD73/8empqaiIqKwv79+6Grq4vIyEgEBgZi9erV2LlzJ8rKyhinukZGRtDX18c41dXf389YRzQ8PIzp6WmR6/Xr13j9+rVYsjjlFRcX4+HDh3B3dyfiM4/ziPiInkfE5xeI+LBCxGeeIq6d0tDQgO3bt6O5uZmt+PT29sLGxgY0Gg29vb3o6+vjqwTZVpCiUChITEzEvn37YGVlhfb2diQmJuJ//ud/oKysjNraWmhqauL999+HsbExaDQaLC0t4ebmhvb2djQ2NkJJSQmmpqaoqqoii5tljHc9+Ygrj4iP6HniFJ+ZmRnMzMxgbGwMPj4+RHyI+LCFiI+EEddOGRwchL29PR48eMBRfFxcXASe/CU1cF+5cgWFhYU8r+p6//33YWlpidHRUXJVFxGfeZdHxEf0PFHFZ3BwEJaWlsjKykJJSQlKSkqQn58PMzMztuPlu/63R8SHf4j4zFPEtVNevXoFX19fPHz4kIgPEZ95z7uefMSVR8RH9DwnJydUV1ejqKiI7X3KeDE4OAgrKyv4+voiISEBGRkZSElJgbGxMe7fv0/ER4wQ8ZFsFhGfOcxn8XF2dsbAwADy8vKwaNEiaGpqgkajQV9fH++//z7OnDmDwcFBnDt3DhQKBYODg+jq6oK6ujpsbW1RUVEBV1dXeHp6YmBgAN3d3VBVVUVTUxOeP38OdXV1Ij7zjHc9+Ygrj4iP6HmmpqZwdHREXFycUP8PDwwMwNXVFSkpKbh//z56e3vR3d0NNzc3tLa2EvERI0R8JJtFxGcO81l8jh8/jrKyMgQFBeHjjz+GgoICcnJysHfvXrz33nvQ0dHBzZs3cfToUZibm6OsrAy5ubmQl5fHoUOHcPnyZRgbG8PExARlZWXIy8vDtm3bkJycjJKSEmzfvh2urq5EfOYR73ryEVceER/R82xtbZGSkoLs7GyhjvgMDQ3h1KlTsLW1BY1Gw+PHj9HU1AQPDw+yxoeID1uI+EgYIj6asLOzQ09PD9LT0/Hpp59CVVUVd+7cgba2Nt5//32cOnUKPT09sLGxgaenJ3p6enD//n0oKyvDwsICN27cgL29PVxcXNDT04OHDx9CSUkJNTU16OzshIqKCjniM89415OPuPKI+IieZ2ZmBicnJ6GP+AwODsLc3Bx+fn7o6urCy5cv8ejRI3h5eRHxIeLDFiI+EoaID1njQ8SHlXc9+Ygrj4iP6Hl2dnbIyMhATk6OUEd83pzqysrKQl9fH6anpzE8PEyu6gIRH04Q8ZEwRHyI+BDxYeVdTz7iyiPiI3qeq6sr7t69i7KyMqEvZ/fw8EBBQQHodDqmp6fJfXx+hYgPe4j4SBgiPkR8iPiw8q4nH3HlEfERPU8c9/Eh4sMeIj7sIeIjYYj4EPEh4sPKu558xJVHxEf0PCI+v0DEhxUiPvMUcYqPm5sbCgoKMDExwdJOxIeIz3ziXU8+4soj4iN6HhGfXyDiwwoRn3mKOMXH2toatra2bCf43t5euLu7Y3h4+J18vrkQ8eGeR8SHiM98g4gPe4j4MEPER3iI+MxhYmIC5ubmOHr0KFu5GR0dRWpqKp4+fSrQexLxYYWIj+R515OPuPKI+IieR8TnF4j4sELEZ54ibvExNDRkKz7T09O4desWOjs72a4BkvTnmwsRH+55RHyI+Mw3iPiwR9zi8+aPV3HU9PS02LL4zXvx4gURHyEh4jMHXuIDAHfu3EFHRwcRHxEh4iN53vXkI648Ij6i5xHx+YWBgQGcPn0a4eHhiI2NFUvFxMSILYvfvNDQUBgZGaG3t1fkfUvEZ54irp0yPT2NgoICnD17luMET8SHiM984V1PPuLKI+Ijeh4Rn1+YmJhAVVUVbt68Oa+rpKQExcXFQt2Mci5EfOYp4twpjx494vpMKiI+RHzmC+968hFXHhEf0fOI+PxfzqtXrzA2Nia2evny5TvJGx8fF8t+JuIzTxHnTnnzxGEiPkR85jvvevIRVx4RH9HzRBWfwcFBnD59Gk5OTggLC0NMTAyioqJgaGiI+/fvzxvxESaLF/P9/wsiPvMUIj5EfIj4sEIG+PmHNIuPubk5UlJScOPGDRQVFSE3NxempqZ48OCBTIvPzMwMJicnMTk5iampKZbi1sZPvfn9N5+LiI9ks4j4sIGIDxEfWeFdTz7iyiPiI3qeOE51OTo6orOzE6OjoxgdHcWzZ8/g4eGB1tZWmRaf0dFRXLlyBZ6enjh//jxLubu7s32d33J3d8eFCxfQ2tqKqakpIj4SziLiwwYiPkR8ZIV3PfmIK4+Ij+h54hAfZ2dnPHv2jHFJ9djYGOPp7G8mbEEuyRakBM0rLy8Xm/jQ6XRYW1sjNDQUly9fZqmoqCi2r/Nbly5dgrGxMW7evIlXr14R8ZFwFhEfNhDxkV7x4WdgnA0Rn3cnKrxK0LyFgrSKz+DgIM6cOYOrV68iLS0NaWlpSEhIgK6uLoKDg5GSksJ4PS0tDampqUw/i1qC5KWkpCAkJASDg4Nc9wm/9PT0wN3dHa2trejv78eLFy/EWk+ePIGHhwcaGxuZTnnxgoiPcBDxYQMRH+kUn4GBAfj6+oJKpSIwMJCpgoKC4OPjg8bGRkxNTTF+h4jP2xef6elpdHV14dKlSyz9FBgYCAqFgoyMDPT392N6elps7ysrSLP4WFhYICsrC8XFxSgqKsKNGzeQlJSEvLw8JCcnIy4ujrH+p7CwEEVFRWIrQfJu3LiBsrIyjt9TGPHx8fHB8+fPxZI3l59//hlUKhX37t0jp7reQhYRHzYQ8ZFO8ens7IS9vT0qKirQ0NDAVI2NjQgMDMT169eZxIaIz9sXn/HxcURFRaGsrAz19fUsfdXQ0ID4+HiUl5fj559/Ftv7ygrSKj6z1/iMjIywVFNTE2pra9Hf34+RkREMDw+z3U7YEjTv5cuXHMVa0H1Mo9FgY2OD2tpatLW1sVRraytaW1vZtvFTLS0tsLW1Jae63lIWER82dHd3w8HBAf39/Wxzifi8G/Fpb2+Hl5cXBgYGWK6KeP36NZKTk5GTk8M0mRLxefviMzo6Cg8PD3R2dnK80iUzMxPXrl3j++ZrRHxEzxPnGh92dHZ2IiwsDElJSW/tVFd8fDySk5MRHx8v0PsJ+tl8fX2xbds2KCkpQVVVVeylrKyMNWvWwNjYGHFxcWL/HomJiUhISEBqaipSUlLQ2tqKyclJRt8R8ZmniHOn9Pb2QkNDAxUVFUynTd4greLj4uKCkZERFBQUYNGiRdDS0kJ7ezuT+AwPD8PJyQlUKhWjo6Po6emBpqYm7O3tUVVVBTc3N3h7e2NkZAR9fX1QV1fHvXv3MDAwAE1NzXcuPj4+PhgZGWHbnpaWRsRnDu9KfNzd3dHd3c3xL+6srCxkZmYS8WHDfBWfR48eITo6Gjk5OSgoKEB+fj4KCgrEVuzyrK2tERAQgNOnTyMtLU2kLG7bXrt2DbGxsbh69Srbio6O5tjGb0VHRyM5ORnXr1/n+/Pxu52/vz88PT1x7do1XLhwAdnZ2UwLv4n4zFPEuVP6+vqwZcsWJCUlYWJigqX9/v37uHXrFuOQpCSuSOD3+8wWH1VVVeTl5SE0NBQff/wxduzYgby8POzbtw/vvfce9PT0UF1djWPHjsHKygqVlZUoKCiAgoICDAwMcPXqVZw8eRJmZmaoqKhAYWEh5OXlkZ6ejoqKCigoKDDuaC3odxHHPnkjPsPDw2zbZ4vPm9dKSkqI+LzlPCI+ojFfxaejowO1tbV4/vw5hoeHMTQ0hOHhYbEVuzwvLy9kZ2fDyckJHR0dImXxKnGetuN1So/fz8fvdmlpaYiNjcWTJ0+QmpqK9PR0pj9gifjMU8QtPhs3bkRsbCzbSfLx48ewsrIChUJBaGgoLl68yLNCQ0P53vbixYsICgqCl5cXPD09uZaKigoOHz6Mf/3rX/joo4+gpaUFFRUV/PGPf8TKlSthY2OD9evX44MPPsC2bdvg4uKCnTt3Yv/+/XBycoKtrS1WrVoFeXl5nDx5Env27IGioiLOnTsHOzs7/PTTTzA3N8e5c+ewevVqqKmpgUql8v09xLlPXF1dsX//fly4cIFt+9GjR3HixAkEBgYyXrO0tISzszPs7OyI+LylPCI+osHPdxXmD4w34lNWVoaxsTGB/1DhR3xaWloYfyy+jX97VCoVJSUl8PLy4rjwmN8sUXhXefxul5+fj/T0dIyMjOD69evIzMwk4iMLvE3xefLkCc6ePYvi4mLU1dXxVbdu3eJ729u3b+PSpUvYv38/Dh06hCNHjnAsLS0t6OrqQkVFBXv37oW2tjZ0dHSwcuVKREZGoqqqCkVFRcjJyUFxcTFu3bqFkpISlJaW4tatW6ipqUFhYSGKi4tRWVnJaKutrWW0VVdXo7a2FoWFhYzf4/e7iGuf1NXVITMzE6ampigrK2Npq6+vh7e3NygUCiorKxmvV1VVobq6Gk1NTQgLCyPi8xbyiPiIBj/ftbW1Ffn5+bh+/TrPys3NxfXr16Grq4uLFy/C29sbGRkZfP3u7EpJSYGWlhbq6urYLgEg4vP284j4CAcRHzY8ffoU27ZtQ1xcHEfxcXZ2xoMHD/DkyRP09vbyLE7b9fT0oKurC48fP2Zs09fXh/T0dHh4eKCwsJDvp/X6+/vDzMwMRUVFMDc3R0VFBXp6ehiZ/HzOt1n87rs3VVtbi7Nnz6KxsRE0Go3pqggajYbg4GDExsbi0aNHLL/79OlThIaGoqKigu3pS1nlXYmPt7c3WltbOZ4ieHNakogPK/x818jISERFRSEjI4MhkTExMYiMjERERARThYeHIyIiAmZmZjh+/DhOnTqFw4cPIygoiGm72NhYZGZmIisri5F55coVRntQUBDk5ORApVLR1dWF58+f49mzZ6DT6Xjx4gXq6urQ3NxMxOct5hHxEQ4iPmwYGxuDo6MjEhMTOYqPnZ0dKisr0dTUhObmZp7FabuysjI4ODggJCQEDQ0NTK8XFhbi7t27fOU3NzcjLy8PSUlJuHPnDrKzs1FTU8P353sXJehnKykpgbq6Oo4cOQIjIyOW0tDQwKVLl5j249z909XVxfavVVnlXQzIExMTKCwsRHh4OMdTnOHh4bh37x7TlSWivq+swM939fDwgK2tLVxdXeHj4wNvb29oaGhAQUEBmpqa0NHRYdSbo8BqamrYuXMnNm7ciHXr1jFtp66ujsOHD8PLywt+fn7w8/ODh4cHNDU1oaWlBR0dHRw4cAC7du1CQkICGhsb0dzcjIaGBlAoFCQlJcHW1pbpmV1EfCSfx89209PTSEpKQlJSEhGfXyHiw4bp6WmkpqYiOTmZo/i4u7ujs7OT70VvnLZrbm7GwYMH4evri6dPn7IscBNkUdzg4CAGBgYwMjLCWPT2thbkvY37crx48QI3b95ESUkJ2yotLUVnZyfH/TY0NCTQXVFlgXcxIM/MzGBoaAjNzc1obGxkqYaGBrS2tmJ8fJzcwJAN/HxXb29vpKSkICoqCjU1NaisrISioiI2bNiAuLg4lJSUoKysDGVlZSgtLWWIaHp6OqysrBASEoLCwkLGNpcvX4adnR1u3ryJO3fu4M6dOygqKsLp06eRnp6O0tJSlJaWoqqqCs+fP2f8P/Xs2TOYm5tDS0sLampq6OzsZHx+Ij6Sz+Nnu/HxcRgZGSE8PBzDw8NEfEDEhyO5ublcxcfb2xvPnz8X+R9oR0cHDh8+DCqVyvdhf1lB0D6bmZlhepIxu+JnIiWTqOTzePWVoEcFSJ8x4+/vj/r6ehQUFGB4eBj9/f04cOAAFBQUcO/ePUxMTDD29dDQEAoLCxEUFITy8nIEBwejoqICL1++ZGzT0NCA4OBgPHv2jPFad3c3fH190dXVxcibe1fh8fFxnDlzBsrKytDX10dPTw8Rn7eYx++p57179yIoKIiIz68Q8eEAER/JI82DhaywkAZ4WYFf8XlzVGZsbAzDw8PQ1tbGjh070NraiunpaQwODiIlJQWnT5+GlZUVPDw8cO/ePYSFhaGmpoZprVtTUxMuXrzINPH19fXhwoULePLkCcfP9EZ8dHR0cPz4cfT29ookPu3t7bh9+zbfF0NYW1ujsLCQiA8XRkZGsHv3bgQGBhLx+RUiPhwg4iN5pHmwkBUW0gAvK4hLfOrq6qCjo4OffvoJa9euRWpqKoaGhhAREYHq6mqxis/GjRuxf/9+PH78WCTxSUlJQXx8PGNNyuxKTExk+plCoWDbtm24fv06ER8uEPFhhYgPB4j4SB5pHixkhYU0wMsK4hKf4uJiyMvLY8mSJTA0NMSjR48wOTkpEfFRU1PD4cOHmbYVps/y8/PR0dGBvr4+npWRkYGNGzcS8eEBER9WiPhwgIiP5JHmwUJWWEgDvKwgLvGpr6+HgYEBNDQ0cPXqVYyOjuL169cSEZ83N1IVVXzKy8s5joNz80pLS7FlyxYiPjwg4sMKER8OEPGRPNI8WMgKC2mAlxXEJT50Oh1OTk6ws7NDfX09Y1G5JMTnzW0miPi83TwiPsJBxIcDRHwkjzQPFrLCQhrgZQVxiU9LSwscHBwQFRWF/v5+zMzMSEx8tmzZAlVVVXR3dxPxeYt5RHyEg4gPB4j4SB5pHixkhYU0wMsKoojP5s2bUVpaikePHqGqqgphYWEoKSlBe3s7Ojs78ejRI3h6eiIzMxOtra3o7u7Gq1evcPfuXZHEZ//+/Th48KDIl7MT8REsj4iPcBDx4UBmZiY8PT0xMjLC0vb06VNQqVRUVVWhubkZLS0tPIvTdrm5udDT0yPi8xbzyCQ6//JInzHDSXy+/PJLKCntx/HjJ2BhYYGysjIkJyfD2toaoaGhuHLlCiwsLHDs2DE4ODjAwMAADx8+RGNjo0jio62tjWPHjpFTXW85j4iPcBDx4UBGRgasrKzY/kN49eoVYmJi4Ofnh9jYWMTFxQldYWFhOH/+PAIDA4n4vKU8MonOvzzSZ8xwEp8vvvgCy5b9gI0bt2DNmrXw8vLC8ePHsWLFCqiqqkJXVxe7d+/Gjz/+iI0bN2LRokU4d+4cHB0d4e7ujv7+fsZ7CCI+mzZtgrKyMjnV9ZbziPgIBxEfDmRmZsLCwoLjP4SkpCQcOXIE9vb2cHR05Fh2dnY4dOgQrK2tcfr0aTg4ODC129vbw8LCApGRkRgfHxfrd5B2pHmwkBUW0gAvK4giPitWrICKigpWrlyFHTt24vLly7C2tsbatWuhoqICAwMDeHt7Q0VFBQoKCli0aBE8PT3h5eUFDw8PocVHUVERurq6Ip/qSkpKQlFRESoqKliqqqqK8XiOiooKBAYGYtWqVcjNzSXiwwUiPqwQ8eEAL/FJSEhAeHg46urqGM+2YVeVlZU4ceIEcnNzERMTg/r6epZt6uvr0dXVxbiN/0JBmgcLWWEhDfCygijiIycnh0uXLsHZ2QXJycloaWlBcnIy9PX18fXXX+PEiRMoKCiAubk5dHV18c033yA1NRXp6emgUCjv/AaGbm5uOHnyJExMTJjK1NQUurq6UFBQwLFjx2BiYgIDAwOsXr2aiA8PiPiwQsSHA9evX4ednR3Hfwjx8fHIy8vD+Pg4Xr9+zbH6+/thZ2eHBw8e4ObNmxy35/dhjbKENA8WssJCGuBlBVHER0FBAZWVlaivr8fDhw/R0dGB5uZmhISEYNGiRXByckJtbS38/f1x8uRJ/Otf/0JlZSVqamoQGhr6zhc3p6eno7a2Fnfu3MHdu3eZytvbG8uXL0dqaioaGxtx9+5d2NjYoKioiIgPF4j4sELEhwPt7e1ISEhgu7gZ+EV8CgoKmC4JZcfQ0BAcHBzQ2tqKyspKntsvJKR5sJAVFtIALyuIIj67du1CQEAA9PX1YWxsDCsrKzg4OCAsLAy7d++Gt7c3TExMEBISgtOnT2Pp0qWoq6tDQ0ODSIubN2/eDBUVFYmu8UlISMAXX3wBHx8fvHjxAjMzM+QhpUR8hIKIDweGh4dRWlqKly9fss0m4iM60jxYyAoLaYCXFUQRn927d+PMmTP4+OOPsWHDBujp6eHYsWNQVFTEt99+i6+//hqfffYZKBSKWMVnw4YN2Ldvn8inuniJz+LFi7Fz505cu3YN4+PjRHyI+AgFER8OjI6O4ubNmyKLz8TEBLKysnDt2jVcvXoVPT09C/K0FjukebCQFRbSAC8riCI+e/bsgYmJCf74xz9ix44dsLa2houLCz755BO899572LZtG9zc3BAUFAQzMzMsW7ZMLOKzb98+6OnpSfQ+PgkJCfjb3/6Gv//97wgICMDIyAgRHyI+QkHEhwPiEp+ZmRncu3cPAQEB8PDwQEtLy4JbxMwJaR4sZIWFNMDLCuISH0VFRTg7O8PPzw8ffPABfvOb38DMzAwNDQ3w9fWFiYmJ2MRn06ZNb+VU11/+8hd89913KC4uxsTEBBEfIj5CQcSHA+ISHwCg0Wjw8fGBs7Mz7t69S8TnV6R5sJAVFtIALyuIS3x27twJGxsbuLu7Y9GiRfj973+Pc+fOgUajISAgAKampmITn71794rlcnZe4rN06VKmR3AQ8SHiIwxEfDhAxEfySPNgISsspAFeVhCX+CxatAgrV67E1q1bYWxsjB07diArKwsDAwOor6+HlZWV2Nb4rF+/XixrfDIyMlBfX4979+4x1YMHD+Dr64vly5cjJycHzc3NePDgARwdHclVXTwg4sMKER8OEPGRPNI8WMgKC2mAlxXEJT7//u//jvfffx8fffQRwsLCYG5ujubmZkxOTmJ0dBS2trZiEx9lZWWxXM4eFhaGiIgIXLlyhamio6Nx/Phx/OMf/8D58+cRFRWF8+fPY8uWLcjLyyPiwwUiPqwQ8eEAER/JI82DhaywkAZ4WUFU8bGwsMBnn32GP/3pT/jTn/6ERYsWITAwEMePH0dTUxPGx8fR09MDGxsbsYmPuB5ZkZubi4cPH6Krq4upHj9+jMDAQHz55Zc4duwY8vLyEBsbi/Xr15NHVvCAiA8rRHw4QMRH8kjzYCErLKQBXlYQRXx27dqFvLw8ZGZmIi0tDWlpaUhJScHJkyfx5ZdfIjg4GF1dXbh8+TJOnz4t1sXNkn5WV0JCAj777DN8++23oFKpyMrKIs/qIuIjFER8OMBLfDIzM5Gdnc3Xg0WJ+LBHmgcLWWEhDfCyAj/f1cPDA+fOnUNQUBCGh4cZ4rNz507U1dWhr48OOp2O0dFRdHZ2wtzcHF999RViYmLw6NEjeHp6ivWqrr1790JHR0fii5s/+ugj/Od//ifc3d2RmZlJxIeIj1AQ8eHAy5cvceXKFXR3d7O9705fXx+CgoI4ts+GiA97pHmwkBUW0gAvK/DzXb29vREbG4v4+HiMjo4y3cCQSg2Aq+t5+Pv7o7u7G15eXti7dy8++ugj+Pv7g0ajiV18xPXICl7i8/nnn0NPTw+1tbUoKCiQOfEZGxtDeXk5srKy+KrMzEye26SkpEBRUREUCgVDQ0NEfEDEhyNjY2M4c+YMqqurMTU1xdI+PT0Nd3d3tLW1EfEREjKJSh5pHeAFzSN9xoyvry/KysqQk5ODly9fsqzx2S6/E7q6uqDRaDAxMcGaNWvwhz/8Aba2tnj48KHYxUdbWxvHjh1j2lbc4pOamopt27YxnnlYUlIic+LT3d2Nw4cPY9WqVVi3bh02bNjAtdavX8+1fc2aNVi5ciW+/PJLGBgYgE6nE/EBER+OjI2NwdDQEMXFxZicnGS7jaurKxEfESCTqOSR1gFe0DzSZ8ycP38etra2oFKpGBoaYjri4+LiAuX9ajhz+gw6OzthZmYGOTk5/OEPf4C1tbVExEdOTg5KSkoSfWTFgwcPkJiYiMHBQczMzKC0tFTmxIdGo+HMmTPYsWMH7OzsQKFQEBAQwLGoVCrX9tOnT0NPTw8HDx6Enp4enjx5QsQHRHw4QsRH8pBJVPJI6wAvaB7pM2Z8fHyQnp6OlJQUplNdu3btQmRkJCzMrRAeHg46nQ4bGxusWbMG77//vsTER0VFBYcOHRL5iM+NGzfw5MkTDA4OshSdTkdXVxf6+/sxODiI7OxsyMnJyZT4tLW1wd/fHydOnEBhYSHa2trQ0dHBsdrb27m2p6SkwN/fHwEBATAyMiLi8ytEfDgwOTkJe3t7lJSUiCw+L168QEhICCIjI5GRkYHR0dEFNZBzgkyikkdaB3hB80ifMcPpqq7ly5dDVVUNCtt3QlHhY7E+AAAgAElEQVRREVQqFcrKyli8eDH+8Ic/YM+ePfDy8oKqqirk5eXx6aefwsnJCc7OznB3d0d/fz/jPQQRHw0NDRgaGoosPh4eHjh+/DiOHTvGs/bt24dvvvkGOTk5MiM+NBoNBgYGWLFiBQ4cOAAjIyO+9gWn2r9/P7Zu3Yrt27dDU1OTiM+vEPHhwPT0NEJCQlBWViay+ExNTSEyMhLXrl3D+fPnQafTF9RAzgkyiUoeaR3gBc0jfcYMJ/FZunQp5OTksGrVWvz44wq4ublBS0sLf/rTn7Bx40YoKyvD0dERu3btwoYNG/D3v/8d5ubmMDc3h4uLi9Dis3v3bmhra4u8uDk2NhaamppQVFRkqb179zL9vHv3bqxatUqmjvjQaDRoamrim2++wdatW1m+M699Mrc2bNiA5cuXY+XKlVBTU0NPTw8RHxDx4ZoXGRmJ8vJykcUHAC5fvozr16/Dzs6O60CykCCTqOSR1gFe0DzSZ8ywEx8dHR18+umnUFVVhb29Pc6dO4eIiAj4+/vjzJkz8PT0hI+PD8LCwuDh4QFFRUV88cUX8PHxgY+PDzw8PIQWn127dkFLS0tk8eno6EBpaSmKiopYqrCwkOVnExMT3LhxQ2bEp62tDefPn8ehQ4eQlJSEqqoq1NTUcKzq6mqu7eHh4XB2dsb58+cZR+SI+BDx4ZpHxEeykElU8kjrAC9oHukzZjiJz7FjxxAVFYXCwkKUlJSgtLQUJSUlKC4uRklJCYqKihATE4OCggJERkbCz88Pzc3NKCkpQVBQkFQsbq6rq0NjYyPPysrKgpKSkkw9sqKtrQ1UKhUmJiYoLy9Hd3c3ent7OdaTJ0+4tmdlZSEoKAhhYWGMq+6I+BDx4ZpHxEeykElU8kjrAC9oHukzZtiJj66uLnJzc0Gn0xlXeg0PDzP9d39/PwoLC0Gn0/HixQs8f/4ck5OTuHv3rsj38dHX1xf5iE9xcTF6e3sxODiIoaEhpnqzyPnNz9evX8emTZtk7lSXnp4eli5dCiUlJejq6kJPT49j8WrfuXMn1q9fj40bN0JDQ4Oc6voVIj5c8oj4SBYyiUoeaR3gBc0jfcYMJ/GpqalhGa9m501NTaGyshLj4+NM2zQ1NUn95exz82Txcva2tjaYmppCXl4eZ8+ehZ+fHy5cuMCx/P394e/vz7HdxMQE2tra0NXVZdxZm4gPER+ueUR8JAuZRCWPtA7wguaRPmNG2sRHQUEBGhoaEn1W10IRn8DAQJw+fRqVlZWg0+l4/vw5x3r27BnX9pycHISGhiI8PJyc6poFER8ueUR8JAuZRCWPtA7wguaRPmNG2sRHXl4eampqRHxEpK2tDWfPnsW+ffvg6+uL2NhYJCQkcKz4+HjEx8dzbHdycoKxsTFOnjwJPT09csTnV4j4cMkj4iNZyCQqeaR1gBc0j/QZM9ImPjt37sSBAwck+qyuhSA+NBoNurq6+P7777F3715oa2tDR0eHY/Fq3759O9auXYsNGzZAXV2diM+vEPHhksdLfNzd3dHa2srXnZiJ+LBCJlHJI60DvKB5pM+YkVbxIUd8RKOtrQ3u7u7Q09NDbGwsSktLUV5ezrHKysq4toeEhMDBwQEuLi4wMDAgp7p+hYgPl7zIyEjk5eXh1atXbLdJTk5GUVERx/bZEPFhhUyikkdaB3hB80ifMSNt4iMnJ4f9+/eTxc0i0tbWhoCAAJiZmaGyshK9vb14+vQpx6LT6Vzbs7OzERISgoiICLLGZxZEfLjkRUdH4/Tp0+jr62Ob39DQgIiICIyMjPDMi46ORl5eHhwcHNDT08PX6TFZh0yikkdaB3hB80ifMcNJfKKjo1FTU4Nbt26hqqoKlZWVqKioQGVlJSorK1FeXs54ovtsRBUfJSUlxhoSUcQnKSkJxcXFjM87u2Z/j8rKSgQHB2P16tXIzc2VGfGh0Wg4dOgQli9fDjU1NRgYGODIkSNCl6KiIjZt2oStW7eSy9lnQcSHS15MTAx27dqFjo4OtqJy//59BAQEYHh4mGdeZWUlysrKcPHiRdTV1WFqakqsn3c+QiZRySOtA7ygeaTPmOEkPm5uboiMjERISAj27NmDH3/8EcuWLcMPP/yAH374AcuXL4eLiwva29vx7NkzRpWWliIwMFBo8dm0aROUlZVFPtXl5OQEFRUVKCkpYf/+/UylpKTE9Lq8vDy+++47mXpWV1tbG06dOoUtW7bA3Nwcnp6e8PLyErqOHz8OTU1NHDhwgPFIESI+RHy45sXGxkJeXh40Gk1k8enp6UFlZSXS0tKQlZXF1+kxWYdMopJHWgd4QfNInzEzV3xGRkZw5swZ6OvrQ19fH1paWvjhhx/wj3/8A4sXL8bixYvx+eef4/PPP8fu3bthYmLCeEaXubk5DA0N4efnh8HBQcZ7CHo5u6ampsjiU19fj5ycHGRnZ7PUtWvXWF4zNjaWuUdWBAQEwNTUFOXl5Xjy5AnodDrH6uvr49qelZWF4OBgXLx4kZzqmgURHy554hSf58+fo6qqCllZWUhOTsbPP/8s1s87HyGTqOSR1gFe0DzSZ8zMFZ/JyUk0NDSguLgYhYWFuHHjBnJzc5kkIicnBzk5OcjLy8ONGzeYKj8/Hy0tLZiYmGC8hyDis2XLFqioqIgsPjQaDRkZGUhOTkZKSgpTsXvtyJEjKCgokCnxsbe3h6qqKoKCgpCeno7MzEyOlZGRwbXdw8MDZmZmMDc3x8GDB4n4/AoRHy55bW1tMDQ0JOIjIcgkKnmkdYAXNI/0GTNzxQf4ZeHyxMQES7169Yrt63NramqK6b0FER9lZWUcOnSIaVth+iw1NRVbt26FmpoatLS0mOrAgQM4cOAA4+d9+/Zh+fLlMrfGR0dHB0uWLMGePXugqanJsh+47ZO5JS8vjzVr1mDdunXkcvZZEPHhkjc1NQV7e3u0t7cT8ZEAZBKVPNI6wAuaR/qMmQsXLjDEZ+5CZWHy2CGI+GhrazNOpYgiPpGRkVizZg0SEhJ4Pp39woUL+Omnn2RKfNra2uDi4gIdHR1cuXIFN27cYPukek77ZG4FBATA1tYWjo6O5HL2WRDx4ZF37tw5sSxuJuLDCplEJY+0DvCC5pE+YyY7OxsFBQXIyclBa2sr14sl3ob4yMvLQ11dXeRTXZGRkdi2bRs6OjowOTnJtYqKirB582aZu5z9zSMrqqureT6yglfl5uYiNDQUkZGROH78OBGfXyHiwyOPiI/kIJOo5JHWAV7QPNJnzLS3t8PHxwd+fn7Izs7meO8bfvPYIYj4KCoqQldXV+TL2SMjIyEvL4/Hjx+ztM3Nk8X7+NBoNBgYGGDlypXQ0tKCsbExTpw4wbF4tauoqGDbtm2MxefkVNcvEPHhkUfER3KQSVTySOsAL2ge6TNm6HQ6zM3NYWJigoSEBK6nu96G+KioqIhljQ8RHxpOnDgBOTk5mJqawtnZGa6urhzLxcWFa7uhoSFUVVUZa6aI+PwCER8eeUR8JAeZRCWPtA7wguaRPmOGTqfD09MTgYGBSElJeefi8+Zme0R8RKOtrQ1UKhUmJiYoLS1FV1cXenp6OFZ3dzfX9oyMDAQEBCAqKopxM14iPkR8eOYR8ZEcZBKVPNI6wAuaR/qMGTqdjoCAAMTHxyM9Pf2di8+2bdvE8nR2Ij5tcHBwgLq6OkJCQpCZmcn2nkbc7m00u7y8vGBubo7AwECcP38ez58/J+IDIj4884j4SA4yiUoeaR3gBc0jfcYMnU6Hs7Mzzp8/j+TkZIyOjuLVq1cYGxvDy5cvhapXr14xjXOCiM/WrVuhqqpKxEdEaDQajIyMsG7dOhgbG8Pe3h6Ojo4cy8HBgWv7wYMHsW/fPpibm8PV1ZWIz68Q8eGRJy7xGRgYQFlZGW7cuIGkpCSuixEXCmQSlTzSOsALmkf6jBk6nQ4fHx+EhYUhNTUVL168QEJCAhwcHHD27Fmmsra2ZnmN3TaZmZlMR44EEZ89e/YwHolAxEd42tra4OPjAyMjI2RnZ6O5uRn379/nWPfu3ePaHhsbCy8vL9TU1CAjIwPDw8NEfEDEh2ceN/Hp7e1FSEgIXw8dnZycREREBOrq6nDhwgWOmQsJMolKHmkd4AXNI33GzNxTXX19fTh+/Di+++47fPXVV/jyyy/x8ccf47PPPsOXX36Jr776ilEff/wx/vznP+PDDz/Ehx9+iNWrV0NLSwvnz58X+lld5FSX+MQnJCQEFhYWqK+vx+DgIEZGRjjW8PAw1/YbN27g0qVL6OnpQVFREUZHR4n4gIgPzzwHBwc8fPgQr1+/ZtlmYmICFy9eRH19Pc+Hjs7MzMDPzw93796Fu7s7Wlpa2GYuJMgkKnmkdYAXNI/0GTNzxae3txe6urqwsbFBYGAgvLy88M9//hNaWlrw9/dHSEgIQkJCEBAQgO+++w6/+93v8Jvf/Aa/+c1voKysjMuXL4NKpQotPrt27WJcNSSq+Gzbtg2tra0YHx9nqrGxMaaf8/LyICcnJ1PiQ6PRYGhoiJ9++gm6uro4ceIETp48KXSpqalh+/btMDIywrlz58iprl8h4sMjz9DQEFFRURgfH2e73cWLF1FVVYXJyUmeeUR8mCGTqOSR1gFe0DzSZ8xwEp/CwkLQ6XTk5eVh7dq1uHDhAnp6ejA0NIShoSE8ffoU8vLy+I//+A+G+Ojr66OgoAAXL14UWnzWr1+Pffv24fHjx3yJz9jYGG7fvo2qqipUVVWhpqYG1dXVsLGxweLFi6Gjo4Njx44xlZGREYyMjBg/7927F19//bVMPZ2dRqNBU1MTX331FTZv3ozdu3djz549HItX+7p167Bs2TLs2LEDpqamePr0KREfEPHhmaepqQlHR0emfySzIeIjPGQSlTzSOsALmkf6jBlO4lNTUwM6nY5Tp07hf//3fxESEsI0dr169Qq7du3Ce++9J1bxUVRUhJ6eHt9HfNra2uDt7Y24uDikpaXB3t4ekZGRMDExgY6ODuzs7ODk5MRUzs7OsLS0xOrVq2FmZoZDhw5hyZIlMvfICnd3d+jr6yM2NhZlZWW4efOm0BUaGgpHR0fk5eUhPj4eQ0NDRHxAxIdnnrq6OmxtbYn4SAAyiUoeaR3gBc0jfcYMJ/G5ceMGMjIysG3bNnzyySdvTXzePFiU3zU+jY2NoFKpePjwIfr6+nDu3DmUl5cjODgYCQkJoNFobO9LU1dXB0VFRWRmZiI+Ph4bNmyQqVNdbW1tcHZ2hra2Ni5fvizys7qoVCpsbW2RmZmJq1evYnBwkIgPiPjwzLOysiJHfCQEmUQlj7QO8ILmkT5jhp346OnpIS0tDWFhYZCTk8Pf/va3tyY+gj6rq6GhARERERgcHAQAeHt7o6WlBXFxcbhx4wbbpQUzMzPo7u7G9u3bcfToUYSHh8vkGh8VFRUsXrwYq1evxpYtW7B161aOxav9xx9/xHfffYcNGzbA2NgYdDqdiA+I+PDMy8vLw4ULFzjeIIyIj/CQSVTySOsAL2ge6TNmOIlPSUkJCgsLsWXLFnz88cdvTXwEXdwsivisWbMGS5cuxZ49e2TyVNfsR1a4uLjAzc2NY7m6unJtP3r0KFRVVWFnZwdPT0+8ePGCiA+I+PDMa2hoQEhICBEfCUAmUckjrQO8oHmkz5jhdKqrrKwMHR0dsLKywhdffAEqlYqnT58yblI4ODgIBQUFpsXN2trauHbtGkJCQoQWn+3bt0NDQ+OtHPFZv349li5dir/97W/4n//5H5la3NzW1gZ/f3+cOHEChYWFaGtrQ0dHB8dqb2/n2p6SkoLAwEC0trYiLy8PIyMjRHxAxIdnHhEfyUEmUckjrQO8oHmkz5hhJz46OjowNDSElZUVtLS08Omnn2LXrl2wsLCAjY0NrK2tYW1tjc8//xy//e1vGeKzZMkSaGlpwdnZGf39/Yz3EER8du/eLdANDEURn1WrVmHJkiVQUlLC999/L1NHfGg0Go4dO4Z169bB0NAQFhYWsLKy4liWlpZc27W1tWFkZITo6GhERERgYGCAiA+I+PDMI+IjOcgkKnmkdYAXNI/0GTOcjvj4+voiJSUFaWlpuHz5MuLi4pCamor09HQYGBggODgYy5YtY7qPz6ZNm+Ds7AwvLy+hxWfdunXYu3cv35eziyI+u3fvhr+/P65cuYKNGzfK1Bqf9vZ2qKur44svvsCGDRuwfft2KCgocCxe7atWrcLq1auhoaEBKysrPHv2jIgPiPjwzCPiIznIJCp5pHWAFzSP9BkznMSntLQUQ0NDjFNbIyMjePr0KZ4/fw47OzvU1dXB0tKS6X44ERERKCwsFOlU1/79+6Gvr/9WjvhoaWmhvr4ehYWF2Lx5s0yJz5ururS0tBAZGYm8vDwUFBRwrPz8fK7tFAoFNjY2yMrKQkxMDLmq61eI+PDIE6f4BAcHo76+Hn5+fkR8QCbRt4G0DvCC5pE+Y4bbfXxmj0VDQ0Pw8PBASkoKzMzM0NzcjGvXruHBgwfo7OxEZ2cnnj9/joaGBpEWN6urq+PIkSNM20pKfHR0dHDv3j0UFRXJ5CMrzM3NsWPHDjg6OoJKpSIwMJBjBQQEcG0/c+YMvLy80N7ejvz8fLLG51eI+PDIE6f4NDY2Mu7NwM9jLmQdMolKHmkd4AXNI33GDL/iQ6fTIScnByMjIxgaGqKlpQXl5eUsYtHU1CSS+CgpKQl0A0NRxEdJSQmpqanIzs6WuSM+NBoNu3fvxl//+lcsXrwY33zzDdf6+uuvubZ/9tlnWLVqFQ4ePAg7OztyqutXiPjwyBOn+AwPD8PR0REVFRWorKzk+TuyDplEJY+0DvCC5pE+Y4Zf8enr68Py5cvxySefQE5ODnV1dRIRnx07duDAgQNv5aquf/3rX1ixYgV8fX1lbo1PW1sbjh49irVr1+LIkSOwsrLC2bNnOZa1tTXXdh0dHezfvx82Njbw8PAgl7P/ChEfHnm8xCc+Pp4viZmZmcH4+DiOHDkCFxcXZGdn49WrV2L9zPMNMolKHmkd4AXNI33GjCDi88MPP+C3v/0tPvvsMyQlJaGkpETs4vM21/h8/vnn+N3vfod//vOf+OKLL2TucnY3Nzfo6+sjISEBFRUVqK6u5lhVVVVc20NDQ+Hn54f79+/j+vXr5FTXrxDx4ZHHS3wePXqEsrIyTExM8MwbGxuDpaUlcnJyUFpayvN3ZB0yiUoeaR3gBc0jfcaMoOLz9ddfY8uWLbh58ybKysrELj66uro4fvw4ent735r4fP/99/jyyy9lSnxoNBq0tbWxZMkS7Nq1C+rq6tDQ0OBYvNo3b94MQ0NDpKSk4MqVK2Rx868Q8eGR19DQABcXFwwMDLB9j9evX6OkpITn0Zs34uPs7IwHDx6gtraWnOoik6jEkdYBXtA80mfMCCM+O3bsQFNTk0ROdW3evBnKyspv5VTXkiVL8M9//hP29vZYu3atTJzqmpqaQn5+Pjw8PLBq1Sr8/e9/x/fff4+VK1dyrRUrVnBt//bbb7FixQqoqanB0tKSrPH5FSI+PPLu3LmDHTt24MGDB5ienma7LREf4SCTqOSRtgFe2DzSZ8zQ6XRQqVTExsYiLS2Nq/j8+OOP+Oabb7B582bcuXNHIuLD7ZEVMzMzmJ6eZqr6+nqEh4ejv78f09PT8PLyQnNzM2JiYpCfn4+XL1+y/M709DS6urqwe/duhIeHIy0tTWYWN//888+gUqm4cOECTE1NoaGhgbCwMGRlZSEnJ4djZWdnIzs7m2O7r68vLC0tyRGfORDx4ZF39+5dfP/997h9+zbHy8+J+AgHmUQlj7QN8MLmkT5jhk6nw8rKCubm5khISOAqPqtXr8bOnTuhpKSEu3fvSkR8tm7dClVVVbZHfKamplBXV4fExERER0fj6tWrcHV1hYGBAUJDQ3H16lVoaGjA398fpqamOHv2LCIiIhAdHc1UV69eBYVCwZo1a+Dm5oazZ89i+fLlMnHn5p9//hkUCgVpaWk4ffo09uzZAzc3N4SFhSEiIoJjhYeHc223sbFBQEAAnj17htLSUoyOjhLxAREfnnlNTU1YsmQJbt26JRbxOXfuHJqbm1kGqIUImUQlj7QN8MLmkT5jhk6nw87ODnZ2dkhMTOR5xOeTTz7BqlWrJLbGZ8+ePRwfWTE+Po68vDwYGBhAWVkZGhoaUFJSws6dO6GmpgZNTU1s3LgRhoaGOHnyJBQUFKCqqsp2zYqKigrk5OSgrKyMzZs3y8wanzdHfK5duwYFBQX89a9/xT/+8Q98++23ItWiRYsYSzVu3ryJly9fEvEBER+eeU+ePIGKigrq6uo43neHX/EZHx+HkZER/P39kZubSxY3k0lU4kjbAC9sHukzZuh0Ovz8/BAZGYnU1FS+rupavHgx0tPTUVpaKnbxUVBQ4PiQ0pcvX6KqqgoWFhZITExke6VSYmIivLy8QKFQEBQUhJKSEp5XMAUHB2P16tUyc8SHSqUiKysL+vr6WLlyJXR1dXHq1CmYmJhwLF7tKioq8PHxIeIzByI+PPImJibg4uLC9YaDghzxMTMzQ1xcHAoLC4n4kElU4kjbAC9sHukzZuh0OszNzXHy5EmmU11WVla4cOECqFQqqFQq3Nzc8Mknn+D//b//h48++ggnT57EqVOn4Ovry9iGSqXCysoKrq6uQj+ra+3atRyf1fXy5Uvcvn0bLi4uePDgAdsj562trYiIiMClS5e4Lm6eTWlpqczcufmN+GRmZsLZ2RkHDx5EUlISqqurUVtbK3SFhYUhPDwcg4ODRHxmQcSHjzwKhYKGhgaxiI+joyMaGxtRXV1NTnWRSVTiSNsAL2we6TNm6HQ67O3t4ejoyHSqS1NTE0ePHmU8h0tPTw8ffvgh/u3f/g1/+ctfoK6uDkVFRRw5coSxzbFjx6CmpgYHBwehxWf//v04ePAg21Ndb8TH2toakZGRyM3NRX5+PlNFRETA29sbERERC1p8rl27Bi0tLSxdupRxN+yDBw9yLH19fejr63NsV1BQgJeXFzniMwciPnzkiUt8xsfH4eXlhbt376K0tBRjY2Ni/czzDTKJSh5pG+CFzSN9xgydToe/vz8uX77MdFVXTEwMbt26hfr6etTX16OgoADffvstPvzwQ/zwww9ITEzEpUuXUFVVxdimvr4eiYmJoFAoIl3OrqKiwvFU1+3bt2FlZYXw8HBkZmYyrkZ6UxcvXoS3t/eCP+Jz7do17Ny5E3//+9/x7bffYtmyZVxr6dKlXNu/+OILssaHDUR8+MgTl/i8fv0aCQkJKCgoQFRUFHp6ejheIr8QIJOo5JG2AV7YPNJnzHC6j091dTUmJiYYl3/39vZixYoV+Pzzz7Fp0yY0NjairKyM5XLxO3fuSGxx8xvxOXfuHKqrq0Gn0/HixQumqqmpQWho6IIXn6ysLNjY2EBNTQ1BQUFIS0tDRkYGx0pPT+fa7uHhgYsXL5JTXXMg4sNHnrjEBwByc3ORmpoKX19f0Gi0Bf2EdjKJSh5pG+CFzSN9xoygz+r6r//6L6xatQq3b9+WyOXsmzZtgrKyMlnjIySz1/hQKBSYm5ujtrYWz58/x8DAAMfq7+/n2p6Xl4fo6GgMDQ0R8ZkFER8+8sQpPtevX0dycjK8vLzQ2tpKxOcd5JFJdP7lkT5jRphndX366adITEyUyLO69u7dCx0dHa5HfFxcXNDS0oJXr17h9evXTHX//n2Eh4cvePHJysqCgYEB1q5dCwMDA1hYWMDS0pJj8WrX0tKCv78/OeIzByI+fOQR8ZEMZBKVPNI2wAubR/qMGUHEZ+XKlfjuu++wbt06lJaWSuQ+PvLy8lBXV+e4xufWrVsICgpCUVER7ty5g6amJqYqLCxEYmIioqKiFrz4HD58GGvWrMGRI0dgaWkJa2trjmVlZcW1XVtbG35+fmSNzxyI+PCRx0t8ioqKOD7EdG4eEZ//g0yikkfaBnhh80ifMcNJfPLz89HX18dYO9PS0oIVK1ZAQUEBO3fuRFlZGYqKilgurBBVfHhdzl5dXY07d+6gvb0dXV1dePz4MVO1t7ejs7OT57O6ZiOL4pOZmQlvb28YGxujoKAAra2taG9vF7qSkpIQFRVFjvjMgYgPH3m8xCc9PR3Nzc0c22fnEfH5P8gkKnmkbYAXNo/0GTOcxMfNzQ3R0dGIjY1FbGwsIiIioKWlBT09PRw6dAhUKhXJycksf6iJKj5KSkrQ19fneKqrqqoKAwMDmJiYwOTkJNt6/fo1EhMTF7z4ODk5QV9fHwkJCWxv9sjtpo5zKzQ0FGFhYUR85kDEh488XuITHx+PkpISrjckJOLDCplEJY+0DfDC5pE+Y4ad+JiamsLU1JTlzr5Hjx6FoaEhjh49CmNjYxgZGcHHxwcBAQGMsra2hru7u9D38dmyZQvHZ3WNjY0hKiqKcWPF2e87tw4fPoyTJ0/Cz8+PpW3u75qZmWHZsmUy98iKAwcO4Pvvv8fevXuhpaUFbW1tjsWrXV5eHp6enuRU1xyI+PCRR6FQUFVVxfGGg7GxsTzvxEzEhxUyiUoeaRvghc0jfcbMXPF58eIFcnJyEBkZyZCE2TVbHnx9fUGhUJjafX19kZOTw3QKTFyLmycnJ5Gfn4+goCCWzzW3vLy84O3tzfL5qFQq28+soqKC/Px8mRGfrKwsnD17FqqqqggICEBSUhJSU1M5VkpKClJSUji2u7u7IyQkhBzxmQMRHz7ygoODYWFhATqdzvZ9iPgIB5lEJY+0DfDC5pE+Y2au+IyMjGBoaAh9fX3o6elhqu7ubqafnzx5wrJNT08PhoaGmO4rJoj4yMnJYf/+/WzX+MzMzGBwcJDj+879bJy2Y/c93NzcUFRUJDPiQy5nfztZRHz4yAsNDYWioiI6OzuJ+IgRMolKHmkb4IXNI33GzFzx4XZxhbD7Tp0EJkgAACAASURBVFxrfMQFuzwqlYqSkhKZEZ+srCwYGRlBTk4OJ0+ehIODA86dO8exHB0dubYbGBiAQqGQIz5zIOLDR15oaCj27NlDxEfMkElU8kjbAC9sHukzZqRNfA4cOICjR48ybUvEh39mi4+VlRX2798Pf39/xMXFIT4+XuhydnYmp7rYQMSHj7yysjJoa2ujs7OT7SMmBBGf5uZmREdH4/LlyygqKlrQT2gnk6jkkbYBXtg80mfMSJv4bNu2DWpqamwXN4uLhSA+mZmZCAgIgIWFBerq6jAwMIDh4WGONTQ0xLW9oKAAV69eJae65kDEh4+84eFhmJubo6urS2TxGR8fB4VCwY0bNxAQELCgH1RKJlHJI20DvLB5pM+YkTbx2bdvH/T09MipLiGZLT4uLi44dOgQkpOTUVNTg7q6Oo5169Ytru3h4eEIDw8nR3zmQMSHzzw7OzuxiA8AeHt74+bNm3Bzc2P6x7fQIJOo5JG2AV7YPNJnzEib+CgrK+PgwYNEfIRk9qkuPT09/PTTTzh06BDMzc1hYWEhdGloaMDX15dczj4HIj585hHxET9kEpU80jbAC5tH+owZaRMfbW1tHDt2jKzxEZLZR3ycnZ1x6NAhJCUlobq6Grdu3eJYtbW1XNvDw8MRERFBjvjMgYgPn3lEfMQPmUQlj7QN8MLmkT5jRtrEZ8uWLVBRUSFrfIRktvgEBwfj7NmzuHv3LsbHxzExMcGxXr16xbW9tLQUMTExZI3PHIj48JlHxEf8kElU8kjbAC9sHukzZqRNfDZs2IB9+/axvY+PuFgI4pOVlQVjY2Ns2bIFZmZmcHFxgZubG8dydXXl2m5kZAQqlUqO+MyBiA+feUR8xA+ZRCWPtA3wwuaRPmNG2sSH252bxcVCER8LCwvs27cP3t7euHLlCq5evcqxoqOjubY7ODggODiYiM8ciPjwmcdNfOLj41FQUEDER0DIJCp5pG2AFzaP9Bkz0iY+8vLyUFdXJ6e6hGT2qS5/f3+YmZmhpqZG5Ds3X79+ndy5mQ1EfPjM4yY+DQ0NiIiI4HppOhEfVsgkKnmkbYAXNo/0GTPSJj7kiI/4jvgYGBhg165dSEtLQ2NjI+7evcux7ty5w7X98uXLZHEzG4j48JlnZ2cHGo2G1tZWtLW1MVVNTQ1MTEzQ1NSEsbExtp+FiA8rgvbZ0NAQaDQay/6fXcPDwzxzySQq2bzp6WnQ6XS++ordHxLCvq+swK/4UKlUxMTEICUlBUNDQ5iammLU69ev8fr1a0xNTWFycpKpjd/q6emBn58fHj9+jMnJSUxMTODJkydobW1ljIP37t3DkSNHsHz5cmzevBnt7e1EfITgjfjk5+dDT08PmzZtwuHDh3Hq1CmYmJhwrFOnTnHdRltbG2FhYRgeHibiMwsiPnzmOTo6ory8HOfOnUN0dDTi4uIYFR4eDiUlJdjb26OpqYntYyiI+LAiaJ9VVVUhJiaGad/PLg8PD5SXl/O8GzaZRCWbNz4+jpCQEERGRnLsK09PT5SUlODnn38W2/vKCvyKj4WFBc6cOQMbGxtcvXoViYmJSExMREJCAqKiohAREYHo6GgkJCQw2hITExEdHc2ouW2zKywsDDo6Orh48SISExMRGxsLQ0NDHDx4ECEhIYiLi0NsbCxcXV1hZmYGQ0ND3L59G5OTk3x/D1H3i6yJT319Perq6nDz5k1UVFSIXOXl5Xj06BGmpqaI+MyCiA+feVZWVsjMzISbmxuam5vR3t7OqPr6epiamsLJyQnV1dWYmprimkfE5xcE7bOSkhI0NTWBRqMx7f83FRoaimvXrvGcTMkkKtm80dFRODk5obKykmNfhYeHIz09ne87l5M+Y4ZOp8Pc3BxUKhWXL19GUlISkpOTkZycjJiYGBgaGmLPnj2wtLREbGwsoy0pKQlWVlYwNzeHpaUlYmJiGG1zKyIiAnp6eggPD0dycjKio6OhoqICKysrVFRUoK2tjdGfHR0dKC4uxp07dxh/eBDx4Z834nPv3j1MTU1J5BQwEZ//g4gPn3kHDx7EpUuXEBwczDJY9/f3w8XFBVQqFbW1tYy/eDjlxcbGoqqqChQKBT09PXwf7pc1BO2ziooKjIyMcPy9tLQ05OTkEPGZxbsSH3d3d3R3d3P8t52VlYXMzEwiPmzg57sODAzAy8sLFAoFISEhCA0NZRSFQoGioiIUFRVx8OBBUCgURltISAisra1haWkJKysrBAQEMP3u7PL29oaKigq8vLwQEhICf39/7NmzBwEBAaDT6Sx929HRgZaWFiI+QkDE5+1mEfHhM09DQwNBQUEICgoSWXxoNBpqa2uRkJCwoB9UKoz4jI6OEvERACI+8w9+vuvk5CQePnyI5uZmlqqpqYGlpSX8/Pzg7e2NmpoapvbGxkZGsfv9N1VaWgpLS0uUlJSgubkZVVVVMDY2xq1bt/Dzzz+zfE4iPsJDxOftZhHx4TNPU1MTgYGBYhGf4eFh3Lp1CxkZGUhLS+N7nYOsQcRH8hDxmX/w+12np6fZ1sDAAHx9fZGUlIS4uDgMDQ1x3JZbPXnyBH5+fujp6cHr16/x4sULODk54enTp2w/Y0dHB5qbm/Hq1SvMzMwwcmZmZliK0+vcau7nm5mZAYVCQXFxMTw9PfHs2TOBswT9DJLKGxsbA4VCQUtLCyYnJ/nOE+R9b968idHRUSI+IOLDd15UVBSuXr3K8VSXs7MzgoKCcOvWLZ5rfGaLT2pqKhEfPiHiIzhEfOYfon7XoaGh/8/eeUdFdaZ//Jzf7mbbSdm0NdnEZLMpm9hjomKvUWJiDEQFsSUQFZVQVLDQQUBEBEQEpSNNylClIyCIgIACIgiCFBEQpCmIKN/fH7uyIAPM3LnDnQvP55znbHBevrfyvJ+dmXsvTpw4gZCQEAQEBKC9vZ1RzouXsz948ABmZmZobGwUOr6yshJRUVG4evUqrl27hvz8/AHvLj2vnJwcnD9/Hjk5OUJfF1bXr19HXFwcEhISkJSUhMjISOTl5UFPTw9nz56FlpYWUlNTRc4bat2YlqR5V69exdmzZ5GYmIi8vDyR88QZFxwcjNbWVhIfkPiInHfjxg0IBAKcOnUK7e3tfZeLPn36FPfv34ehoSHi4+ORk5Mj1js+JD6ik5GRgdbW1gH7vn+FhISQ+LwAl+JTVVU14NLq/hUeHk7iMwSyJD5WVlbIz89HdXU1iouLsW/fPhQUFKCmpmZQZWZmQiAQICsrC1evXu17UObVq1cH1POP0C5evDjotaEqNzcX0dHRuHDhAnx9fWFjY4PMzEwcOHAALi4u0NLSQnJyssh5Q60b05I0LycnB5cuXUJWVtaAh4yytdzs7GwEBQWR+PwXEh8R8yoqKhAZGQltbW0EBQUhPDy8r/z9/bFu3Tq4ubmJ/VEXiY/oJCYmIjg4GGFhYQP2//NJ1MTEBNHR0Xj8+DGry+UzXIjPw4cP+277MNSxMjMzI/EZAlkRn9bWVpw5cwbu7u7w8fHB2bNn8c033+CHH36AgoICFBQU8OOPP2L16tVYu3YtVq5cCWNjY3h6esLHxwfe3t4DLp1/Xh4eHjAzM4OHh4fQ14WVq6srVFRUYGxsDHt7exw7dgxeXl6wtLSEg4MDzM3Nxcobat2YFht5zx9BIY3y8vLC6dOncf/+fcTExJD4sJbEMdJu8OXl5bh69SoEAgGSkpKQnJzcVxEREVBRUUFsbCzu3bsn9O19Ep/BiHvMnl8y23/fP6+LFy8iKioKFRUVQu+jJMly+QwX4vPkyROkp6cjMTFxyGMVHR2NsrIyof8ngelyxwqyIj49PT2oqqpCaWkpSktLcfXqVaipqeH48eM4ffo0Tp8+DXt7eygqKsLU1BQnT57E5cuXcfPmTZSWlqKkpKTvdyWtwsJC+Pj4IDU1FcXFxRLnsbluXOaJMy4iIgIZGRkQCAQkPqwlcYy0G/zze1a0tLSgvb19QFVVVUFXVxd1dXVDTrokPoMR95g9efJk0L7vX21tbSJNpDSJSjevt7cXXV1dwx6r9vZ2PHnyROT1o2MmOmyJz4s8ePAAxsbGqKys7DuG9fX1sLCwwLVr1/DgwYMBVySxPel1dHSIdc6MlMcmXOWJs9z09HQEBwfj/PnzJD6sJXHMaIhPZWWlULFpbm6GgYHBsA2GxGcwfGgWfGc8Nni+I8vi8+KXmx89egRbW1uUlZUN6o2yfO7J8rqJkyeu+AQEBCAwMJDEh7UkjiHx4R98aBZ8Zzw2eL5D4iMcWZ1Eucwj8WEGiY+IecOJT3t7O5ycnIT+8QvLI/H5D3xoFnxnPDZ4vkPiIxxZnUS5zCPxYQaJj4h5w4lPT08PMjIy4Ofnh87OzhHz+otPSEgIic8o59Ekyr88OmaiQ+Izullc5pH4MIPER8S84cQH+M99fhwcHPDw4cMR8zo6OhAXF4fExER4e3uz1pj4Bh+aBd8Zjw2e75D4CEdWJ1Eu80h8mEHiI2Iem+LT2dkJFxcXZGVlwdraeshbwI91+NAs+M54bPB8h8RHOLI6iXKZR+LDDBIfEfNu3ryJzMzMIS+XFkd8urq6YGtri9zcXJiYmKCurm5cNfbn8KFZ8J3x2OD5DomPcGR1EuUyj8SHGSQ+IuZlZWXBxMRkwMnSH6biY2pqSuIzynnjaV+PxwbPd0h8hCOrkyiXeSQ+zCDxETEvLS0NW7duRUtLi9DxJD7iw4dmwXfGY4PnOyQ+wpHVSZTLPBIfZpD4iJiXk5MDNTU1tLa2Ch1P4iM+fGgWfGc8Nni+Q+IjHFmdRLnMI/FhBomPiHlVVVU4cOAA2trahI4n8REfPjQLvjMeGzzfIfERjqxOolzmkfgwg8RHxLzGxkYYGxsP2URIfMSHD82C74zHBs93SHyEI6uTKJd5JD7MIPERMY/Eh3340Cz4znhs8HyHxEc4sjqJcplH4sMMEh8R80h82IcPzYLvjMcGz3dIfIQjq5Mol3kkPswg8RExTxrik5GRAV1dXdy9e3dcNfbn8KFZ8J3x2OD5DomPcGR1EuUyj8SHGSQ+IuaxLT4WFhawt7eHqqoqqqurx1Vjfw4fmgXfGY8Nnu+Q+AhHVidRLvNIfJhB4iNi3kjic/v2bTg5OaG5uVnouvT/t6dPnyI2NhZGRkbw8fFBWFgYHj9+zOr68wE+NAu+Mx4bPN8h8RGOrE6iXOaR+DCDxEfEvJHE5+HDh3BxcUFRUZHQ53m9mFdRUYEjR44gLy8PJ06cGPKdorEMH5oF3xmPDZ7vkPgIR1YnUS7zSHyYQeIjYt5I4vPs2TOcOXMGWVlZQp/n9WJeTU0NLCwsUFBQAGtr6yEfhTGW4UOz4DvjscHzHRIf4cjqJMplHokPM0h8RMwj8WEfPjQLvjMeGzzfIfERjqxOolzmkfgwg8RHxLzGxkYYGhoOeedmEh/x4UOz4DvjscHzHRIf4cjqJMplHokPM0h8RMxramrC9u3bcenSJaFiQ+IjPnxoFnxnPDZ4vkPiIxxZnUS5zCPxYQaJj4h5zc3NUFRUhKurK7q6ugaNJ/ERHz40C74zHhs83yHxEY6sTqJc5pH4MIPER8S8lpYWKCkpwdHREZ2dnYPGMxEfIyMjpKenw8rKisRnFPNoEuVfHh0z0SHxGd0sLvNIfJhB4iNiXldXF5ycnHD69Gk8evRo0Hhxxae2tha//PILLCwsYGJiQuIzink0ifIvj46Z6JD4jG4Wl3kkPswg8RExr7e3FxkZGXBxcWFNfHR0dBAYGIgjR46Q+IxiHk2i/MujYyY6JD6jm8VlHokPM0h8xMjLzc3FmTNnWBGfmpoaHDlyBPn5+fQdn1HOo0mUf3l0zESHxGd0s7jMI/FhBomPGHlsi4+VlRUKCwthY2ND4jOKeTSJ8i+PjpnotLa2wsDAAEeOHIGPjw+Jj5SzuMwj8WEGiY8YeWyKT2trK9zd3ZGeng5fX98hn/E1luFDs+A747HB8x02xEdPTw8HDhyAt7c3iY+Us7jMI/FhBomPGHlsis/Tp08RERGByMhIJCUl4d69e3j27Bl7G8AD+NAs+M54bPB8hw3xsbS0hKurK/z8/Eh8pJzFZR6JDzNIfMTIG058ent7ERUVhZycHJHEBwAuXLiA0NBQpKWl4e7duyQ+o5RHkyj/8uiYiU5raytsbGxw7tw5+Pv7k/hIOYvLPBIfZpD4iJE3nPgAQFlZGbKzs0l8RIQPzYLvjMcGz3fYEJ99+/ZBW1sbXl5eJD5SzuIyj8SHGSQ+YuSNJD719fUif9QFkPjwoVnwnfHY4PkOG+JjZGQEKysrnDt3jsRHyllc5pH4MIPER4w8Eh924UOz4DvjscHzHTbEx9bWFoGBgXQ5+yhkcZlH4sMMEh8x8kh82IUPzYLvjMcGz3fYEB+6j8/oZXGZR+LDDBIfMfJyc3Ph4uKChw8fCv0dEh/x4EOz4DvjscHzHRIf4cjqJMplHokPM0h8xMjLzc2FkZERGhsbhb5O4iMefGgWfGc8Nni+Q+IjHFmdRLnMI/FhBomPGHl5eXmQl5dHYWHhoD9ygMRHXPjQLPjOeGzwfIfERziyOolymUfiwwwSHzHyiouLsWTJEuTk5JD4sAAfmgXfGY8Nnu+Q+AhHVidRLvNIfJhB4iNGXnNzM/bt24e8vDz09PQMel1c8YmPj0dISAjS0tJQVVUlVKbGMnxoFnxnPDZ4vkPiIxxZnUS5zCPxYQaJjxh53d3dsLe3x7Vr11gRn5KSEpw9exbJyclITk5Gd3c3OyvPE/jQLPjOeGzwfIfERziyOolymUfiwwwSHzHynjx5AkdHR1y/fp0V8Xnw4AGOHj2KmJgYeHh4oLOzk52V5wl8aBZ8Zzw2eL5D4iMcWZ1Eucwj8WEGiY8YeWyLT3t7O8zNzREdHQ1nZ+ch7w80VuFDs+A747HB8x0SH+HI6iTKZR6JDzNIfMTII/FhFz40C74zHhs83yHxEY6sTqJc5pH4MIPER4y8kcSnoaEBV65cwePHj0XKI/GR/WbBd8Zjg+c7JD7CkdVJlMs8Eh9mkPiIkTeS+HR0dCA0NBQNDQ2Dfp/EZzB8aBZ8Zzw2eL5D4iMcWZ1Eucwj8WEGiY8YeSOJz7Nnz3Dy5EmUlpaK1ARIfGS/WfCd8djg+Q6Jj3BkdRLlMo/EhxkkPmLkjSQ+AGBjY4OioiISHxHgQ7PgO+OxwfMdEh/hyOokymUeiQ8zSHzEyCPxYRc+NAu+Mx4bPN8h8RGOrE6iXOaR+DCDxEeMPBIfduFDs+A747HB8x0SH+HI6iTKZR6JDzNIfMTIe/LkCezt7ZGZmSn0knVgfInPs2fPUFpaiuDgYPj7+4tdfn5+jH5P0jy2lyvLxdU+lqVjFhcXh7a2Nt7IE4mPcGR1EuUyj8SHGSQ+YuQ9efIER44cwYkTJ4aUFCbik5KSAhcXF7S0tPCmOQP/Wf9Dhw7hp59+wqJFi7B69WpMnToVX3zxhczU/PnzsXz5csyYMQMLFy7EvHnzsGrVKkyZMoXzdetfixcvxuLFizFlyhQsXLgQcnJykJeXl7n9+eWXX+Lbb7/F9OnTsWDBAsycORNr1qzBtGnTOF+3/vXVV19h9erVmDZtGpSVlVFRUcGbhwBL2gM6Ojrg7u6OmJgY+Pr64sGDB6z0FRIf2csj8WEGiY8YeT09PTA2NoaamhpaW1uF/p444vP48WMEBwcjJiYGdnZ2Qq8Gk2UaGhqwdOlSyMvL49NPP8WqVauwefNm6OjoYN++fSPW3r17RRonar2Yt3fvXmzevBnTp0/Hyy+/jM8//xwTJ07EokWLoKqqyvrymZaOjg62bduGyZMn4/e//z0+//xz/OMf/8DKlSuxbds2kfentPfx/v37oaamhiVLluAvf/kLPvvsM7zxxhtYsmQJfvjhB2hpaUlt/cTZjr1790JNTQ3Lli3Dn/70J8jJyaGkpGTciE9PTw/S09Nx/fp1ODo6oqqqipVtJ/GRvTwSH2aQ+IiR9+zZMwQHB0NDQwNtbW1Cf08c8ent7UVRURFOnz4NS0vLIZ/6LqvU19dj7ty50NXVxfLly7F7925kZWWhpqYGtbW1I5ao40QtYXn+/v74/PPP8dprr2Hbtm2YNWsW1NTUkJeXx/ryJVlvLy8vTJ48GX/4wx/w888/Y/bs2dDU1EROTo5E68nmNt69exfp6en45ptv8Je//AXy8vJYsWIFvv32W8TGxqKqqkpq6yfudmRkZPQJ2ty5c8eV+ABAUVERysvLYWNjI1RKmEDiI3t54iw3MzMTgYGBCAwMRHh4OInPWGA0Trze3l7cunULRkZGQ35uLo74AEBFRQWsra1hYWHBW/FxdHSEl5cXrly5gq6uLpF/fzSOWV1dHdzd3TFjxgyoqanBzs4Oly9fFnp3bS6prq6Gq6srPvnkE2hpacHW1hbZ2dli7U9hsL2P29vbERcXhyVLlmD9+vU4fPgwIiIi0N7ezmhZ0vpyc0dHBwQCAZYuXYrFixeT+JD4SC2LyzxxlltXVwdPT0+4u7sjLCyMxGcsMFonXl1dHczNzQecNP0Zj+Lj4uKC/Px8dHd3i/X7oyWrdXV1WL58OX766SckJSVJLBPSoLe3FxUVFZgzZw62b9+OCxcuoLOzk5VcNunt7cWzZ8/w888/Q1FREZaWlmhpaZEoj81x/ce3tbXhl19+wbJly0h8SHyklsVlnjjL7ezshIuLC1xcXCAQCEh8xgIkPqPPc/FxdnYe9hL/oRitY1ZfX48VK1ZAQUEBSUlJMvduz3Pu3LkDOTk5qKmpITo6mhVBk9Y+fi4+FhYWQ37sK04eW+P609HRAVVVVSxfvpzEh8RHallc5okrPs7OznB2dibxYS2JY0h8Rh8SH3Yh8ZF8XH9IfEh8RiOLyzwSH2aQ+IiZR+LzP0h82IXER/Jx/SHxIfEZjSwu80h8mEHiI2beSOITHR2NuLg4PHz4UKQ8Eh/2IPEZDIkPiQ+Jj3SzuMwj8WEGiY+YeSOJT1VVFU6ePIn79+8PyCDxGQyJz0BIfCQf1x8SHxKf0cjiMo/EhxkkPmLmjSQ+zc3NsLS0RH19/ZgXn+bmZqxbtw5nz54l8WEBEh/Jx/WHxIfEZzSyuMwj8WEGiY+YeSQ+/6O7uxsnTpyAj48PiQ8LkPhIPq4/41l8CgoKUFhYiCNHjuDWrVskPlLM4jKPxIcZJD5i5rEtPjU1NXB0dISTkxMyMjJkdlIeisDAQPj5+ZH4sACJj+Tj+jOexSc/Px/Jyck4ePAga4/CIfGRvTwSH2aQ+IiZx7b4dHR0ICoqCpmZmTh79iwaGxtZ3xZpcv78eRIfliDxkXxcf8az+BQUFCAvLw9mZmb0jo+Us7jMI/FhBomPmHl1dXUwMzMb8pEV4opPb28vMjMzUVVVBSMjI1RXV/OmQQMkPmxC4iP5uP6MZ/Gh7/iMXhaXeSQ+zCDxETOvvr4e6urqqKmpETpGXPEBgOzsbNTW1kJfX5+1JymPFiQ+7EHiI/m4/pD4kPiMRhaXeSQ+zCDxETOvsbERysrKQzZSEh/RIfEZCImP5OP6M57Fp7CwEOXl5bC2tibxkXIWl3kkPswg8REzr6urC+7u7kM2ExIf0SHxGQiJj+Tj+jOexSc7OxtOTk745ZdfUFxcTOIjxSwu80h8mEHiwyAvNzcXFRUVJD74j/j4+voiIiICVVVVYjXY0Thm7e3tuHLlCpSUlLBu3Tq4urrizp07rEwEbNHb24uWlhakp6dj9erVUFNTg5OTEyvryfY+7u7uRmlpKTQ1NaGiogItLS2JbsMgLfHp7u5GQUEBdHR0sGrVqnEnPnl5eYiIiICOjg5KSkpIfKSYxWUeiQ8zSHwY5F2/fp3E57+cP38e9vb2WLduHY4dO4Zbt26hpqZGpKqurkZ1dbXI45nk+fn5Yd26dfj++++xZs0azJ07t+/tf7aWK2lVVVXB09MT69evx5IlS6CoqIhZs2bB1tZWrP05Gvv40qVL2LhxI9auXYsNGzZg8uTJUFVVRVFRkVTXT9ztSE1NxZYtW6CoqIiVK1eOO/EpKipCWVkZfdQ1Cllc5pH4MIPEh0Eeic//CA4Oxu7du/HZZ59BQ0MDHh4eOHfunMyUoaEhJk+ejH/+85+YNWsWJkyYgF27dsHT05PzdetfBgYGmDRpEv7+979j9uzZeOONN6ClpSVz62lvb48FCxbgvffeg5ycHF599VXIy8vj7NmznK9b/7Kzs8PixYvx3nvvYcGCBeNSfOjLzaOTxWUeiQ8zSHwY5I0kPlZWVuNGfEJCQrBmzRpMmTIFpqam+O2337B7926RateuXSKPZZqnr6+Pb7/9Fm+88Qbk5OQwZcoUGBgYiLWeo1EmJiZYsWIF/vjHP2LOnDn49NNPYWpqCk1NTdb3iSSlo6ODnTt34m9/+xtmzZqFd955B9ra2tDQ0JDq+om7Hbq6utixYwdefvllyMnJkfiQ+Egti8s8Eh9mkPgwyBtOfDo7O+Hu7o78/PwB33sYSXxKS0uxf/9+3olPaGgovvjiC0yYMAHKysqwtLSEu7s7PD09RywPDw+RxolaL+Z5eXnByMgIM2fOxMsvv4wpU6bgww8/xA8//ABbW1vWly/JehsaGmLGjBn4wx/+gClTpuDdd9+FiooKrK2tRd6f0t7HXl5esLGxwerVq/HXv/4VkydPxuuvv45vv/0Wurq6cHV1ldr6ibsdx48fx3fffYc///nPJD4kPlLN4jKPxIcZJD4M8oYTn97eXoSGhiIuLg7d3d0i5cXHx8PX1xfq6uq8Ex+BQICPP/4Yb7/9NrZt24aCggI0Njbi/v37I5ao40StF/OampoQEBCACRMm4OWXX4aKigo+++wzbNq0CcXFxawuW9Ly9PTEBx98gP/7v/+DiooKPvnkE+zcuROFhYUS7Sc293FTUxOys7Mxe/ZsSH5JDAAAIABJREFU/OEPf8CqVavw1VdfQU5ODqmpqWhoaJDa+om7HTk5OZgxYwZ+97vfkfiQ+Eg1i8s8Eh9mkPgwyBtOfAAgLCwMUVFRAy6bHi4vJCQEx44dg6GhIWtXYIwWAoEAkyZNgoaGBhITE8W6VHw0jll1dTWOHj2KyZMnY/fu3TA1NcXFixcHSKkscPv2bVhbW+PDDz/Evn37YGJigrS0NIkvvWd7H7e3t8Pf3x9z5szBxo0bsW/fPvj4+Az5CBe21k/c7Whvb4erqyvmzJmDRYsWkfiQ+Egti8s8Eh9mkPgwyGNbfFJSUuDo6IiAgADExsbK7H1mhCEQCDB58mR4e3ujra1NrOMwGsfs6dOnqKiowNKlS7FhwwbExcWho6OD9WVLSk9PD27evIlZs2Zh586diIyMRHt7u8TryfZ2Pnv2DJ2dndi8eTPWrVsHKysrNDQ0MF6OtMTn2bNnaGxsxJYtW7Bs2TISHxIfqWVxmUfiwwwSHwZ5bItPXl4eXFxcEBMTAz8/P3R2djJf8VHm+Ts+fn5+YgvbaB0zuoEhezzPoxsYSg8SH+HI6iTKZR6JDzNIfBjkSUt8Lly4AF9fXxIfhpD4DIbEh8SHxEe6WVzmkfgwg8SHQZ40xMfZ2ZnER0JIfAZD4kPiQ+Ij3Swu80h8mEHiwyCPbfHJz8+HpqYm9PT04OLigkePHjFf8VGGxIc9SHwkH9cfEh8Sn9HI4jKPxIcZJD4M8rKzsxEfHz/kOzNMxEdfXx/Hjx+Hm5sbvePDEBKfwZD4kPiQ+Eg3i8s8Eh9mkPgwyEtLS4OZmRmam5uFjmPyUZeTkxOioqJw7tw5Eh+GkPgMhsSHxIfER7pZXOaR+DCDxIdB3vXr13Ho0CHcv3+fNfGhLzdLDonPYEh8SHxIfKSbxWUeiQ8zSHwY5FVVVcHS0pLEByQ+bELiI/m4/pD4kPiMRhaXeSQ+zCDxYZB39+5d2NjYkPiAxIdNSHwkH9cfEh8Sn9HI4jKPxIcZJD4M8kh8/geJD3uQ+Eg+rj8kPiQ+o5HFZR6JDzNIfBjkjSQ+0dHRCA8PHyAwI31nyMXFBXl5eQgLC2NlwhstSHzYg8RH8nH9IfEh8RmNLC7zSHyYQeLDIG8k8amursaZM2dw9+7dvmY7XF5zczOcnJxQXFyM+Ph4mZ2YhUHiwx4kPpKP6w+JD4nPaGRxmUfiwwwSHwZ5I4lPb28vjh49itLS0r5mMFxeb28vTp48iWvXron9hHOuIfFhDxIfycf1h8SHxGc0srjMI/FhBokPg7yRxAcALC0tUVJSIpL4AIC9vT3y8vJ4KT6ff/45HB0dUV9fL9bkMhrHrKurC0VFRVBQUICioiICAwPR2Ngoc5NgZ2cnrl27hhUrVkBNTQ3e3t5oaGiQeD3Z3sc9PT2or6/Hnj17oKSkhIMHD6K8vJzxxCot8Xn69CkqKyuhqamJlStXkviQ+Egti8s8Eh9mkPgwyCPx+R8CgQAffvgh5s2bB3t7e9y4cQPl5eUiVVlZmchjmeaFhYVBXV0d69atw+rVqyEvL4+TJ0+iuLiY1WVLWkFBQVBXV4e8vDwUFRWxfPlyODk5ibU/R2MfX758GZqamti0aRPWr1+PWbNmQVtbG9evX5fq+om7HRkZGdDW1sa2bdsgLy9P4sOy+PT29qK3t3eQ+PRfd1mWC1leN3HySHyYQeLDIO9F8RFW40l83n33XbzxxhvQ09ODv78/goKCRKrz58+LPJZp2draYt68efj8888xZ84cfPjhh9DV1YW/vz+Cg4M5raCgoL7/PX78OOTk5PDBBx9g7ty5ePfdd2FgYICAgABWlsFWubm5Yc2aNfjss8+wYMECvPnmm9iwYQN8fHwYHR9RzwFxzxU3Nzf88MMP+PTTT7Fo0SISHxbEp6WlBXv37oWPjw9CQ0MRGhqKgIAAbN26FU5OTggMDMS9e/dE+l4jE2R1EuUyj8SHGSQ+DPKei8/Nmzfh7u4OHx8f+Pr6Dqj169fD3NwcERERePz48ZgVn+TkZCxfvhzz5s2Dnp4eTE1NRS4TExOxxuvp6cHY2Fjoa2ZmZti3bx+0tbWhra2NzZs3Q1NTExs2bMDHH3+MP/3pT5gwYQLefPNNrFy5EoqKivjpp584K2VlZWhqamLz5s347bffsG7dOvzzn//E7373O7zzzjt49dVXsXr1aonXU1FRkdVtVVBQwNdff40//vGPmDBhAv7yl79ATk4OP/74Y99HXyYmJtDQ0IChoeGwx0pXV1fsc0CcUlVVxddff40tW7agsrKSxEdCWlpaoKuri4iICCQlJSEpKQmxsbHYsWMHzp07B39/f9y4cQNPnjwBINtyIcvrJk4eiQ8zSHwY5D0Xn8zMTBgYGCAuLg6pqal9lZaWhu3bt8PBwQEWFhbo6OgYs+JTX1+PxMRExMTEIC0tDZcuXZJanTlzBvHx8UJfS09Px/Hjx2FsbAxFRUV8/PHHWLp0KdatW4edO3dCTU0N27dvx/bt26GpqQkdHZ1Rr71792Lu3Ll488038c4770BeXh4fffQRlixZAgUFBfz6669QVVXFjh078Ouvv0JbW1viZTLNUFRUxLvvvovXXnsNf/vb3zBp0iTs3r0bOjo62LNnD9TU1LBjxw6oqanht99+w/Lly/HZZ5/B09MT8fHx0NTURHh4+JDHytbWFidOnEBSUpJUzpX09HQkJycjJiYGGRkZIv0NygqyKj4PHjyAsbExqqur8ejRIzx69AhNTU2wsrJCYWEhCgoKUFRUhO7ubgCyLReyvG7i5JH4MIPEh0He3bt3YW5ujtTUVNjZ2aG5uRk9PT0DytLSEikpKbC0tBzT4tPb2zto20WtJ0+eiDU+LS0NDx48GPL3BAIBXF1dYWtri7Vr1+LgwYNITExEaWkpysrK+urWrVsDfh7N8vT0xJw5c/DOO+/g8OHDWL16NfT09JCYmIiSkhLWl8d0W9PT07F69Wq88cYbmDp1KjZt2oSrV6/i1q1bgzJv3boFDw8PzJs3D9nZ2WhqasKRI0dQWVmJ7u5uoccqLCwMYWFhaGtrk8q50r9e/O6JrCPL4jPcl5vLyspw48YNEp9RzCPxYQaJD4O8uro6qKioICAgACdPnkRra+ugMUePHkV6ejqsrKzGtPhIgrjHbKT/5x4REQE3NzeEhITgxIkTKCgoELovuZwEm5ubERoaiqVLl8LV1RXm5ubIz8/vmyzYhum2Pnv2DAkJCdi0aRMWLFgADw8PPHr0aMjbNzQ2NkJTUxPXrl1DS0sLLC0tUVNTM+THS5GRkYiIiMCjR4+kuh18hMRHOLI6iXKZR+LDDBIfBnmNjY1YtWoVvL294eTkhDt37gxq8CQ+IyMt8Tl37hy8vb0H/GFLslw2efbsGR49eoQtW7bg9OnTcHBwECrObCHJtnZ1dcHW1hbTp09HQkICuru7h8zr7e2FtbU1CgoKSHwkhMRHOLI6iXKZR+LDDBIfBnmdnZ3Q19dHREQEnJyckJubi56engFjSHxGRlri4+npCW9v7yEnVVmYRFVVVXHq1CnY29ujvb1dasuRdFudnJwwefJkJCUlDSs+AGBra4vCwkISHwkh8RGOrE6iXOaR+DCDxIdBXm9vL3x8fBAfHw9HR0dkZmb2XcnwHHHFJyoqCrGxsUhISEB5OfMbwvEJEh8SHxKfwbCxrbm5ufD19cXu3btx8+ZNEh8pZnGZR+LDDBIfhnkBAQFISEjAqVOnEBQUhBs3bqC0tLSv9u3bBz8/P5iZmYkkPg0NDbC3t0dcXBxCQkJ49aBSpoh7zFJSUnDt2rUB+7l/ubi44OzZs/Dy8iLx+S9ciY+pqSkuXbqEkpISocfqzJkzCA8PJ/ERAlviExgYCA0NDdbEp6WlBTo6OnBzc4Ofnx/8/Pzg5eUFFRUV2NnZwd7eHteuXaPL2Ucxj8SHGSQ+DPOei09cXBxcXV1x/vz5ATd627NnD4yNjeHr64uurq4R8549ewZTU1PExsbizJkzIk8IfEbcY5abm9t3gzphN9c7ffo0wsLC4OPjQ+LzX7gQn46ODvj6+sLPz2/IY3Xq1ClcuXJF5I91ZeGYjRZsbGtBQQEKCgpw5MgR3Lp1izXx0dPTQ2RkJC5evIiLFy8iLi4O6urq8PX1RVxc3IDHrMiyXMjyuomTR+LDDBIfhnnPxaehoaHvEt/+FRUVNaDpkPgMRtxj1tra2nf59FB17do1+Pn5kfj8Fy7Ep7u7G3V1dcMeq9LSUrS2top8U0FZOGajBVvik5ubC1NTU9bE58GDBzA1NUVdXR2ePHmCJ0+eoLW1FceOHcPNmzfR1dU14HjKslzI8rqJk0fiwwwSH4Z5z8VnqMuQ79y5gxMnTqC5uRm9vb0kPkKQxjErKyuDv78/ic9/4UJ8XvyiPxvrJwvHbLRgY1uzs7Ph7OwMNTU1FBcX00NKpZjFZR6JDzNIfBjmkfhIDokPiQ+Jz2DY2Nb8/HzExMRAV1d3wDMDJYHER/bySHyYQeLDMI/ER3JIfEh8SHwGw8a2cnE5O4nP6OeR+DCDxIdhHomP5JD4kPiQ+AyGxEc4sjqJcplH4sMMEh+GeSQ+kkPiQ+JD4jMYEh/hyOokymUeiQ8zSHwY5pH4SA6JD4kPic9gSHyEI6uTKJd5JD7MIPFhmEfiIzkkPiQ+JD6DIfERjqxOolzmibPcrq4uuLu74+TJkwgNDSXxGQtwIT6xsbFD3oCNifiYmZkhJiYGLi4uePjwIeN15wskPiQ+JD6DIfERjqxOolzmibPcnp4eXLp0CZqamvD39yfxGQuM9okXFBQEHR0d3Lt3T+hYccWnt7cXAQEBEAgEcHJyQnV1tcg3d+Mr0hSfo0eP9t1MT9rLFYeuri7cuHED2traOHv2LHR1dXHt2jWxZEEcJNnW27dvw97eHjNnzkRycjKJzyhB4iMcWZ1EucwTZ7m9vb2orq7G2rVr4e3tTeIzFhjtEy8/Px9btmzBrVu3hAqKuOID/OdZVAEBAXBwcEBRUZHUJkNZQRrHrLy8HJ6enpCXl8fBgwdx+/ZttLS0oLW1ta9e/Hk0KywsDMrKyti8eTOcnZ3x9ddfY//+/aipqZHK8phua0FBAXbu3AklJSVMmzaNxGcUIfERjqxOolzmibvc+vp6yMvLw8vLi8RnLDDaJ96jR49w+PBh1sXH398f9vb2KCgoIPFhkFdRUYG9e/di4sSJ+Omnn+Dm5obAwMABFRAQMOjfRqPOnz+PQ4cO4euvv8bnn38ONTU1vPnmm1i7di08PT2lskym22pnZ4eVK1fiww8/xEcffUQfdY0iJD7CkdVJlMs8Eh9mkPhIkHfkyBGUlZWR+DDkxX3y8OFD5OfnIycnBzk5OcjOzkZmZiYyMzORnZ2NnJwcXLlyZdDPV65cQVZWFnJychAWFoZdu3bhgw8+gIaGBnbv3o2dO3cOqB07dgz6t9Gqbdu2Ye7cuXj77bexceNGvP/++9i5cye2b98ulfVimqmqqorvvvsOr776Kt577z2RxMfS0hJGRkY4deoUnJ2dcerUqb7/dnZ2hpOT04CfnZ2d4ejoCCcnp76fT506hZiYGHR2dg57roxlSHyEI6uTKJd5JD7MIPGRII/ERzJe3Cfl5eU4fvw4goKCIBAI4OvrC2Vl5b6nPwsEApiamkJFRaXvZxsbG1hYWMDZ2RkhISE4ffo0fv75Z7z33ntYt24ddHR0YGtrC3t7+76ys7Mb8PNo1saNG/GPf/wDr732GhQVFfHuu+9CQUEBv/32G44fP8768phu6969e/H555/jpZdeEll8jI2NsXr1apibm8Pc3BwzZszAV199hSNHjsDOzg6ampr4/vvvYWVlBTs7O5ibm2Pq1KlYv349rK2tYWdnB1NTUxgbG6OlpWXYc2UsQ+IjHFmdRLnMI/FhBomPBHnDiU9jY2PfiUTiI5wX98m1a9f6nvRcVVWF/Px8zJo1C+vXr0deXh6qqqpgZWWFefPm9f3s6uoKOzs7REdHo7y8HGlpaXBwcMCyZcugqamJlJQU3LlzB9XV1TJRfn5+mDZtGv7+979DX18f8+fPx+7du5GamipT65mbm4sVK1bg5ZdfFll8DA0NsWnTpr536/71r39h0qRJuHr1Kqqrq+Hl5YWtW7fi+vXrqK6uRnZ2NiZOnAgNDQ3cuHGj79/MzMwGNWASH/Eg8Rm9LC7zSHyYQeIjQd5w4tPd3Y3k5GS0tLSQ+AyBMPHpfyl/Y2MjFixYgJ9//hkNDQ3o7e3FmTNnsHz58r7mGx4eDh8fH+Tm5qK7uxtlZWWIiYmBpaUlMjMzB31kImy5o0lDQwNcXFwwf/58eHh4wMDAAJcuXUJXV5dUlsd0W589e4bAwECsWbMG//rXv0QWn+3bt+Pu3buora3FZ599hhkzZqCurg4AEB0djT179uD+/fsAgJqaGnz00Uc4fPgwWltbAQC1tbU4evQoiY+EkPiMXhaXeSQ+zCDxkSBvOPEBgOzsbBKfYZCW+ISEhMDb23vI++NwOYn29PSgqakJKioqcHFxwcmTJ/veFZQGkuS2tLTAysoKX3zxBYnPKELiIxxZnUS5zCPxYQaJjwR5JD6SIS3xoRsY/g9Jt1WcGxiS+LADiY9wZHUS5TKPxIcZJD4S5JH4SAaJD4kPic9gSHyEI6uTKJd5JD7MIPGRII/ERzJIfEh8SHwGQ+IjHFmdRLnMI/FhBomPBHkkPpJB4kPiQ+IzGBIf4cjqJMplHokPM0h8JMhjW3yuX7+O0NBQ+Pn5ITU1dcgnv48VSHxIfEh8BkPiIxxZnUS5zCPxYQaJjwR5bItPW1sbEhISkJeXB2dn5zH/hHYSHxIfEp/BkPgIR1YnUS7zSHyYQeIjQZ6RkRGys7Px5MkToa+LKz7Afz7uqqyshLm5uVQnRFmAxIfEh8RnMCQ+wpHVSZTLPBIfZpD4SJCnqamJU6dODfnODInP8JD4kPiQ+AyGxEc4sjqJcplH4sMMEh8J8s6dOwcLC4u+pv0iJD7DQ+JD4kPiMxgSH+HI6iTKZR6JDzNIfCTIKywshL29PYkPQ0h8SHxIfAZD4iMcWZ1Eucwj8WEGiY8EeTdv3oSjoyPa2tqEvk7iMzwkPiQ+JD6DIfERjqxOolzmkfgwg8RHgryRxCcvLw+3bt3C06dPSXyEQOJD4kPiMxgSH+HI6iTKZR6JDzNIfCTIG0l8bt26hXPnzqGzs5PERwgkPiQ+JD6DIfERjqxOolzmkfgwg8RHgryRxKeyshJHjx5FR0cHiY8QpCk+J0+eRFVVldC7X3M5iT558gT37t3Dnj174OLiAhMTE1RUVAx5LyhJkWRb79+/j5MnT2LKlCkICwvD48ePh8x7+vQpdHV18euvv5L4SAiJj3BkdRLlMo/EhxkkPhLkkfhIhjTEp7y8HGfOnIGCggLMzc1x8+ZN1NbW4u7du3314s+jVXV1dYiPj4eWlhZ27twJBwcHLFy4ECYmJigrK5PKMplua1FREQwMDKCuro5PP/0UGhoaKCkpGTIvMzMTK1aswNatW0l8JITERziyOolymUfiwwwSHwnypCU+5eXlsLKyQktLi1jrzDeEiY+DgwPu3buHtrY2VFRUYO7cudi0aRPKy8vR1tYGe3t7LFq0CLdv30ZbWxv8/f1x5swZpKamoqmpCQUFBdDS0sKHH36IrVu3wtnZGZ6engPKw8Nj0L+NRnl5ecHCwgJLly7FV199BVVVVUyYMAEbN27EmTNnpLJMptt66tQpKCkpYcqUKXjllVcwffp0nDp1asjtOnr0KD7++GMsWbIEvr6+8PHxwXvvvYePPvoIvr6+uHDhAkxNTfHdd98hMDAQFy5cgLe3NyZMmAAlJSUEBwfjwoUL8PHxweHDh9Hc3DzsuTKWIfERjqxOolzmkfgwg8RHgjxpiM/ly5dx8eJFuLu7Izc3d0w/qPTFfVJSUgJjY2O4u7vD29sbLi4uWLlyJZSUlODi4gIfHx/s3bsX3377LVxcXODt7Q1DQ0McOHAAx44dg6enJxwdHfHLL79g7ty50NDQwKFDh2SqDh8+jC1btmDOnDlQVlaGnJwc1NXVcfDgQc7X7cXS0NCAnJwcJk2ahEWLFmH//v1DjtXV1cWiRYuwcOFCqKioYOPGjfjyyy/x1VdfQUVFBVu3bsXatWuxePFibNq0CVu3bsXGjRsxffp0LFu2DJs3b8bWrVuhpKQEfX39QdJP4iMeN2/eRFFREU6fPo3CwsIh7y4vDiQ+spdH4sMMEh8J8qQhPjk5OfD29kZ4eDhCQ0PR1dUl1nrziRf3SVtbG65cuYLMzExkZmbi8uXLiIuLQ2JiIi5fvozMzEykpKQgPj6+7+e0tDSkpqbi0qVLuHz5MjIyMpCWloa4uDhkZGTgypUryMrKGlDC/m00Ky0tDbGxsUhNTUVcXBzS09Oltk6S5GZkZCA2NhbR0dGIj49HZmbmkHlXrlxBfHw8oqOjxaqoqChERUUN+Pn5x5bDnStjGTa2taqqCr6+vkhISIC/vz8rH5uT+MheHokPM0h8JMiThvhcvXoVZ8+eRXR0NPz9/dHZ2SnWevMJvjQLPjNeGzyfYWNb6+rqcPToUeTn5+P48eODPjpkAomP7OWR+DCDxEeCPBIfyeBLs+AzY7XB3759e8C7g2Opnr+bKUlFRkZCXV0d3t7eMDMzI/GRYhaXeSQ+zCDxkSBPmuITFRXVdyJ2dXWNenV2dqKjowOtra1oa2uTSrGdLWqesHGtra1ob28f8V41fEPSbeno6MDFixcRFhaGsLAwCASCvv9mo0TN6z8uNDQUYWFhCAkJQWho6JgrNrbLw8MDGzZsgJqaGoyMjEh8pJjFZR6JDzNIfCTIKykpwbFjx/DgwQOh4yURn8DAQOjo6ODcuXM4f/78qFdgYCDS09Nx8+ZNlJaWSqVKSko4yRM2rqSkBFeuXMG1a9fw+PFjsc8XWUXSv4vLly/Dz88PAQEBCAwMlJlyd3fHqVOnxmQ5OjpKnGFjY4MffvgBOjo6iI+PZ+W7giQ+spdH4sMMEh8J8mpra6GlpYWioiKhl4syEZ/8/Hzo6+tj69at2LdvHwQCgdhfGGWjoqKiEBkZKdWKiIjgJG+ocX5+frh+/fqgL9byGUn/LkpLSxEQENB32frz/2WrRM3rP87DwwMXLlxASkoK0tLSxlylpqZKnJGSkoKQkBBcvXoV7e3trPRHEh/ZyyPxYQaJjwR5XV1dMDc3x+XLl4VeLspEfGpra+Hk5IRvvvkGWlpacHFxgZub26iXq6srAgICEBYWhvDwcKkU29mi5gkbFxYWhqysLNYmCVlB0m3p6elBaWkp8vLykJubKxN19epV1NfX4/Hjx+ju7h5zxeZ2ifOcwJEg8ZG9PBIfZpD4SJh35swZZGZmsiY+3d3dqKqqQnx8PJKSkpCRkcFZ3bx5EzU1NaitrZVKsZ0tap6wcTU1NXj06NGYkh5g/DZ4PiOrx4zER/bySHyYQeIjYd5w4nP//n2cPn0ad+7cYeXOqWMNvjQLPjNeGzyfkdVjRuIje3kkPswg8ZEwbzjxefLkCQIDA5GamjqmvjfCFnxpFnxmvDZ4PiOrx4zER/bySHyYQeIjYd5w4gMAoaGhiI6OHtN3YGYKX5oFnxmvDZ7PyOoxI/GRvTwSH2aQ+EiYR+LDHL40Cz4zXhs8n5HVY0biI3t5JD7MIPGRMM/V1RXe3t7Izs4edPVJXl4ejh07BgcHB2RmZgq9OiU7OxuVlZUy/x2g9vZ2FBYWsn51Dhd5bC9XlourfTzWj1lOTg6uXLkiUT1/xtmL9fzuyyP9fk5Ojkj7ha19l5KSAj09PRIfGcoj8WEGiY+EeW5ubjh27BiCg4MhEAgGVFhYGPT09GBgYICgoKBBrwsEAri7u8PDw0PmH02RlJSE4OBghIaGCt0OJsVmljh5bC9XlourfTzWj5m3tzfU1NTw888/Q1VVVeT65ZdfsHHjRujq6sLQ0BDbt28XOma4DDU1NWzYsAHOzs4ICQkZtX13/vx5eHh4DLhTPYkPt3kkPswg8ZEwz9XVFWFhYSgvL8edO3cGlbOzMzw8PFBaWir09bS0NFhaWg44CWURW1tbZGRkIDg4GNbW1jh+/DhsbW0lKnEzLC0tYW1tDUNDQ9jY2DDOY2Pd+VLPt9XGxgZ6enrQ1taGlpYW49LU1JTo95nkGRgYwMDAYMAxt7a2homJCY4dO4bDhw9LvF3CyszMbMhzxdTUFN999x02bNgAFRWVEWvt2rVYuXIl1q1bh++//x47duyAhoYGNm/eLNLv969NmzZh+fLlOHjwoNC/A2md79bW1nBwcEBLS0tfXyDx4TaPxIcZJD4S5kn6HZ+KigpYW1vLvPiYmZmhrKwMXl5eOH36NC5cuIC4uDiJKjY2Vqzxp06dgr+/P3bu3ImwsDDGeeIul8/1fFtDQkKwdOlS/Pjjj9izZw9++OEHTJs2Ddu3b4e6ujpmz54NFRUV7NmzBwoKCli6dCl27NiBPXv24Msvv8TMmTOxY8cOrF+/Hh999BEUFRWhqqqKTz75BFOmTMGvv/6KHTt2YNq0aVi7di327NmDNWvWYNq0afj111+hrq6OGTNm4Pvvv8fu3buhoKCAqVOnQlVVFbt378bs2bOhrKyM3bt3Y926dViyZAl27NiB1atX49dff4WamhoEAkHfdvn4+EBPTw/+/v5QVFSEvLw8du7ciQ0bNmD69OnYsmUL1NXVMW/ePCxfvhw7d+7Exo0bMW3aNGzatAm7du3CwoULsWHDBuzatQsqKiqQk5PDjh07oKSkhH/9618wNjZGVFSU0P0aExMDgUCAmJgYkY6Dvr4+1qxZA29vb0RGRg57DopyfgoE/7mj+2ie76GhofRRl4zlkfgwg8RHwrzxJj6urq5ISkpCW1tz7aQSAAAepElEQVQbOjs7JapHjx6JNT45ORm3bt3CoUOHcO/ePcZ54i6Xz/V8W2tqavomelNTUygqKmLixIk4cOAADA0N8cUXX2DHjh0wNTWFkpISFi1ahEOHDsHU1BQff/wxPvnkExw+fBhbt27FX//6VygrK0NHRwevvvoq3nvvPejp6eHgwYP44IMPsG7dOpiamkJBQQEffPAB9PT0YGhoiI8++gg//PADTExMoKSkhIkTJ2Lfvn0wMTHB5MmToaqqChMTE2zevBkLFizAoUOHsGnTJhgYGGDfvn24e/du33YVFhbCzs4OJSUl2LBhA+Tl5fse9fLPf/4Tu3fvhoGBAWbOnIklS5bg8OHDUFNTwwcffAB1dXUYGRlh9uzZ2Lp1K4yMjLB9+3ZMnToVBw8ehIaGBt5//314enqiubmZleNw+vRprF27FgUFBXj48KHE5+fzBwmP5vleV1cHY2NjEh8ZyiPxYQaJj4R541F80tPTh9xecRD3mGVkZKC6uhpGRkZobW1lnDcerxC6f/8+Fi9eDAMDAyQkJODgwYOYNm0aQkNDERMTgyVLlsDJyQlJSUl98hEZGYmkpCTMmjULs2fPRnh4OKytrfHaa6/B1NQUvr6++Pvf/45JkyZBIPjPd9qmTZsGfX19JCQk4MCBA5g+fTpCQ0Nx4cIFzJw5E/v370d8fDyMjY0xdepUBAYGIiEhAUuXLoWdnR0SExNx9OhRKCsrIywsDNHR0fDw8MChQ4cGPGH81q1bOHXqFCorK6GiooKdO3ciOjoax44dw4wZM+Dq6ooLFy5g9erV2LZtG6KiouDg4ICpU6fCxcUFMTEx+PHHH2FjY4P4+Hg4Ojrim2++6XsXR0FBASEhIejsZOe7d25ublBUVERpaSmePXsm0jFjC7qqS7pZXOaR+DCDxEfCPBIf5pD4SJ8XxcfLywutra1wc3PDwoULcefOHdy/fx/r169HWloaHj58iICAABw6dAh1dXXo6OjAypUrIS8vj5qaGkREROCtt95CQEAAbty4gYkTJ0JOTg5VVVV97yp5e3ujtbUVZ8+exeLFi/uWsWzZMjg7O6OlpQV+fn6YP38+SktL0dbWBiUlJcTHx6O9vR3h4eHYt28fqqur0dXVhcjISBw+fHhY8Tly5AgaGxsRFRWFxYsXIzs7G42Njdi2bRv09fXR0NCAxMRELFiwAJcvX0ZTUxN27dqF6OhotLW1ISUlBZs3b0Z1dTXa2tqwd+9ehIeHk/j0g8RH9vJIfJhB4iNhnru7OxISEoa8MzOJz9CQ+EifF8XHz88PnZ2d8PLywuLFi1FXV4e2tjYoKyv3CXxwcDAMDAzQ1NSE7u5uyMvLY/Xq1WhoaEBMTAzefvttBAcHo6ysDBMnTsS8efNw7949NDQ0YPHixfD390dnZyc8PT2xZMmSvmUsX74crq6uePToEYKCgrBw4UJUVlaiq6sLKioquHjxIrq7u3HhwgUcOHAA9fX16O3tRXR09IjiY2Vlhba2NsTFxWHp0qXIz89Ha2srVFVV+86X1NRULFq0qO+J5RoaGoiPj8fjx4+RkZGBbdu2ob6+Hl1dXdDV1SXxeQESH9nLI/FhBomPhHnp6ekICQkZUmxIfIaGxEf6kPiQ+JD4SDeLyzwSH2aQ+EiY19bWhgsXLuDx48dCXyfxGRoSH+lD4kPiQ+Ij3Swu80h8mEHiw0JeSkoKiQ8DSHykD4kPiQ+Jj3SzuMwj8WEGiQ8LecOJT35+Ptzd3YcUG76Iz/MrdSwsLJCWlsaJ+CQnJyMlJQU6OjpC/0BJfAZD4kPiQ+Ij3Swu80h8mEHiw0LecOJz//59HDlyZMgTig/i09vbCwMDA6Snp+PYsWOciU9KSgquXLmC/fv3D7h7rLh5JD4kPiQ+4kPiI3t5JD7MIPFhIW848WltbYWRkdGApt0fPohPbW0ttLS0UFxcjEOHDiElJYUT8bl8+TKysrKwZ88eesdHREh8SHxIfKSbxWUeiQ8zSHxYyBvr4pOVlQUVFRXk5+dDUVERSUlJnIlPZmYmdu3aJXR/kvgMhsSHxIfER7pZXOaR+DCDxIeFvLEuPnV1ddDS0sKNGzdw8OBBzt7xycjIQFlZGQ4ePEgfdYkIiQ+JD4mPdLO4zCPxYQaJDwt5Y118ALqqi6+Q+Ixd8Xn8+DEaGxtRX18/bN27d2/EMaJUSUkJDh8+TOIjQ3kkPswg8WEhj8SHGSQ+0ofEZ+yKT2FhIXx8fBAQEIDz588PWYGBgcO+Lmp5eHhg+/btuHfvXt86kPhwmyfuchsbG7FmzRp4e3uT+IwFSHykC4kPPyHxGbviExUV1ff3mJ2dPWRlZWUN+7qolZSUBG1tbTQ0NPStA4kPt3niLrezsxNHjx7F+fPnSXzGAiQ+0oXEh5+Q+Ixd8QkNDUVMTAwePnyIZ8+eDVlPnz4d9nVRq6mpCaampvRRlwzlibvc539P4eHhJD5jARIf6ULiw09IfMa2+MTGxo64jvTlZulmcZnHZLmxsbGIiIgg8RkLkPhIFxIffkLiQ+JD4iPdLC7zSHyYQeLDQl5oaCiam5uF/g6Jz9CQ+EgfEh8SHxIf6WZxmUfiwwwSHxbynJ2dkZeXh56enkGvkfgMDYmP9CHxIfEh8ZFuFpd5JD7MIPFhIc/NzQ1JSUno7u4e9FpbWxvMzc3R2NgoNJPER3RIfMSHxIfEh8RHullc5pH4MIPEh4U8Pz+/IcXn8ePHiIyMRGxsrNDX+SY+Li4uuHTpEifik56ejsrKShgaGpL4iAiJD4kPiY90s7jMI/FhBokPC3nDiU9vby9KSkpgb2+Phw8fDnqdL+JjYmKCzMxM/Pbbb5w9siIqKgphYWHQ1dWlR1aICIkPiQ+Jj3SzuMwj8WEGiQ8LeT4+PvD19cWtW7dQWVk5qFJSUnD48GHcuHFj0GupqamwtLSUefHZv38/jh8/DgUFBc4eUioQCGBgYICff/6ZHlIqIiQ+JD4kPtLN4jKPxIcZJD4s5Hl4eMDExAR+fn6DbvMeFBSEkydPYvPmzfDx8Rn0mqOjI3799VdER0cjOTlZJuvixYvYtm0bgoODoaenB3t7e8THx0ucm5SUJNb4Y8eO4cCBA1BWVkZTUxPjYzaexUdfXx9xcXHQ09PD1KlTERwcjKioKCxevBiOjo5ISEiAsbExNm/ejLCwMCQkJODrr7/G7NmzIRAIYGVlhddeew3Gxsbw8fHB22+/jUmTJiEkJAShoaGYOnVq3zJ0dXUxbdq0vmV8+eWX2LdvH2JiYmBkZIQpU6bA398fcXFxWLJkCWxtbREfHw9LS0soKSkhJCQEycnJOHLkCHbt2oX79+/3bdeL4rNjxw5ERUXh6NGjmD59Os6cOYPIyEh8++232LJlCyIiImBnZ4epU6fi9OnTiI6Oxo8//ghra2vExcXBwcEBK1asQEhICOLi4qCkpITQ0FASn36Q+MheHokPM0h8WMjz9vaGm5sbcnNzUVBQMKiio6Oxd+9eZGVlDXotMzMTbm5uCAsLQ2RkpExWVFQUtm/f3jfZ2NjYQCAQSJwbEREh1ng/Pz/4+Phgx44dQv9ASXwG86L47N+/HwKBANra2pg0aRJ8fHwQFBSE+fPnw8bGBuHh4Thw4AA2bNgAf39/hIWFYcaMGfjqq6/g5+cHExMTvPrqqzh06BDOnj2Lt956C//+97/73vWcPHly3zK0tLQwefJkeHt74/z585g2bRo0NDQQGhqKAwcO4IsvvoC7uzsEAgEWLFgACwsLCAQCGBsbQ1FREefOnUNERAT09fWxffv2YcXnl19+QWBgIExNTTF16lQ4ODjg/Pnz+Oabb6CsrIyAgABYWVlh0qRJOHHiBIKCgvDdd9/BzMwMoaGhsLa2xpIlS3Du3DkIBAIoKCggJCSExKcfJD6yl0fiwwwSHxbyhvuODwCUl5fjwIEDyM3NRXFx8YAqKipCRkYG0tLSkJqaKvWKj4+Hn58fEhISkJqaitDQUISGhiIlJQUJCQnw9fVFREQEUlJSIBAI4Ovri+TkZOjp6SEgIABGRkZwd3fHhQsX4O/vj8TERKSmpiI4OBhhYWFISUkZtIyQkBAIBAKkpKQMWJcXfx6p0tLS+t4toC83i8aL4uPi4oLa2lo4Ojpi7ty5KCoqQkVFBX788UfExMTg3r17cHd3x969e3Hr1i3U1dVh2bJlWLFiBW7evInAwEC8+eab8PDwQHZ2Nt577z3MmjULN27cwM2bNzFv3ry+ZZw8eRLz58/vW8aiRYtgZ2eH6upquLm5QU5ODnl5eaitrYWioiLCwsJw9+5d+Pv747fffkNxcTEaGxvh6+uL/fv3D/tRl6GhISoqKhAUFIQFCxbg4sWLuH37NlRUVLB//36Ul5cjIiICcnJySExMRGVlJdTU1BAUFITa2lpER0dDSUkJxcXFqK2txZ49exAWFkbi0w8SH9nLI/FhBokPC3miiI+BgQFu3LiBiooKTisuLg7KyspISUlBaWkpDA0NYWxsjOLiYiQnJ0NRURH29vYoLi7GkSNH8NNPPyE9PR1JSUnYvXs3Dh8+jKtXryIiIgKbN29GWloaSkpKoKenBysrKxQXFyM2NhYbN27ExYsX+5ZhYmIyaPtv374t9vqXlZUhJydnyC+Ss31s+Q59x4e+40PiI90sLvNIfJhB4sNCnijiY2Njg/b2dlYeFihJpaenY/bs2cjLy0NHRwd+++03aGlpoaWlBTk5OZg6dSqOHj2KBw8e9H0PpLCwEC0tLdi4cSMsLCzQ3t6OhIQEzJ8/HwUFBWhra4Oqqir09fXR2tqKS5cuYc6cOX3L0NDQgLa2NlpaWlh5eOJQx4bEZzAkPiQ+JD7SzeIyj8SHGSQ+LOSJIj7Hjx8Xejn7aJORkYHZs2cjPz8fDx8+7BOftrY2XL16FVOnToW1tTUePHiAAwcOYNq0aSgqKkJLSwtUVFRgYWGBjo4OJCYmYsGCBSgsLER7ezvU1NSgr6+P9vZ2XLp0qe9jjOdypaOjM+jjKT41C75C4kPiQ+Ij3Swu80h8mEHiw0IeiQ+Jj6xC4kPiQ+Ij3Swu80h8mEHiw0IeiQ+Jj6xC4kPiQ+Ij3Swu80h8mEHiw0IeiQ+Jj6xC4kPiQ+Ij3Swu80h8mEHiw0JeUFAQvLy8hmxAJD4kPlxB4kPiQ+Ij3Swu80h8mEHiw0JeQUEBzM3Nh3zsxO3bt2Fra4v29na2Vo8xJD4kPiQ+JD5MIPGRvTwSH2aQ+LCQ19zcDAMDgyHFprm5Gc7OzkKbw2hD4kPiQ+JD4sMEEh/ZyyPxYQaJDwt5I4nP06dP4enpiYyMDFYe7ikJJD4kPiQ+JD5MIPGRvTwSH2aQ+LCQN5L4AICXlxfS0tJIfPrBp2bBV0h8SHxIfKSbxWUeiQ8zSHxYyCPxIfGRVUh8SHxIfKSbxWUeiQ8zSHxYyCPxIfGRVUh8SHxIfKSbxWUeiQ8zSHxYyCPxkV3x6e3tZb2klSsNISPxIfEh8ZFuFpd5JD7MIPFhIY/ER3bF58GDB0hJSUFiYmJfJSQkDPq5oKAA+fn5SEpKGvDai+OKiorQ3d2NqqoqXLx4ccixzysvLw/JycnDjklISMD169fx+PFjVvdH/31C4kPiIykkPrKXR+LDDBIfFvJIfGRTfJ4+fYrs7Gx8//33WL9+PVRUVLBp0yaoqKj0/femTZugoKAAFRUVbNy4EcrKygNe619KSkpQV1dHXl4efHx8sH79emzcuFHo2E2bNmHZsmXYvHkzli5dinXr1g2Z+9NPP0FfXx+1tbWs3+6AxIfEh8RHullc5pH4MIPEh4U8Eh/ZFJ87d+5AT08Pf/vb3zB9+nTMnTsX8+bN6/vf5zVp0iS88soreP311zFz5sxBrz+vr7/+Gv/4xz+gpqaG1atX45NPPoGcnJzQsfPmzcMrr7yCd999F3/+858xbdq0IXOnTJmCmTNn4tixY2hoaJBKsyDxIfGRFBIf2csj8WEGiQ8LeSQ+3IpPT08PCgsLB31M5eDggH//+9946aWX8NZbb+Hdd98VWm+88Qb+7//+D7///e/x9ttvDzluwoQJeOmll/D666/jlVdewauvvop33nlnyPEvvfQS/vSnP+H3v//9sMt/88038de//hVTpkyBh4cH4uPjB3wMlpWVhUePHjHaNyQ+JD4kPtLN4jKPxIcZJD4s5JH4cCs+7e3tfX/MkZGRfeXg4IAVK1Zg1qxZ+Prrr2W+VqxYATc3N4SHh/dtQ0hICKytrfskQFxIfEh8SHykm8VlHokPM0h8WMgj8eFWfJqbm3HlyhXcu3cPTU1NfXX79m0kJCQgOjoaUVFRMl8JCQmorq4esA1VVVUwNTVFTU3NiBOmMEh8SHxIfKSbxWUeiQ8zSHxYyOOb+MyaNQuXL19GY2Mj1NXVsXv3bty9exeXLl3C5MmTYW5ujtraWujo6GDy5MnIzs7G3bt3sX79ehgbG6O+vh6RkZGQk5NDVlYW6uvrsXXrVujq6qKurg4JCQmYNWsWMjIy0NDQAHV1dWhra0tNfJqamnDt2jV0d3cPyu/p6eFVvbhPOjo6YGlpyZr4uLu7o6mpCS4uLpg/fz7Ky8tx7949/PTTT0hOTkZLSwvOnTsHPT09VFdXo6WlBStWrMCqVatw584dCAQCvPXWW/D19UVBQQHef/99zJkzB7dv30ZlZSUWLFgADw8PNDU1wdnZGQsXLuxbxpIlS3Dq1Cncv38fPj4+mDdvHm7cuIHm5masX78eMTExePDgAUJCQqCjo4OKigq0t7cjIiJiRPExMzPD3bt3ER4ejkWLFuHy5cuoq6vDli1bcOjQIdTW1iIuLg7z58/HpUuXUF9fj507dyIiIgJNTU1ITEyEiooKbt++jebmZmhrayMsLIzEpx8kPrKXR+LDDBIfFvLa2tpw8uRJ3L59e8im5unpiYSEBLS1taGrq4uzSk5OxpQpU3Dw4EF4enpi1apVWLVqFdzc3GBhYYH3338fysrKcHd3x/fff4+JEyfi2LFjcHd3x7x587B+/f+3c20vUX1R+D/oqT/hV3aBgl7sISLowYfIVChMxYdKmLIaJTPFzFvazHjJC+oZHS95qQwL1MiCzKkUnMZRRxucizN6RsHAqASdgojv9+QhO4WjHc/eZ7c/WA/lOd+31/nWrLXUU2fQ0tKCnJwc7N69GyaTSfrOPiYmBs3NzcjPz8d///0Hg8GA6upqHDp0CDqdTvpuei1CoZAiOS0sLMBms+HLly9hXa+UrhqxtLSEwsJCzMzMYHV1ddP3h0IhhEIhzM/P4+jRo7hy5Qo6Ojpw8eJFREREQBAEtLS0IDIyEkVFRejs7ERaWhpiY2NhsVjQ2dmJAwcO4ODBg2hsbERWVhZ27NiB9PR0VFVVYefOndi1axcEQUBDQwP27NmDy5cvo6OjAzqdDnv37pU09u/fj5SUFLS3t0Ov1yMiIgI1NTVob2/H4cOHkZubi46ODmRmZuLkyZNoaGhAaWkpysrKpKV6La+pqSlUVlbC4/EgPj4eiYmJaGpqQnZ2Nvbt2weDwYCWlhYcO3YMcXFxsFgsyMvLw549e1BcXIzW1lZERUUhOzsbbW1tKCgowJEjR2A2m1FXV4fIyEh0dHTg06dPivgoCAJiYmIwNTW1oY9rnm3E2dXVhd7e3g3PGC7fRrG4uIj8/HzZ4lNeXg6Xy4WVlZXf6q5p/+0ZlMpDaS6SfL97vhvd29vbi56eHr74sACSi8/3799htVrR3d2Nr1+//vaa/v5+9PX1wel04v3798Ti6dOnSE5ORlZWFgRBQGpqKlJTUyEIAsrKynD69GlkZGTAbDZDr9fjzJkzuHv3LsxmM1JSUnDt2jWYzWaUlJQgISEBFRUVaGhogE6nQ1paGgRBgNFoRHx8PCoqKlBcXIzo6Gjk5+djdHR03VmmpqYUyWloaAjd3d0YHx8P63qldNWI0dFR6PV6DA4Obunca/fYbDZcunQJeXl5sFgsyM3NRUJCAmpra2E2m3Hu3DmYTCZYLBbk5+dLXlosFiQnJyM5ORmCIOD27duIjo5GQUEBqqqqEBsbi7Nnz6K2thZ1dXVITEzErVu3YLFYcPPmTSQmJkoaSUlJyMnJkTQSEhJQU1MDi8WC8+fP486dO2hsbERRURGuXr2K+vp6ZGdnw2g0wmg0wm63S3lZrVaYzWYMDw8jOzsbmZmZEAQBxcXFSEpKQnl5OcxmM3Q6HdLT0yEIAgwGAxITE1FaWoqGhgakpqaiuLgYjY2NMJlMuHDhAurr62EwGHDq1Cm0tbWFXVMbRXNzM65fvw6r1bqhj+H6/PDhQzx+/HjDMypV73a7HXV1deuG47dv3/DgwQO8efNGprP2Z6fTieHh4b/ufUp+bpXuAaT4fr3u2bNnGBkZ+eP9LpcLT548wdu3b9f9pJAvPhoF6R9dulwuVFdXY2Vl5bdfX1xchN/vRzAYJBozMzOw2+2Ynp6GKIqYnJzE1NQURFGE3++H3W6Hy+VCMBiUml0gEIAoipiYmIDL5YIoivD5fHA4HAgEAggGg1JTE0URMzMzGB0dRSAQgM/ng81mw+TkJERRXHeWX/+81ZicnMTz58/Dfr5K6aoRHo8HN27cgN1u39K51+6Zm5uDw+GA2+3G/Pw83G43HA4H5ubmEAwGMTExIT0/j8cjeRkMBjE2NoaxsTGIogiv1wubzQav14vZ2Vm8e/dO4lnT8Hg8Mg1RFDE2Nga32y1pOBwOzM7OSvozMzMIBoPwer1STU5PT0sN/uf8A4EApqenMTc3B6fTua4ux8bG4Pf7IYqirC4dDoeU5+TkJHw+H4LBIPx+P5xOp3SdzWaD2+1WrFbcbjfGx8elz4sS9en1euH1eje8Xqkc5ubm4PF41v1K+cePH9LX/qTr9XrR398veb/VUPJzq3QPIMX383Xz8/MoLS2F1WqVPle/xvz8PHw+H5aWltb9apIvPhoF7YuP0udjAdv9js9266oBpd7xUQpaepdBq6Dds83qLi8vw2q14sOHD1hZWeGxjWE0GjE+Pr7pd0n54qNRkG4WLpcL5eXl+PjxI0KhEFZXV3moFAsLCxgZGcHnz5+Jn0Xp+Pkdn5WVFeLn4cFjMxEKhTAxMYGMjAwUFhZKv7bcShgMhr+6f7u4SPL9fJ3JZEJcXBz6+/s31QtDoRCGhobQ2trKFx+tgfTiEwgEkJWVhc7OTjx69EgWXV1dv/37fzmUeib37t1DTU0N7t+/r6quGtHZ2Qm9Xo+mpqYtnVvpXEnxackzrT7j7cqjrKwMJ06cQFRUlPSPKbYSf3v/dnGR5Pv1uuPHj6OkpCTsXrgWlZWV6OrqwvLyMtE5qhYXX3wU4lv7v22sVitev34tC6vV+sev/auh1DMZHBzEq1evMDg4GBaflrywWq148eJF2Lltd66k+LTkmVaf8Xbl8fLlS/T19aGnp4fHNkdfXx8GBgY27ffAwAB8Pl/Yrwts1xxVi4svPiry/UvvKYQDpZ9JuHz/kheknrHSfNwzevhI6SrJR/PZNsO3HbpKgtaz8cVHo3wsgL8ou/2gvY65Z3LQ7hkpXVqHKEk+VvJQm4svPhrlYwGsNAuaQXsdc8/koN0zUrq0DlGSfKzkoTYXX3w0yscCWGkWNIP2OuaeyUG7Z6R0aR2iJPlYyUNtLr74aJSPBbDSLGgG7XXMPZODds9I6dI6REnysZKH2lx88dEoHwtgpVnQDNrrmHsmB+2ekdKldYiS5GMlD7W5+OKjUT4WwEqzoBm01zH3TA7aPSOlS+sQJcnHSh5qc/HFR6N8LICVZkEzaK9j7pkctHtGSpfWIUqSj5U81Obii49G+VgAK82CZtBex9wzOWj3jJQurUOUJB8reajNxRcfjfKxAFaaBc2gvY65Z3LQ7hkpXVqHKEk+VvJQm4svPhrlYwGsNAuaQXsdc8/koN0zUrq0DlGSfKzkoTYXX3w0yscCWGkWNIP2OuaeyUG7Z6R0aR2iJPlYyUNtLr74aJSPBbDSLGgG7XXMPZODds9I6dI6REnysZKH2lx88dEoHwtgpVnQDNrrmHsmB+2ekdKldYiS5GMlD7W5+OKjUT4WwEqzoBm01zH3TA7aPSOlS+sQJcnHSh5qc/HFR6N8LICVZkEzaK9j7pkctHtGSpfWIUqSj5U81Obii49G+VgAK82CZtBex9wzOWj3jJQurUOUJB8reajNxRcfjfKxAFaaBc2gvY65Z3LQ7hkpXVqHKEk+VvJQm4svPhrlYwGsNAuaQXsdc8/koN0zUrq0DlGSfKzkoTYXX3w0yscCWGkWNIP2OuaeyUG7Z6R0aR2iJPlYyUNtLr74aJSPBbDSLGgG7XXMPZODds9I6dI6REnysZKH2lx88dEoHwtgpVnQDNrrmHsmB+2ekdKldYiS5GMlD7W5+OKjUT4WwEqzoBm01zH3TA7aPSOlS+sQJcnHSh5qc/0PfIHAQm33+fEAAAAASUVORK5CYII=;" vertex="1" parent="1">
          <mxGeometry x="80" y="200" width="574" height="790" as="geometry" />
        </mxCell>
        <mxCell id="Kqu6DBVRuiVstjZpUtu2-2" value="SONG" style="text;html=1;align=center;verticalAlign=middle;whiteSpace=wrap;rounded=0;fillColor=#fff2cc;strokeColor=#d6b656;" vertex="1" parent="1">
          <mxGeometry x="290" y="820" width="40" height="20" as="geometry" />
        </mxCell>
        <mxCell id="Kqu6DBVRuiVstjZpUtu2-3" value="J&#39;aime" style="text;html=1;strokeColor=#82b366;fillColor=#d5e8d4;align=center;verticalAlign=middle;whiteSpace=wrap;rounded=0;" vertex="1" parent="1">
          <mxGeometry x="700" y="790" width="40" height="20" as="geometry" />
        </mxCell>
        <mxCell id="Kqu6DBVRuiVstjZpUtu2-6" value="Indifférent" style="text;html=1;strokeColor=#d6b656;fillColor=#fff2cc;align=center;verticalAlign=middle;whiteSpace=wrap;rounded=0;" vertex="1" parent="1">
          <mxGeometry x="700" y="820" width="60" height="20" as="geometry" />
        </mxCell>
        <mxCell id="Kqu6DBVRuiVstjZpUtu2-9" value="Je n&#39;aime pas" style="text;html=1;strokeColor=#b85450;fillColor=#f8cecc;align=center;verticalAlign=middle;whiteSpace=wrap;rounded=0;" vertex="1" parent="1">
          <mxGeometry x="700" y="850" width="80" height="20" as="geometry" />
        </mxCell>
      </root>
    </mxGraphModel>
  </diagram>
</mxfile>
